<?xml version="1.0" encoding="utf-8"?>
<!-- Generator: Adobe Illustrator 16.0.4, SVG Export Plug-In . SVG Version: 6.00 Build 0)  -->
<!DOCTYPE svg PUBLIC "-//W3C//DTD SVG 1.1//EN" "http://www.w3.org/Graphics/SVG/1.1/DTD/svg11.dtd">
<svg version="1.1" id="Layer_1" xmlns="http://www.w3.org/2000/svg" xmlns:xlink="http://www.w3.org/1999/xlink" x="0px" y="0px"
	 width="141.731px" height="38.307px" viewBox="0 0 141.731 38.307" enable-background="new 0 0 141.731 38.307"
	 xml:space="preserve">
<g>
	<g>
		<g>
			<path fill="#ED1B34" d="M141.731,31.802c0,3.579-2.928,6.505-6.505,6.505H6.508C2.927,38.307,0,35.381,0,31.802V6.505
				C0,2.926,2.927,0,6.508,0h128.719c3.577,0,6.505,2.926,6.505,6.505V31.802z"/>
		</g>
	</g>
	<g>
		<g>
			<g>
				<path fill="#FFFFFF" d="M24.309,9.398h4.958v12.668c0,4.729-3.315,7.93-8.595,7.93c-5.281,0-8.598-3.201-8.598-7.93V9.398h4.963
					v12.784c0,2.422,1.444,3.69,3.635,3.69s3.636-1.269,3.636-3.69V9.398z"/>
				<path fill="#FFFFFF" d="M45.575,29.595l-7.559-11.799v11.799h-4.847V9.398h4.701L45.456,21.2V9.398h4.85v20.197H45.575z"/>
				<path fill="#FFFFFF" d="M60.229,29.595h-4.96V9.398h4.96V29.595z"/>
				<path fill="#FFFFFF" d="M66.996,9.398L74.582,21.2V9.398H66.996z"/>
				<path fill="#FFFFFF" d="M80.224,9.398H94.85v4.125h-9.665v3.778h8.809v4.127h-8.809v4.042h9.698v4.124H80.224V9.398z"/>
				<path fill="#FFFFFF" d="M112.252,9.398v4.185h-5.451v16.012h-4.964V13.583h-5.451V9.398H112.252z"/>
				<path fill="#FFFFFF" d="M129.657,9.398v4.185h-5.456v16.012h-4.957V13.583h-5.456V9.398H129.657z"/>
			</g>
		</g>
		<polygon fill="#FFFFFF" points="73.462,29.595 65.875,17.792 65.875,29.595 		"/>
	</g>
</g>
</svg>
