<?xml version="1.0" standalone="no"?>
<!DOCTYPE svg PUBLIC "-//W3C//DTD SVG 1.1//EN" "http://www.w3.org/Graphics/SVG/1.1/DTD/svg11.dtd" >
<svg xmlns="http://www.w3.org/2000/svg">
<metadata></metadata>
<defs>
<font id="colfaxmedium" horiz-adv-x="1265" >
<font-face units-per-em="2048" ascent="1536" descent="-512" />
<missing-glyph horiz-adv-x="450" />
<glyph horiz-adv-x="2048" />
<glyph horiz-adv-x="2048" />
<glyph unicode="&#xd;" horiz-adv-x="2048" />
<glyph unicode=" "  horiz-adv-x="450" />
<glyph unicode="&#x09;" horiz-adv-x="450" />
<glyph unicode="&#xa0;" horiz-adv-x="450" />
<glyph unicode="!" horiz-adv-x="606" d="M143 143q0 71 44 115.5t116 44.5t116 -44.5t44 -115.5t-44 -115t-116 -44t-116 44t-44 115zM158 866v568h291v-568l-68 -452h-156z" />
<glyph unicode="&#x22;" horiz-adv-x="997" d="M147 860v574h242v-574h-242zM608 860v574h242v-574h-242z" />
<glyph unicode="#" horiz-adv-x="1386" d="M82 393v189h225l33 292h-215v189h235l41 371h213l-41 -371h332l41 371h213l-41 -371h197v-189h-217l-33 -292h207v-189h-228l-43 -393h-213l43 393h-331l-43 -393h-213l43 393h-205zM520 582h332l33 292h-332z" />
<glyph unicode="$" horiz-adv-x="1208" d="M109 426v33h266v-33q0 -103 62.5 -156t176.5 -53q105 0 167.5 51t62.5 138q0 63 -32 101.5t-101 63.5l-273 99q-80 28 -134.5 57.5t-98.5 72t-65 101t-21 135.5q0 158 95 256t255 129v238h274v-240q156 -33 246 -133.5t90 -253.5v-43h-264v37q0 88 -55.5 137t-159.5 49 q-97 0 -153 -41.5t-56 -119.5q0 -58 33.5 -90.5t99.5 -57.5l262 -94q77 -29 132 -59.5t102.5 -75t71.5 -107t24 -141.5q0 -157 -100.5 -268.5t-263.5 -145.5v-237h-275v237q-174 31 -271 140t-97 274z" />
<glyph unicode="%" horiz-adv-x="1810" d="M92 967v166q0 144 90.5 232.5t245.5 88.5t245.5 -88.5t90.5 -232.5v-166q0 -144 -90.5 -233t-245.5 -89t-245.5 89t-90.5 233zM289 950q0 -64 36.5 -101.5t102.5 -37.5t102.5 37.5t36.5 101.5v199q0 64 -36.5 101.5t-102.5 37.5t-102.5 -37.5t-36.5 -101.5v-199zM438 0 l738 1434h206l-737 -1434h-207zM1057 301v166q0 144 90.5 232.5t245.5 88.5t245.5 -88.5t90.5 -232.5v-166q0 -144 -90.5 -232.5t-245.5 -88.5t-245.5 88.5t-90.5 232.5zM1253 285q0 -64 37 -102t103 -38t102.5 38t36.5 102v198q0 64 -36.5 102t-102.5 38t-103 -38t-37 -102 v-198z" />
<glyph unicode="&#x26;" horiz-adv-x="1409" d="M102 428q0 268 254 401q-59 65 -92 130t-33 153q0 156 112 253t294 97q186 0 294.5 -96t108.5 -250v-84h-231v82q0 68 -44 113t-126 45q-77 0 -123.5 -41t-46.5 -113q0 -46 25.5 -84.5t74.5 -85.5l453 -452q2 20 2 59v164h221v-174q0 -125 -41 -234l174 -172l-164 -168 l-143 142q-155 -142 -412 -142q-251 0 -404 124t-153 333zM348 430q0 -123 91.5 -193.5t232.5 -70.5q167 0 256 92l-432 432q-148 -102 -148 -260z" />
<glyph unicode="'" horiz-adv-x="536" d="M147 860v574h242v-574h-242z" />
<glyph unicode="(" horiz-adv-x="681" d="M133 664q0 470 250 938h268q-120 -279 -176.5 -499.5t-56.5 -438.5t56.5 -438.5t176.5 -499.5h-268q-250 468 -250 938z" />
<glyph unicode=")" horiz-adv-x="681" d="M31 -274q120 279 176.5 499.5t56.5 438.5t-56.5 438.5t-176.5 499.5h268q250 -468 250 -938t-250 -938h-268z" />
<glyph unicode="*" horiz-adv-x="905" d="M113 948l221 127l-221 129l59 103l223 -129v256h117v-256l221 129l60 -103l-222 -129l222 -127l-60 -102l-221 127v-254h-117v256l-223 -129z" />
<glyph unicode="+" horiz-adv-x="1232" d="M143 621v233h344v379h258v-379h345v-233h-345v-379h-258v379h-344z" />
<glyph unicode="," horiz-adv-x="512" d="M31 -264l102 543h297l-184 -543h-215z" />
<glyph unicode="-" horiz-adv-x="837" d="M113 530v250h612v-250h-612z" />
<glyph unicode="." horiz-adv-x="524" d="M102 143q0 71 44 115.5t116 44.5t116 -44.5t44 -115.5t-44 -115t-116 -44t-116 44t-44 115z" />
<glyph unicode="/" horiz-adv-x="970" d="M61 -215l578 1751h270l-577 -1751h-271z" />
<glyph unicode="0" horiz-adv-x="1310" d="M115 471v492q0 222 147.5 360.5t392.5 138.5t393 -138.5t148 -360.5v-492q0 -222 -148 -361t-393 -139t-392.5 139t-147.5 361zM397 467q0 -129 68 -196.5t190 -67.5t190 67.5t68 196.5v500q0 129 -68 196.5t-190 67.5t-190 -67.5t-68 -196.5v-500z" />
<glyph unicode="1" horiz-adv-x="806" d="M51 1034v250l355 150h233v-1434h-283v1147z" />
<glyph unicode="2" horiz-adv-x="1232" d="M106 0v215l584 573q66 66 99.5 123.5t33.5 126.5q0 89 -58 141t-151 52q-103 0 -158 -57.5t-55 -161.5v-29h-268v41q0 211 128 324.5t351 113.5q221 0 357.5 -115.5t136.5 -306.5q0 -51 -10.5 -97.5t-33.5 -90t-45 -77t-60.5 -74t-63 -64.5t-68.5 -64l-372 -342h645v-231 h-992z" />
<glyph unicode="3" horiz-adv-x="1251" d="M92 420h262q8 -101 77 -161t179 -60q113 0 181.5 63t68.5 156q0 96 -64.5 151.5t-183.5 55.5h-211v227l336 356h-557v226h901v-228l-366 -366q185 -8 304.5 -116t119.5 -300q0 -129 -72 -233.5t-193 -162t-266 -57.5q-105 0 -196.5 29t-162.5 84t-113 141.5t-44 194.5z " />
<glyph unicode="4" d="M92 307v209l432 918h256l-413 -910h381v297h260v-297h182v-217h-182v-307h-260v307h-656z" />
<glyph unicode="5" horiz-adv-x="1277" d="M115 381h268q19 -82 84 -131t162 -49q124 0 197 74t73 192q0 112 -71.5 186t-190.5 74q-165 0 -238 -125h-260l135 832h768v-226h-544l-60 -344q96 90 271 90q203 0 335 -131.5t132 -347.5q0 -104 -40.5 -197t-112 -160.5t-174 -107t-220.5 -39.5q-199 0 -343 107 t-171 303z" />
<glyph unicode="6" horiz-adv-x="1257" d="M98 473q0 131 39 232.5t113 207.5l360 521h301l-399 -549q68 65 211 65q92 0 174 -33.5t143.5 -94t97.5 -151.5t36 -200q0 -136 -71 -251t-195 -182t-273 -67q-246 0 -391.5 140.5t-145.5 361.5zM377 465q0 -120 68 -195t192 -75q115 0 187.5 78.5t72.5 193.5 q0 120 -68.5 194t-189.5 74q-118 0 -190 -75.5t-72 -194.5z" />
<glyph unicode="7" horiz-adv-x="1122" d="M102 1202v232h938v-201l-594 -1233h-288l592 1202h-648z" />
<glyph unicode="8" horiz-adv-x="1298" d="M119 401q0 246 237 347q-84 45 -132 125t-48 192q0 185 133 291t340 106t340 -106t133 -291q0 -112 -48 -192t-132 -125q238 -101 238 -347q0 -192 -148 -311t-383 -119t-382.5 119t-147.5 311zM393 401q0 -104 69 -159.5t187 -55.5t187 55.5t69 159.5q0 106 -69 164 t-187 58t-187 -58t-69 -164zM444 1044q0 -90 56 -147t149 -57t149 57t56 147q0 96 -54.5 150.5t-150.5 54.5t-150.5 -54.5t-54.5 -150.5z" />
<glyph unicode="9" horiz-adv-x="1257" d="M84 963q0 220 148 359.5t386 139.5q243 0 392 -136.5t149 -360.5q0 -223 -119 -398l-381 -567h-307l371 541q-26 -26 -79.5 -42t-108.5 -16q-92 0 -174 34t-143.5 95t-97.5 152t-36 199zM360 967q0 -121 68.5 -195t189.5 -74q119 0 191 78.5t72 192.5q0 119 -69.5 194.5 t-190.5 75.5q-118 0 -189.5 -75.5t-71.5 -196.5z" />
<glyph unicode=":" horiz-adv-x="524" d="M102 143q0 71 44 115.5t116 44.5t116 -44.5t44 -115.5t-44 -115t-116 -44t-116 44t-44 115zM102 782q0 71 44 115.5t116 44.5t116 -44.5t44 -115.5t-44 -115t-116 -44t-116 44t-44 115z" />
<glyph unicode=";" horiz-adv-x="524" d="M-4 -264l102 543h297l-184 -543h-215zM92 782q0 71 44 115.5t116 44.5t116 -44.5t44 -115.5t-44 -115t-116 -44t-116 44t-44 115z" />
<glyph unicode="&#x3c;" horiz-adv-x="1181" d="M102 647v180l947 426v-254l-615 -262l615 -262v-254z" />
<glyph unicode="=" d="M164 371v225h938v-225h-938zM164 879v225h938v-225h-938z" />
<glyph unicode="&#x3e;" horiz-adv-x="1181" d="M133 221v254l615 262l-615 262v254l946 -426v-180z" />
<glyph unicode="?" horiz-adv-x="1032" d="M51 1012v51q0 198 126 298.5t339 100.5q210 0 340.5 -103.5t130.5 -273.5q0 -101 -41 -173t-119 -130l-104 -75q-44 -32 -65.5 -55.5t-34.5 -63t-13 -99.5v-59h-248v94q0 116 30 191t100 127l94 69q66 47 94.5 82.5t28.5 91.5q0 70 -54 111t-145 41q-98 0 -150.5 -45 t-52.5 -133v-47h-256zM332 143q0 71 44 115.5t116 44.5t115.5 -44.5t43.5 -115.5t-43.5 -115t-115.5 -44t-116 44t-44 115z" />
<glyph unicode="@" horiz-adv-x="1908" d="M106 547q0 190 61.5 356t174.5 290.5t287 196.5t387 72q182 0 333 -54.5t251.5 -149.5t156 -224t55.5 -278q0 -87 -14.5 -167.5t-46.5 -152t-78.5 -124t-115 -83t-150.5 -30.5q-105 0 -182.5 44.5t-98.5 125.5q-26 -58 -101.5 -101t-168.5 -43q-139 0 -228 91.5 t-89 234.5q0 37 6 78l12 67q28 155 118 239.5t234 84.5q79 0 139.5 -32t92.5 -85l18 109h205l-80 -455q-6 -30 -6 -57q0 -72 37 -112t100 -40q58 0 102 38t67.5 100t34.5 127t11 132q0 254 -167 408t-457 154q-165 0 -300.5 -57t-226 -158t-139.5 -240.5t-49 -304.5 q0 -137 43.5 -253t125.5 -200.5t207 -132t281 -47.5q197 0 357 43l-21 -156q-159 -47 -358 -47q-188 0 -344 61.5t-259.5 169t-160 252t-56.5 310.5zM748 559q0 -74 39 -119t108 -45t116 48t64 139l10 57q5 25 5 49q0 71 -40.5 116.5t-115.5 45.5q-70 0 -113 -47.5 t-57 -128.5l-10 -60q-6 -42 -6 -55z" />
<glyph unicode="A" horiz-adv-x="1413" d="M47 0l514 1434h291l514 -1434h-285l-96 301h-557l-96 -301h-285zM500 528h411l-204 648z" />
<glyph unicode="B" horiz-adv-x="1357" d="M158 0v1434h643q187 0 298 -100t111 -263q0 -116 -49.5 -200t-130.5 -130q117 -25 191.5 -112t74.5 -226q0 -180 -134.5 -291.5t-350.5 -111.5h-653zM436 225h361q102 0 157.5 52.5t55.5 144.5q0 90 -57 142t-158 52h-359v-391zM436 840h301q89 0 138 52.5t49 137.5 q0 82 -50 130t-139 48h-299v-368z" />
<glyph unicode="C" horiz-adv-x="1445" d="M115 614v205q0 140 37.5 255.5t112.5 203t196.5 136t279.5 48.5q132 0 244 -43t187.5 -116.5t119.5 -171t49 -207.5h-266q-15 132 -99 217.5t-235 85.5q-173 0 -257.5 -106t-84.5 -287v-234q0 -181 84.5 -287t257.5 -106q151 0 235 85.5t99 217.5h266q-5 -110 -49 -208 t-119.5 -171.5t-187.5 -116.5t-244 -43q-158 0 -279.5 48.5t-196.5 136t-112.5 203t-37.5 255.5z" />
<glyph unicode="D" horiz-adv-x="1439" d="M158 0v1434h581q141 0 253.5 -42t185.5 -117.5t111 -178.5t38 -226v-307q0 -252 -153.5 -407.5t-434.5 -155.5h-581zM442 233h248q172 0 262 85t90 243v311q0 158 -90 243t-262 85h-248v-967z" />
<glyph unicode="E" d="M158 0v1434h1003v-238h-717v-350h656v-240h-656v-368h719v-238h-1005z" />
<glyph unicode="F" horiz-adv-x="1210" d="M158 0v1434h981v-238h-695v-379h633v-237h-633v-580h-286z" />
<glyph unicode="G" horiz-adv-x="1464" d="M115 614v209q0 292 165 465.5t455 173.5q272 0 433 -144t167 -372h-272q-5 119 -89 200t-231 81q-171 0 -257.5 -104t-86.5 -289v-226q0 -190 84 -298.5t262 -108.5q152 0 238 81.5t86 204.5v21h-321v233h602v-186q0 -260 -167 -422t-442 -162q-155 0 -276.5 50 t-197 138.5t-114 203.5t-38.5 251z" />
<glyph unicode="H" horiz-adv-x="1476" d="M158 0v1434h286v-588h588v588h287v-1434h-287v592h-588v-592h-286z" />
<glyph unicode="I" horiz-adv-x="622" d="M168 0v1434h287v-1434h-287z" />
<glyph unicode="J" horiz-adv-x="1245" d="M74 420v20h272v-18q0 -99 61.5 -156t172.5 -57t169 57.5t58 155.5v1012h287v-1012q0 -200 -143 -325.5t-371 -125.5q-234 0 -370 121.5t-136 327.5z" />
<glyph unicode="K" horiz-adv-x="1333" d="M158 0v1434h286v-689l506 689h334l-539 -711l555 -723h-337l-519 702v-702h-286z" />
<glyph unicode="L" horiz-adv-x="1187" d="M158 0v1434h286v-1196h660v-238h-946z" />
<glyph unicode="M" horiz-adv-x="1654" d="M158 0v1434h264l405 -820l406 820h264v-1434h-274v881l-269 -533h-254l-268 533v-881h-274z" />
<glyph unicode="N" horiz-adv-x="1492" d="M158 0v1434h272l625 -955v955h280v-1434h-272l-625 954v-954h-280z" />
<glyph unicode="O" horiz-adv-x="1507" d="M115 612v209q0 138 41.5 254.5t120 203t201 135t276.5 48.5q155 0 277.5 -48.5t201 -135t119.5 -203t41 -254.5v-209q0 -138 -41 -254.5t-119.5 -203t-201 -135t-277.5 -48.5q-154 0 -276.5 48.5t-201 135t-120 203t-41.5 254.5zM401 598q0 -177 89.5 -283t263.5 -106 t263 105.5t89 283.5v238q0 178 -89 283.5t-263 105.5t-263.5 -106t-89.5 -283v-238z" />
<glyph unicode="P" horiz-adv-x="1335" d="M158 0v1434h596q245 0 388.5 -132.5t143.5 -349.5t-146 -353t-386 -136h-310v-463h-286zM444 698h291q130 0 197 71t67 183q0 111 -66.5 178.5t-197.5 67.5h-291v-500z" />
<glyph unicode="Q" horiz-adv-x="1507" d="M115 612v209q0 138 41.5 254.5t120 203t201 135t276.5 48.5q155 0 277.5 -48.5t201 -135t119.5 -203t41 -254.5v-209q0 -156 -52.5 -284.5t-152.5 -214.5l106 -160l-200 -131l-117 178q-110 -29 -223 -29q-154 0 -276.5 48.5t-201 135t-120 203t-41.5 254.5zM401 598 q0 -177 89.5 -283t263.5 -106q44 0 82 6l-113 174l199 123l114 -172q70 98 70 258v238q0 178 -89 283.5t-263 105.5t-263.5 -106t-89.5 -283v-238z" />
<glyph unicode="R" horiz-adv-x="1429" d="M158 0v1434h647q246 0 382 -135.5t136 -352.5q0 -152 -75 -268.5t-208 -173.5l299 -504h-331l-263 459h-301v-459h-286zM444 690h326q128 0 197 71t69 187q0 118 -69 185t-197 67h-326v-510z" />
<glyph unicode="S" horiz-adv-x="1339" d="M113 416v37h274v-31q0 -103 78 -166t219 -63q129 0 205 55t76 153q0 127 -136 162l-374 96q-167 42 -243.5 127.5t-76.5 243.5q0 201 142 316.5t385 115.5q236 0 377 -118.5t141 -309.5v-35h-265v29q0 96 -63.5 154.5t-189.5 58.5q-117 0 -183.5 -47t-66.5 -139 q0 -121 123 -152l393 -104q313 -82 313 -375q0 -133 -74 -237t-203 -160t-290 -56q-256 0 -408.5 118.5t-152.5 326.5z" />
<glyph unicode="T" horiz-adv-x="1204" d="M53 1196v238h1098v-238h-406v-1196h-286v1196h-406z" />
<glyph unicode="U" horiz-adv-x="1474" d="M147 516v918h285v-930q0 -138 82.5 -216.5t222.5 -78.5q139 0 221 78.5t82 216.5v930h287v-918q0 -246 -157.5 -395.5t-432.5 -149.5t-432.5 149.5t-157.5 395.5z" />
<glyph unicode="V" horiz-adv-x="1363" d="M45 1434h293l344 -1121l344 1121h293l-475 -1434h-324z" />
<glyph unicode="W" horiz-adv-x="1978" d="M61 1434h283l207 -1037l299 1037h278l299 -1037l207 1037h283l-338 -1434h-276l-314 1104l-313 -1104h-277z" />
<glyph unicode="X" horiz-adv-x="1368" d="M61 0l476 731l-455 703h295l307 -478l307 478h295l-455 -703l476 -731h-301l-322 502l-322 -502h-301z" />
<glyph unicode="Y" horiz-adv-x="1302" d="M16 1434h312l323 -639l324 639h311l-491 -918v-516h-287v516z" />
<glyph unicode="Z" horiz-adv-x="1277" d="M113 0v238l718 958h-688v238h1010v-238l-719 -958h737v-238h-1058z" />
<glyph unicode="[" horiz-adv-x="782" d="M154 -274v1876h577v-230h-299v-1417h299v-229h-577z" />
<glyph unicode="\" horiz-adv-x="970" d="M61 1536h271l577 -1751h-270z" />
<glyph unicode="]" horiz-adv-x="782" d="M51 -45h299v1417h-299v230h578v-1876h-578v229z" />
<glyph unicode="^" horiz-adv-x="1089" d="M82 848l344 586h238l344 -586h-269l-194 358l-195 -358h-268z" />
<glyph unicode="_" horiz-adv-x="1060" d="M-2 -131h1065v-148h-1065v148z" />
<glyph unicode="`" horiz-adv-x="808" d="M158 1501h344l149 -315h-280z" />
<glyph unicode="a" horiz-adv-x="1198" d="M92 307q0 168 115.5 253t314.5 85q87 0 157 -26.5t114 -63.5v145q0 75 -50 123.5t-135 48.5q-133 0 -184 -100h-258q45 154 164.5 236t292.5 82q200 0 324 -112.5t124 -297.5v-680h-268v98q-36 -53 -124.5 -88t-182.5 -35q-182 0 -293 89t-111 243zM362 315 q0 -72 57.5 -113.5t147.5 -41.5q93 0 159.5 45t66.5 112q0 69 -61 109.5t-157 40.5q-99 0 -156 -39.5t-57 -112.5z" />
<glyph unicode="b" horiz-adv-x="1257" d="M137 0v1495h279v-549q46 64 125 104t180 40q139 0 242 -64.5t153.5 -169.5t50.5 -235v-177q0 -128 -51 -233t-154.5 -170.5t-242.5 -65.5q-111 0 -194.5 42t-121.5 110v-127h-266zM416 457q0 -113 65 -184.5t170 -71.5q116 0 177 72t61 184v151q0 116 -62.5 186 t-177.5 70q-99 0 -166 -67.5t-67 -184.5v-155z" />
<glyph unicode="c" horiz-adv-x="1169" d="M90 457v151q0 215 134 348.5t370 133.5q212 0 345.5 -118.5t139.5 -303.5h-254q-10 86 -65.5 141t-159.5 55q-114 0 -172.5 -67t-58.5 -179v-172q0 -112 58.5 -178.5t172.5 -66.5q104 0 159.5 55t65.5 141h254q-6 -185 -139.5 -303.5t-345.5 -118.5q-236 0 -370 133.5 t-134 348.5z" />
<glyph unicode="d" horiz-adv-x="1257" d="M90 444v177q0 130 51 235t154 169.5t242 64.5q101 0 179.5 -38.5t125.5 -101.5v545h278v-1495h-266v127q-43 -67 -124.5 -109.5t-190.5 -42.5q-139 0 -242.5 65t-155 170.5t-51.5 233.5zM369 457q0 -112 60.5 -184t176.5 -72q105 0 170.5 71.5t65.5 184.5v155 q0 117 -67 184.5t-167 67.5q-115 0 -177 -70t-62 -186v-151z" />
<glyph unicode="e" horiz-adv-x="1146" d="M90 451v145q0 223 129 358.5t363 135.5q152 0 261.5 -64t161.5 -168t52 -235v-187h-697v-26q0 -102 56 -168t170 -66q85 0 141 38t78 97h244q-28 -147 -157.5 -241.5t-305.5 -94.5q-228 0 -362 127t-134 349zM360 633h441v26q0 105 -55.5 169.5t-163.5 64.5 q-114 0 -168 -67.5t-54 -182.5v-10z" />
<glyph unicode="f" horiz-adv-x="743" d="M63 840v225h136v98q0 173 81 252.5t248 79.5h185v-221h-121q-62 0 -88.5 -24t-26.5 -85v-100h215v-225h-215v-840h-278v840h-136z" />
<glyph unicode="g" horiz-adv-x="1249" d="M90 492v155q0 90 28.5 169.5t82 141t138.5 97t191 35.5q114 0 199.5 -46.5t116.5 -107.5v129h266v-1042q0 -172 -144.5 -288t-365.5 -116q-192 0 -330 85t-170 233h271q53 -107 229 -107q106 0 169 54t63 143v168q-36 -59 -122 -102.5t-184 -43.5q-104 0 -189 36.5 t-138.5 98t-82 140.5t-28.5 168zM367 506q0 -105 58.5 -169.5t168.5 -64.5q102 0 171 62.5t69 171.5v123q0 106 -65.5 171.5t-166.5 65.5q-115 0 -175 -63t-60 -174v-123z" />
<glyph unicode="h" horiz-adv-x="1220" d="M137 0v1495h279v-557q42 70 121 111t180 41q174 0 275.5 -109.5t101.5 -298.5v-682h-279v637q0 97 -48.5 154t-145.5 57q-96 0 -150.5 -56t-54.5 -161v-631h-279z" />
<glyph unicode="i" horiz-adv-x="565" d="M121 1343q0 69 46 115.5t116 46.5t115.5 -46.5t45.5 -115.5t-45.5 -115t-115.5 -46t-116 46t-46 115zM143 0v1065h279v-1065h-279z" />
<glyph unicode="j" horiz-adv-x="565" d="M-2 -141h63q43 0 62.5 15.5t19.5 53.5v1137h279v-1161q0 -126 -69 -193t-208 -67h-147v215zM121 1343q0 69 46 115.5t116 46.5t115.5 -46.5t45.5 -115.5t-45.5 -115t-115.5 -46t-116 46t-46 115z" />
<glyph unicode="k" horiz-adv-x="1114" d="M137 0v1495h279v-926l338 496h317l-366 -520l378 -545h-317l-350 520v-520h-279z" />
<glyph unicode="l" horiz-adv-x="565" d="M143 0v1495h279v-1495h-279z" />
<glyph unicode="m" horiz-adv-x="1878" d="M137 0v1065h266v-127q82 152 308 152q102 0 180.5 -39.5t126.5 -112.5q119 152 352 152q170 0 275.5 -109.5t105.5 -298.5v-682h-278v637q0 97 -47 154t-144 57q-94 0 -146.5 -55.5t-52.5 -161.5v-631h-278v637q0 97 -47 154t-144 57q-95 0 -146.5 -55.5t-51.5 -161.5 v-631h-279z" />
<glyph unicode="n" horiz-adv-x="1220" d="M137 0v1065h266v-127q82 152 314 152q174 0 275.5 -108.5t101.5 -299.5v-682h-279v637q0 97 -48.5 154t-145.5 57q-96 0 -150.5 -56t-54.5 -161v-631h-279z" />
<glyph unicode="o" horiz-adv-x="1183" d="M90 457v151q0 210 134.5 346t367.5 136t367.5 -136t134.5 -346v-151q0 -210 -134.5 -346t-367.5 -136t-367.5 136t-134.5 346zM360 438q0 -109 59 -176t173 -67t172.5 67t58.5 176v189q0 109 -58.5 176t-172.5 67t-173 -67t-59 -176v-189z" />
<glyph unicode="p" horiz-adv-x="1257" d="M137 -356v1421h266v-127q43 66 125 109t191 43q107 0 193 -37.5t141 -102.5t84.5 -149t29.5 -180v-177q0 -130 -50.5 -235t-153.5 -169.5t-242 -64.5q-103 0 -182.5 38t-122.5 102v-471h-279zM416 453q0 -117 67 -184.5t166 -67.5q115 0 177.5 70t62.5 186v151 q0 112 -61 184t-177 72q-105 0 -170 -71.5t-65 -184.5v-155z" />
<glyph unicode="q" horiz-adv-x="1257" d="M90 444v177q0 129 51.5 234t155 170t242.5 65q111 0 193.5 -42t121.5 -110v127h266v-1421h-278v469q-37 -58 -120 -98t-185 -40q-139 0 -242 64.5t-154 169.5t-51 235zM369 457q0 -116 62 -186t177 -70q100 0 167 67.5t67 184.5v155q0 113 -65.5 184.5t-170.5 71.5 q-116 0 -176.5 -72t-60.5 -184v-151z" />
<glyph unicode="r" horiz-adv-x="806" d="M137 0v1065h264v-207q47 215 320 215h33v-276h-58q-139 0 -209.5 -73.5t-70.5 -231.5v-492h-279z" />
<glyph unicode="s" horiz-adv-x="1087" d="M92 315v19h246v-15q0 -69 58 -108t157 -39q90 0 146.5 34.5t56.5 94.5q0 76 -88 96l-316 72q-123 28 -183 95t-60 186q0 161 118 250.5t312 89.5q193 0 307.5 -91.5t114.5 -248.5v-17h-244v19q0 65 -42.5 102t-131.5 37q-85 0 -129.5 -30t-44.5 -87q0 -39 20 -60t62 -30 l323 -80q120 -30 179 -95.5t59 -176.5q0 -155 -131 -256t-330 -101q-209 0 -334 87.5t-125 252.5z" />
<glyph unicode="t" horiz-adv-x="786" d="M55 840v225h152v291h280v-291h228v-225h-228v-516q0 -53 23 -76t78 -23h112v-225h-192q-150 0 -225.5 79.5t-75.5 223.5v537h-152z" />
<glyph unicode="u" horiz-adv-x="1212" d="M127 383v682h279v-643q0 -102 47.5 -157.5t140.5 -55.5q96 0 149.5 57.5t53.5 157.5v641h278v-1065h-266v127q-37 -68 -122 -110t-187 -42q-177 0 -275 111.5t-98 296.5z" />
<glyph unicode="v" horiz-adv-x="1060" d="M23 1065h278l229 -780l230 780h278l-362 -1065h-291z" />
<glyph unicode="w" horiz-adv-x="1613" d="M37 1065h270l156 -715l217 715h254l217 -715l156 715h270l-277 -1065h-260l-233 733l-234 -733h-260z" />
<glyph unicode="x" horiz-adv-x="1105" d="M39 0l373 541l-359 524h289l211 -315l211 315h289l-359 -524l373 -541h-293l-221 332l-221 -332h-293z" />
<glyph unicode="y" horiz-adv-x="1046" d="M23 1065h278l229 -764l218 764h276l-465 -1421h-274l106 360z" />
<glyph unicode="z" horiz-adv-x="1034" d="M92 0v201l526 649h-501v215h823v-201l-526 -649h538v-215h-860z" />
<glyph unicode="{" horiz-adv-x="864" d="M51 547v229h64q170 0 170 166v291q0 184 92.5 275t290.5 91h155v-229h-100q-86 0 -123 -35.5t-37 -120.5v-296q0 -224 -209 -256q209 -32 209 -256v-297q0 -85 37 -120.5t123 -35.5h100v-229h-155q-198 0 -290.5 91t-92.5 275v291q0 166 -170 166h-64z" />
<glyph unicode="|" horiz-adv-x="675" d="M219 -307v1945h238v-1945h-238z" />
<glyph unicode="}" horiz-adv-x="864" d="M41 -47h100q86 0 123 35.5t37 120.5v297q0 224 209 256q-209 32 -209 256v296q0 85 -37 120.5t-123 35.5h-100v229h156q198 0 290.5 -91t92.5 -275v-291q0 -166 170 -166h63v-229h-63q-170 0 -170 -166v-291q0 -184 -92.5 -275t-290.5 -91h-156v229z" />
<glyph unicode="~" horiz-adv-x="1314" d="M102 573q31 183 109 277t223 94q49 0 116 -22.5t121 -50t109.5 -50t83.5 -22.5q16 0 29 3.5t23 13t17 16.5t15 24.5t11.5 26t11 31t10.5 30.5l238 -82q-15 -55 -31.5 -99.5t-43 -89.5t-58 -75t-77.5 -49t-100 -19q-57 0 -144 36.5t-167.5 73t-122.5 36.5 q-31 0 -52.5 -10.5t-36 -35.5t-22.5 -48t-18 -66z" />
<glyph unicode="&#xa1;" horiz-adv-x="606" d="M143 1290q0 71 44 115.5t116 44.5t116 -44.5t44 -115.5t-44 -115.5t-116 -44.5t-116 44.5t-44 115.5zM158 0v567l67 453h156l68 -453v-567h-291z" />
<glyph unicode="&#xa2;" horiz-adv-x="1187" d="M117 657v119q0 171 92 289t250 149v220h278v-220q146 -27 236 -132t96 -242h-258q-8 72 -62.5 119t-146.5 47q-103 0 -159 -61t-56 -169v-119q0 -108 56 -168.5t159 -60.5q92 0 146.5 47t62.5 119h258q-6 -135 -95.5 -238.5t-236.5 -138.5v-217h-278v217 q-159 37 -250.5 153t-91.5 287z" />
<glyph unicode="&#xa3;" horiz-adv-x="1376" d="M131 0v225h236v344h-207v226h207v241q0 208 124.5 317t333.5 109q213 0 334 -112t121 -301v-41h-258v43q0 81 -47.5 131.5t-138.5 50.5q-191 0 -191 -193v-245h385v-226h-385v-344h547v-225h-1061z" />
<glyph unicode="&#xa4;" horiz-adv-x="1273" d="M123 174l172 270q-68 93 -68 218v100q0 121 68 217l-172 270h278l84 -137q74 23 152 23q74 0 151 -23l84 137h279l-172 -270q68 -96 68 -217v-100q0 -125 -68 -218l172 -270h-279l-84 137q-74 -22 -151 -22q-81 0 -152 22l-84 -137h-278zM465 647q0 -72 44.5 -118 t127.5 -46t127.5 46t44.5 118v129q0 72 -44.5 118t-127.5 46t-127.5 -46t-44.5 -118v-129z" />
<glyph unicode="&#xa5;" horiz-adv-x="1245" d="M82 1434h301l240 -633l239 633h301l-245 -557h184v-207h-277l-63 -146v-39h340v-206h-340v-279h-279v279h-340v206h340v39l-65 146h-275v207h185z" />
<glyph unicode="&#xa6;" horiz-adv-x="675" d="M219 -307v794h238v-794h-238zM219 844v794h238v-794h-238z" />
<glyph unicode="&#xa7;" d="M123 625q0 160 141 280q-69 72 -69 199q0 168 121.5 263t324.5 95q218 0 336.5 -98.5t118.5 -271.5v-25h-240v27q0 77 -52 121.5t-157 44.5q-95 0 -146.5 -36t-51.5 -104q0 -51 26.5 -78.5t87.5 -50.5l326 -119q135 -49 199.5 -122t64.5 -191q0 -154 -131 -289 q61 -74 61 -190q0 -155 -126 -257t-330 -102q-206 0 -333.5 98.5t-127.5 270.5v29h244v-19q0 -80 57 -128t160 -48q90 0 146 37t56 105q0 52 -27.5 79t-86.5 48l-334 116q-125 44 -191.5 119.5t-66.5 196.5zM377 651q0 -52 25.5 -84.5t84.5 -54.5l351 -127q61 71 61 147 q0 93 -115 138l-338 125q-69 -73 -69 -144z" />
<glyph unicode="&#xa8;" horiz-adv-x="1032" d="M152 1341q0 65 42.5 107.5t106.5 42.5q65 0 107.5 -42.5t42.5 -107.5q0 -64 -42.5 -106.5t-107.5 -42.5t-107 42t-42 107zM582 1341q0 65 42.5 107.5t106.5 42.5q65 0 107.5 -42.5t42.5 -107.5q0 -64 -42.5 -106.5t-107.5 -42.5t-107 42t-42 107z" />
<glyph unicode="&#xa9;" horiz-adv-x="1691" d="M102 717q0 152 54.5 288t150.5 236t236 158.5t303 58.5q164 0 304 -58.5t235.5 -159t149.5 -236t54 -287.5t-54 -288t-149.5 -236.5t-235.5 -159t-304 -58.5q-163 0 -303 58.5t-236 159t-150.5 236.5t-54.5 288zM186 717q0 -132 46.5 -253t130.5 -213t209.5 -147 t273.5 -55q149 0 274.5 55t208.5 147t129.5 213t46.5 253t-46.5 252.5t-129.5 213t-208.5 147t-274.5 54.5q-148 0 -273.5 -54.5t-209.5 -147t-130.5 -213t-46.5 -252.5zM532 664v106q0 135 82.5 226t235.5 91q129 0 213 -77.5t92 -192.5h-147q-22 137 -158 137 q-83 0 -122.5 -50.5t-39.5 -133.5v-106q0 -83 39.5 -134t122.5 -51q136 0 158 137h147q-8 -115 -92 -192.5t-213 -77.5q-153 0 -235.5 91.5t-82.5 226.5z" />
<glyph unicode="&#xaa;" horiz-adv-x="876" d="M115 469v164h647v-164h-647zM117 961q0 100 71 157.5t183 57.5q61 0 110 -17.5t76 -44.5v84q0 42 -28 71t-78 29q-81 0 -111 -61h-180q27 106 104.5 161.5t194.5 55.5q127 0 206.5 -76.5t79.5 -195.5v-424h-178v61q-25 -30 -82.5 -54t-126.5 -24q-103 0 -172 63t-69 157z M301 963q0 -43 34.5 -67t90.5 -24q55 0 93 24.5t38 66.5t-36.5 66t-88.5 24q-61 0 -96 -23t-35 -67z" />
<glyph unicode="&#xab;" horiz-adv-x="1300" d="M20 565l334 443h314l-332 -443l332 -442h-314zM592 565l334 443h313l-332 -443l332 -442h-313z" />
<glyph unicode="&#xac;" horiz-adv-x="1191" d="M102 621v233h947v-612h-261v379h-686z" />
<glyph unicode="&#xad;" horiz-adv-x="837" d="M113 530v250h612v-250h-612z" />
<glyph unicode="&#xae;" horiz-adv-x="1093" d="M92 1016q0 89 31.5 169t88.5 140.5t144 96.5t191 36q138 0 243 -61.5t158 -161.5t53 -219q0 -117 -53 -217t-158.5 -163t-242.5 -63q-104 0 -191 36.5t-144 98.5t-88.5 141.5t-31.5 166.5zM164 1016q0 -162 106.5 -271.5t276.5 -109.5t276.5 109.5t106.5 271.5 q0 163 -106.5 272t-276.5 109t-276.5 -109t-106.5 -272zM401 834v393h181q68 0 104.5 -36.5t36.5 -98.5q0 -84 -72 -121l78 -137h-104l-64 122h-69v-122h-91zM492 1028h71q70 0 70 64q0 61 -70 61h-71v-125z" />
<glyph unicode="&#xaf;" horiz-adv-x="1011" d="M158 1227v219h696v-219h-696z" />
<glyph unicode="&#xb0;" horiz-adv-x="827" d="M92 1135q0 136 88 227.5t234 91.5q145 0 233 -91.5t88 -227.5t-88 -228t-233 -92t-233.5 92t-88.5 228zM233 1135q0 -83 47.5 -138t133.5 -55t133 54.5t47 138.5q0 83 -47 137.5t-133 54.5t-133.5 -54.5t-47.5 -137.5z" />
<glyph unicode="&#xb1;" horiz-adv-x="1253" d="M154 0v219h344v369h-344v233h344v379h258v-379h344v-233h-344v-369h344v-219h-946z" />
<glyph unicode="&#xb2;" horiz-adv-x="825" d="M113 942v145l338 287q65 54 65 107q0 40 -28.5 64t-75.5 24q-109 0 -109 -99v-10h-180v17q0 121 79 188.5t212 67.5q131 0 215 -69t84 -179q0 -77 -40.5 -131.5t-115.5 -112.5l-180 -139h330v-160h-594z" />
<glyph unicode="&#xb3;" horiz-adv-x="825" d="M102 1182h172q3 -46 37.5 -76.5t89.5 -30.5q58 0 91.5 28.5t33.5 76.5q0 92 -125 92h-127v137l162 158h-276v147h512v-147l-183 -160q101 -3 162.5 -62.5t61.5 -156.5q0 -113 -92 -186.5t-222 -73.5q-127 0 -210.5 68t-86.5 186z" />
<glyph unicode="&#xb4;" horiz-adv-x="808" d="M158 1186l149 315h344l-217 -315h-276z" />
<glyph unicode="&#xb5;" horiz-adv-x="1212" d="M127 -356v1421h279v-643q0 -213 188 -213q96 0 149.5 57.5t53.5 157.5v641h278v-1065h-266v127q-45 -70 -125.5 -111t-181.5 -41q-60 0 -96 19v-350h-279z" />
<glyph unicode="&#xb6;" horiz-adv-x="1255" d="M100 879q0 263 154.5 409t425.5 146h405v-1790h-190v1622h-215v-936q-259 0 -419.5 145t-160.5 404z" />
<glyph unicode="&#xb7;" horiz-adv-x="524" d="M102 586q0 71 44 115t116 44t116 -44t44 -115t-44 -115.5t-116 -44.5t-116 44.5t-44 115.5z" />
<glyph unicode="&#xb8;" horiz-adv-x="692" d="M158 -256q48 -10 96 -10q82 0 82 45q0 41 -76 47l-74 6l39 168h133l-14 -74l33 -4q158 -20 158 -141q0 -73 -62.5 -117.5t-169.5 -44.5q-90 0 -145 12v113z" />
<glyph unicode="&#xb9;" horiz-adv-x="636" d="M82 1468v170l217 76h164v-772h-197v578z" />
<glyph unicode="&#xba;" horiz-adv-x="884" d="M115 1053v90q0 140 86.5 225.5t240.5 85.5t241 -86t87 -225v-90q0 -140 -87 -226t-241 -86t-240.5 86t-86.5 226zM137 469v164h615v-164h-615zM295 1049q0 -158 147 -158q148 0 148 158v98q0 158 -148 158q-147 0 -147 -158v-98z" />
<glyph unicode="&#xbb;" horiz-adv-x="1300" d="M61 123l332 442l-332 443h314l334 -443l-334 -442h-314zM633 123l332 442l-332 443h313l334 -443l-334 -442h-313z" />
<glyph unicode="&#xbc;" horiz-adv-x="1705" d="M113 1188v170l217 76h164v-772h-197v577zM338 0l737 1434h207l-737 -1434h-207zM924 150v141l245 481h185l-234 -473h191v150h182v-150h100v-149h-100v-150h-182v150h-387z" />
<glyph unicode="&#xbd;" horiz-adv-x="1728" d="M113 1188v170l217 76h164v-772h-197v577zM338 0l737 1434h207l-737 -1434h-207zM1016 0v145l338 287q65 54 65 107q0 40 -28.5 64t-75.5 24q-109 0 -109 -99v-10h-180v17q0 121 79 188.5t212 67.5q131 0 215 -69t84 -179q0 -77 -40.5 -131.5t-115.5 -112.5l-180 -139h330 v-160h-594z" />
<glyph unicode="&#xbe;" horiz-adv-x="1802" d="M113 901h172q3 -46 37.5 -76t89.5 -30q58 0 91.5 28t33.5 76q0 92 -125 92h-127v137l161 158h-276v148h512v-148l-182 -160q101 -3 162 -62.5t61 -156.5q0 -113 -91.5 -186.5t-221.5 -73.5q-127 0 -210.5 68t-86.5 186zM434 0l737 1434h207l-737 -1434h-207zM1020 150 v141l246 481h184l-233 -473h190v150h182v-150h101v-149h-101v-150h-182v150h-387z" />
<glyph unicode="&#xbf;" horiz-adv-x="1032" d="M45 348q0 101 41 173t119 130l104 76q44 32 65.5 55t34.5 62.5t13 99.5v60h248v-95q0 -116 -30 -190.5t-99 -126.5l-95 -70q-44 -31 -66 -51t-39 -52t-17 -71q0 -70 53.5 -110.5t144.5 -40.5q98 0 150.5 45t52.5 133v47h256v-51q0 -198 -126 -299t-339 -101 q-210 0 -340.5 103.5t-130.5 273.5zM381 1290q0 71 44 115.5t116 44.5t115.5 -44.5t43.5 -115.5t-43.5 -115.5t-115.5 -44.5t-116 44.5t-44 115.5z" />
<glyph unicode="&#xc0;" horiz-adv-x="1413" d="M47 0l514 1434h291l514 -1434h-285l-96 301h-557l-96 -301h-285zM354 1831h342l142 -289h-283zM500 528h411l-204 648z" />
<glyph unicode="&#xc1;" horiz-adv-x="1413" d="M47 0l514 1434h291l514 -1434h-285l-96 301h-557l-96 -301h-285zM500 528h411l-204 648zM586 1542l141 289h342l-201 -289h-282z" />
<glyph unicode="&#xc2;" horiz-adv-x="1413" d="M47 0l514 1434h291l514 -1434h-285l-96 301h-557l-96 -301h-285zM328 1542l241 289h275l241 -289h-268l-110 137l-111 -137h-268zM500 528h411l-204 648z" />
<glyph unicode="&#xc3;" horiz-adv-x="1413" d="M47 0l514 1434h291l514 -1434h-285l-96 301h-557l-96 -301h-285zM272 1575q27 139 78.5 202.5t167.5 63.5q74 0 214.5 -43t162.5 -43q9 0 16.5 1.5t13.5 3.5t12 7.5t10 8t8.5 10.5t6.5 11.5t6 13.5l5 12.5t5 14t5 13.5l182 -51q-21 -70 -36.5 -109t-42.5 -77t-66 -54 t-96 -16q-49 0 -190 43t-189 43q-37 0 -56.5 -24.5t-31.5 -71.5zM500 528h411l-204 648z" />
<glyph unicode="&#xc4;" horiz-adv-x="1413" d="M47 0l514 1434h291l514 -1434h-285l-96 301h-557l-96 -301h-285zM328 1692q0 64 42 106.5t107 42.5t107.5 -42.5t42.5 -106.5t-42.5 -107t-107.5 -43q-64 0 -106.5 42.5t-42.5 107.5zM500 528h411l-204 648zM786 1692q0 64 42.5 106.5t107.5 42.5q64 0 106.5 -42.5 t42.5 -106.5q0 -65 -42.5 -107.5t-106.5 -42.5t-107 43t-43 107z" />
<glyph unicode="&#xc5;" horiz-adv-x="1413" d="M47 0l498 1389q-56 53 -56 133q0 79 60.5 133.5t157.5 54.5q98 0 157.5 -54.5t59.5 -133.5q0 -77 -56 -133l498 -1389h-285l-96 301h-557l-96 -301h-285zM500 528h411l-204 648zM612 1522q0 -39 26.5 -63.5t68.5 -24.5t68 24.5t26 63.5q0 40 -25.5 63t-68.5 23t-69 -23 t-26 -63z" />
<glyph unicode="&#xc6;" horiz-adv-x="2187" d="M0 0l961 1434h1122v-238h-717v-350h655v-240h-655v-368h719v-238h-1006v303h-577l-195 -303h-307zM649 532h430v668z" />
<glyph unicode="&#xc7;" horiz-adv-x="1445" d="M115 614v205q0 140 37.5 255.5t112.5 203t196.5 136t279.5 48.5q132 0 244 -43t187.5 -116.5t119.5 -171t49 -207.5h-266q-15 132 -99 217.5t-235 85.5q-173 0 -257.5 -106t-84.5 -287v-234q0 -181 84.5 -287t257.5 -106q151 0 235 85.5t99 217.5h266 q-7 -142 -74.5 -259.5t-193.5 -193t-289 -84.5l-8 -47l33 -4q158 -20 158 -141q0 -73 -62.5 -117.5t-169.5 -44.5q-89 0 -145 12v113q48 -10 96 -10q82 0 82 45q0 41 -76 47l-74 6l33 143q-135 13 -239 66.5t-168 139t-96.5 194.5t-32.5 239z" />
<glyph unicode="&#xc8;" d="M158 0v1434h1003v-238h-717v-350h656v-240h-656v-368h719v-238h-1005zM352 1831h342l142 -289h-283z" />
<glyph unicode="&#xc9;" d="M158 0v1434h1003v-238h-717v-350h656v-240h-656v-368h719v-238h-1005zM506 1542l141 289h342l-201 -289h-282z" />
<glyph unicode="&#xca;" d="M158 0v1434h1003v-238h-717v-350h656v-240h-656v-368h719v-238h-1005zM291 1542l241 289h275l242 -289h-269l-110 137l-111 -137h-268z" />
<glyph unicode="&#xcb;" d="M158 0v1434h1003v-238h-717v-350h656v-240h-656v-368h719v-238h-1005zM295 1692q0 64 42.5 106.5t106.5 42.5q65 0 107.5 -42.5t42.5 -106.5t-43 -107t-107 -43t-106.5 42.5t-42.5 107.5zM754 1692q0 64 42 106.5t107 42.5t107.5 -42.5t42.5 -106.5t-42.5 -107 t-107.5 -43q-64 0 -106.5 42.5t-42.5 107.5z" />
<glyph unicode="&#xcc;" horiz-adv-x="622" d="M-29 1831h342l142 -289h-283zM168 0v1434h287v-1434h-287z" />
<glyph unicode="&#xcd;" horiz-adv-x="622" d="M168 0v1434h287v-1434h-287zM184 1542l142 289h342l-201 -289h-283z" />
<glyph unicode="&#xce;" horiz-adv-x="622" d="M-68 1542l242 289h275l241 -289h-268l-111 137l-110 -137h-269zM168 0v1434h287v-1434h-287z" />
<glyph unicode="&#xcf;" horiz-adv-x="622" d="M-68 1692q0 64 42.5 106.5t107.5 42.5q64 0 106.5 -42.5t42.5 -106.5q0 -65 -42.5 -107.5t-106.5 -42.5t-107 43t-43 107zM168 0v1434h287v-1434h-287zM391 1692q0 64 42.5 106.5t107.5 42.5t107 -42.5t42 -106.5q0 -65 -42.5 -107.5t-106.5 -42.5q-65 0 -107.5 43 t-42.5 107z" />
<glyph unicode="&#xd0;" horiz-adv-x="1513" d="M68 598v238h153v598h582q141 0 253.5 -42t185.5 -117.5t111 -178.5t38 -226v-307q0 -252 -153.5 -407.5t-434.5 -155.5h-582v598h-153zM506 233h248q172 0 262 85t90 243v311q0 158 -90 243t-262 85h-248v-364h311v-238h-311v-365z" />
<glyph unicode="&#xd1;" horiz-adv-x="1492" d="M158 0v1434h272l625 -955v955h280v-1434h-272l-625 954v-954h-280zM301 1575q27 139 78.5 202.5t167.5 63.5q74 0 214.5 -43t162.5 -43q9 0 16.5 1.5t13.5 3.5t12 7.5t10 8t8.5 10.5t6.5 11.5t6 13.5l5 12.5t5 14t5 13.5l182 -51q-16 -56 -28.5 -89t-32 -69t-42.5 -55 t-58 -31t-81 -12q-49 0 -190 43t-189 43q-37 0 -56.5 -24.5t-31.5 -71.5z" />
<glyph unicode="&#xd2;" horiz-adv-x="1507" d="M115 612v209q0 138 41.5 254.5t120 203t201 135t276.5 48.5q155 0 277.5 -48.5t201 -135t119.5 -203t41 -254.5v-209q0 -138 -41 -254.5t-119.5 -203t-201 -135t-277.5 -48.5q-154 0 -276.5 48.5t-201 135t-120 203t-41.5 254.5zM401 598q0 -177 89.5 -283t263.5 -106 t263 105.5t89 283.5v238q0 178 -89 283.5t-263 105.5t-263.5 -106t-89.5 -283v-238zM422 1831h342l141 -289h-282z" />
<glyph unicode="&#xd3;" horiz-adv-x="1507" d="M115 612v209q0 138 41.5 254.5t120 203t201 135t276.5 48.5q155 0 277.5 -48.5t201 -135t119.5 -203t41 -254.5v-209q0 -138 -41 -254.5t-119.5 -203t-201 -135t-277.5 -48.5q-154 0 -276.5 48.5t-201 135t-120 203t-41.5 254.5zM401 598q0 -177 89.5 -283t263.5 -106 t263 105.5t89 283.5v238q0 178 -89 283.5t-263 105.5t-263.5 -106t-89.5 -283v-238zM621 1542l141 289h342l-201 -289h-282z" />
<glyph unicode="&#xd4;" horiz-adv-x="1507" d="M115 612v209q0 138 41.5 254.5t120 203t201 135t276.5 48.5q155 0 277.5 -48.5t201 -135t119.5 -203t41 -254.5v-209q0 -138 -41 -254.5t-119.5 -203t-201 -135t-277.5 -48.5q-154 0 -276.5 48.5t-201 135t-120 203t-41.5 254.5zM375 1542l241 289h275l242 -289h-269 l-110 137l-111 -137h-268zM401 598q0 -177 89.5 -283t263.5 -106t263 105.5t89 283.5v238q0 178 -89 283.5t-263 105.5t-263.5 -106t-89.5 -283v-238z" />
<glyph unicode="&#xd5;" horiz-adv-x="1507" d="M115 612v209q0 138 41.5 254.5t120 203t201 135t276.5 48.5q155 0 277.5 -48.5t201 -135t119.5 -203t41 -254.5v-209q0 -138 -41 -254.5t-119.5 -203t-201 -135t-277.5 -48.5q-154 0 -276.5 48.5t-201 135t-120 203t-41.5 254.5zM319 1575q27 139 78.5 202.5t167.5 63.5 q74 0 214.5 -43t162.5 -43q9 0 16.5 1.5t13.5 3.5t12 7.5t10 8t8.5 10.5t6.5 11.5t6 13.5l5 12.5t5 14t5 13.5l182 -51q-21 -70 -36.5 -109t-42.5 -77t-66 -54t-96 -16q-49 0 -190 43t-189 43q-37 0 -56.5 -24.5t-31.5 -71.5zM401 598q0 -177 89.5 -283t263.5 -106 t263 105.5t89 283.5v238q0 178 -89 283.5t-263 105.5t-263.5 -106t-89.5 -283v-238z" />
<glyph unicode="&#xd6;" horiz-adv-x="1507" d="M115 612v209q0 138 41.5 254.5t120 203t201 135t276.5 48.5q155 0 277.5 -48.5t201 -135t119.5 -203t41 -254.5v-209q0 -138 -41 -254.5t-119.5 -203t-201 -135t-277.5 -48.5q-154 0 -276.5 48.5t-201 135t-120 203t-41.5 254.5zM375 1692q0 64 42.5 106.5t106.5 42.5 q65 0 107.5 -42.5t42.5 -106.5t-43 -107t-107 -43t-106.5 42.5t-42.5 107.5zM401 598q0 -177 89.5 -283t263.5 -106t263 105.5t89 283.5v238q0 178 -89 283.5t-263 105.5t-263.5 -106t-89.5 -283v-238zM834 1692q0 64 42 106.5t107 42.5t107.5 -42.5t42.5 -106.5t-42.5 -107 t-107.5 -43q-64 0 -106.5 42.5t-42.5 107.5z" />
<glyph unicode="&#xd7;" horiz-adv-x="1224" d="M143 428l310 309l-310 310l160 159l309 -309l310 309l159 -159l-309 -310l309 -309l-159 -160l-310 310l-309 -310z" />
<glyph unicode="&#xd8;" horiz-adv-x="1507" d="M115 -102l166 252q-166 172 -166 462v209q0 138 41.5 254.5t120 203t201 135t276.5 48.5q198 0 342 -80l102 154h195l-166 -252q166 -172 166 -463v-209q0 -138 -41 -254.5t-119.5 -203t-201 -135t-277.5 -48.5q-197 0 -344 80l-101 -153h-194zM401 598q0 -122 39 -207 l516 780q-87 54 -202 54q-174 0 -263.5 -106t-89.5 -283v-238zM551 262q71 -53 203 -53q174 0 263 105.5t89 283.5v238q0 130 -41 204z" />
<glyph unicode="&#xd9;" horiz-adv-x="1474" d="M147 516v918h285v-930q0 -138 82.5 -216.5t222.5 -78.5q139 0 221 78.5t82 216.5v930h287v-918q0 -246 -157.5 -395.5t-432.5 -149.5t-432.5 149.5t-157.5 395.5zM426 1831h342l141 -289h-282z" />
<glyph unicode="&#xda;" horiz-adv-x="1474" d="M147 516v918h285v-930q0 -138 82.5 -216.5t222.5 -78.5q139 0 221 78.5t82 216.5v930h287v-918q0 -246 -157.5 -395.5t-432.5 -149.5t-432.5 149.5t-157.5 395.5zM580 1542l141 289h342l-201 -289h-282z" />
<glyph unicode="&#xdb;" horiz-adv-x="1474" d="M147 516v918h285v-930q0 -138 82.5 -216.5t222.5 -78.5q139 0 221 78.5t82 216.5v930h287v-918q0 -246 -157.5 -395.5t-432.5 -149.5t-432.5 149.5t-157.5 395.5zM358 1542l242 289h274l242 -289h-268l-111 137l-110 -137h-269z" />
<glyph unicode="&#xdc;" horiz-adv-x="1474" d="M147 516v918h285v-930q0 -138 82.5 -216.5t222.5 -78.5q139 0 221 78.5t82 216.5v930h287v-918q0 -246 -157.5 -395.5t-432.5 -149.5t-432.5 149.5t-157.5 395.5zM358 1692q0 64 42.5 106.5t107.5 42.5q64 0 106.5 -42.5t42.5 -106.5q0 -65 -42.5 -107.5t-106.5 -42.5 t-107 43t-43 107zM817 1692q0 64 42.5 106.5t107.5 42.5t107 -42.5t42 -106.5q0 -65 -42.5 -107.5t-106.5 -42.5q-65 0 -107.5 43t-42.5 107z" />
<glyph unicode="&#xdd;" horiz-adv-x="1302" d="M16 1434h312l323 -639l324 639h311l-491 -918v-516h-287v516zM514 1542l141 289h342l-200 -289h-283z" />
<glyph unicode="&#xde;" horiz-adv-x="1335" d="M158 0v1434h286v-215h310q245 0 388.5 -132.5t143.5 -349.5t-146 -353t-386 -136h-310v-248h-286zM444 483h291q130 0 197 71t67 183q0 111 -66.5 178.5t-197.5 67.5h-291v-500z" />
<glyph unicode="&#xdf;" horiz-adv-x="1261" d="M137 0v1061q0 146 63 247t170.5 148t250.5 47q219 0 356 -111.5t137 -291.5q0 -115 -50.5 -204t-141.5 -136q134 -39 204 -122t70 -226q0 -195 -136.5 -303.5t-363.5 -108.5h-69v221h57q109 0 171.5 54t62.5 155q0 92 -62 144.5t-174 52.5h-57v217q97 6 154 69.5 t57 155.5q0 96 -55 153.5t-158 57.5q-97 0 -152 -51.5t-55 -155.5v-1073h-279z" />
<glyph unicode="&#xe0;" horiz-adv-x="1198" d="M92 307q0 168 115.5 253t314.5 85q87 0 157 -26.5t114 -63.5v145q0 75 -50 123.5t-135 48.5q-133 0 -184 -100h-258q45 154 164.5 236t292.5 82q200 0 324 -112.5t124 -297.5v-680h-268v98q-36 -53 -124.5 -88t-182.5 -35q-182 0 -293 89t-111 243zM285 1501h344 l149 -315h-280zM362 315q0 -72 57.5 -113.5t147.5 -41.5q93 0 159.5 45t66.5 112q0 69 -61 109.5t-157 40.5q-99 0 -156 -39.5t-57 -112.5z" />
<glyph unicode="&#xe1;" horiz-adv-x="1198" d="M92 307q0 168 115.5 253t314.5 85q87 0 157 -26.5t114 -63.5v145q0 75 -50 123.5t-135 48.5q-133 0 -184 -100h-258q45 154 164.5 236t292.5 82q200 0 324 -112.5t124 -297.5v-680h-268v98q-36 -53 -124.5 -88t-182.5 -35q-182 0 -293 89t-111 243zM362 315 q0 -72 57.5 -113.5t147.5 -41.5q93 0 159.5 45t66.5 112q0 69 -61 109.5t-157 40.5q-99 0 -156 -39.5t-57 -112.5zM489 1186l150 315h344l-217 -315h-277z" />
<glyph unicode="&#xe2;" horiz-adv-x="1198" d="M92 307q0 168 115.5 253t314.5 85q87 0 157 -26.5t114 -63.5v145q0 75 -50 123.5t-135 48.5q-133 0 -184 -100h-258q45 154 164.5 236t292.5 82q200 0 324 -112.5t124 -297.5v-680h-268v98q-36 -53 -124.5 -88t-182.5 -35q-182 0 -293 89t-111 243zM281 1186l229 315h270 l230 -315h-254l-111 157l-110 -157h-254zM362 315q0 -72 57.5 -113.5t147.5 -41.5q93 0 159.5 45t66.5 112q0 69 -61 109.5t-157 40.5q-99 0 -156 -39.5t-57 -112.5z" />
<glyph unicode="&#xe3;" horiz-adv-x="1198" d="M92 307q0 168 115.5 253t314.5 85q87 0 157 -26.5t114 -63.5v145q0 75 -50 123.5t-135 48.5q-133 0 -184 -100h-258q45 154 164.5 236t292.5 82q200 0 324 -112.5t124 -297.5v-680h-268v98q-36 -53 -124.5 -88t-182.5 -35q-182 0 -293 89t-111 243zM223 1225 q19 127 71.5 195.5t162.5 68.5q58 0 178.5 -44t146.5 -44q25 0 42.5 15t23.5 28t17 45q2 5 3 8l172 -53q-14 -49 -24.5 -78t-29.5 -67t-41 -58t-56.5 -34.5t-77.5 -14.5q-49 0 -168 44t-162 44q-25 0 -42 -14.5t-24 -31t-18 -52.5zM362 315q0 -72 57.5 -113.5t147.5 -41.5 q93 0 159.5 45t66.5 112q0 69 -61 109.5t-157 40.5q-99 0 -156 -39.5t-57 -112.5z" />
<glyph unicode="&#xe4;" horiz-adv-x="1198" d="M92 307q0 168 115.5 253t314.5 85q87 0 157 -26.5t114 -63.5v145q0 75 -50 123.5t-135 48.5q-133 0 -184 -100h-258q45 154 164.5 236t292.5 82q200 0 324 -112.5t124 -297.5v-680h-268v98q-36 -53 -124.5 -88t-182.5 -35q-182 0 -293 89t-111 243zM285 1341 q0 65 42.5 107.5t106.5 42.5t107 -42.5t43 -107.5q0 -64 -42.5 -106.5t-107.5 -42.5q-64 0 -106.5 42t-42.5 107zM362 315q0 -72 57.5 -113.5t147.5 -41.5q93 0 159.5 45t66.5 112q0 69 -61 109.5t-157 40.5q-99 0 -156 -39.5t-57 -112.5zM715 1341q0 65 42.5 107.5 t106.5 42.5t107 -42.5t43 -107.5q0 -64 -42.5 -106.5t-107.5 -42.5q-64 0 -106.5 42t-42.5 107z" />
<glyph unicode="&#xe5;" horiz-adv-x="1198" d="M92 307q0 168 115.5 253t314.5 85q87 0 157 -26.5t114 -63.5v145q0 75 -50 123.5t-135 48.5q-133 0 -184 -100h-258q45 154 164.5 236t292.5 82q200 0 324 -112.5t124 -297.5v-680h-268v98q-36 -53 -124.5 -88t-182.5 -35q-182 0 -293 89t-111 243zM362 315 q0 -72 57.5 -113.5t147.5 -41.5q93 0 159.5 45t66.5 112q0 69 -61 109.5t-157 40.5q-99 0 -156 -39.5t-57 -112.5zM420 1376q0 79 60 134t157 55q98 0 157.5 -55t59.5 -134q0 -80 -58.5 -135t-158.5 -55t-158.5 55t-58.5 135zM543 1376q0 -39 26 -63.5t68 -24.5t68 24.5 t26 63.5q0 40 -25.5 63t-68.5 23t-68.5 -23t-25.5 -63z" />
<glyph unicode="&#xe6;" horiz-adv-x="1873" d="M92 322q0 109 58 184t152.5 109t219.5 34q88 0 158.5 -26t112.5 -66v129q0 79 -48 131.5t-135 52.5q-72 0 -115 -24t-71 -74h-258q37 157 154.5 237.5t291.5 80.5q212 0 328 -132q55 61 147.5 96.5t204.5 35.5q152 0 261.5 -64t161.5 -168t52 -235v-187h-696v-26 q0 -102 55.5 -168t169.5 -66q85 0 141.5 38t78.5 97h243q-28 -147 -157.5 -241.5t-305.5 -94.5q-125 0 -222.5 41.5t-158.5 116.5q-62 -67 -163.5 -112.5t-231.5 -45.5q-192 0 -310 96t-118 251zM362 319q0 -72 57.5 -114.5t147.5 -42.5q94 0 160 44t66 111q0 70 -61.5 112 t-156.5 42q-101 0 -157 -39.5t-56 -112.5zM1071 633h440v26q0 105 -55.5 169.5t-163.5 64.5q-110 0 -165.5 -62.5t-55.5 -166.5v-31z" />
<glyph unicode="&#xe7;" horiz-adv-x="1169" d="M90 457v151q0 215 134 348.5t370 133.5q212 0 345.5 -118.5t139.5 -303.5h-254q-10 86 -65.5 141t-159.5 55q-114 0 -172.5 -67t-58.5 -179v-172q0 -112 58.5 -178.5t172.5 -66.5q104 0 159.5 55t65.5 141h254q-6 -170 -120.5 -284t-299.5 -133l-10 -54l33 -4 q158 -20 158 -141q0 -73 -62.5 -117.5t-169.5 -44.5q-90 0 -145 12v113q48 -10 96 -10q82 0 82 45q0 41 -76 47l-73 6l32 148q-205 18 -319.5 148.5t-114.5 328.5z" />
<glyph unicode="&#xe8;" horiz-adv-x="1146" d="M90 451v145q0 223 129 358.5t363 135.5q152 0 261.5 -64t161.5 -168t52 -235v-187h-697v-26q0 -102 56 -168t170 -66q85 0 141 38t78 97h244q-28 -147 -157.5 -241.5t-305.5 -94.5q-228 0 -362 127t-134 349zM236 1501h344l149 -315h-280zM360 633h441v26 q0 105 -55.5 169.5t-163.5 64.5q-114 0 -168 -67.5t-54 -182.5v-10z" />
<glyph unicode="&#xe9;" horiz-adv-x="1146" d="M90 451v145q0 223 129 358.5t363 135.5q152 0 261.5 -64t161.5 -168t52 -235v-187h-697v-26q0 -102 56 -168t170 -66q85 0 141 38t78 97h244q-28 -147 -157.5 -241.5t-305.5 -94.5q-228 0 -362 127t-134 349zM360 633h441v26q0 105 -55.5 169.5t-163.5 64.5 q-114 0 -168 -67.5t-54 -182.5v-10zM442 1186l150 315h344l-217 -315h-277z" />
<glyph unicode="&#xea;" horiz-adv-x="1146" d="M90 451v145q0 223 129 358.5t363 135.5q152 0 261.5 -64t161.5 -168t52 -235v-187h-697v-26q0 -102 56 -168t170 -66q85 0 141 38t78 97h244q-28 -147 -157.5 -241.5t-305.5 -94.5q-228 0 -362 127t-134 349zM221 1186l230 315h270l229 -315h-254l-110 157l-111 -157 h-254zM360 633h441v26q0 105 -55.5 169.5t-163.5 64.5q-114 0 -168 -67.5t-54 -182.5v-10z" />
<glyph unicode="&#xeb;" horiz-adv-x="1146" d="M90 451v145q0 223 129 358.5t363 135.5q152 0 261.5 -64t161.5 -168t52 -235v-187h-697v-26q0 -102 56 -168t170 -66q85 0 141 38t78 97h244q-28 -147 -157.5 -241.5t-305.5 -94.5q-228 0 -362 127t-134 349zM215 1341q0 65 42.5 107.5t107.5 42.5q64 0 106.5 -42.5 t42.5 -107.5t-42 -107t-107 -42t-107.5 42.5t-42.5 106.5zM360 633h441v26q0 105 -55.5 169.5t-163.5 64.5q-114 0 -168 -67.5t-54 -182.5v-10zM645 1341q0 65 42.5 107.5t107.5 42.5q64 0 106.5 -42.5t42.5 -107.5t-42 -107t-107 -42t-107.5 42.5t-42.5 106.5z" />
<glyph unicode="&#xec;" horiz-adv-x="565" d="M-74 1501h344l150 -315h-281zM143 0v1065h279v-1065h-279z" />
<glyph unicode="&#xed;" horiz-adv-x="565" d="M143 0v1065h279v-1065h-279zM156 1186l149 315h344l-217 -315h-276z" />
<glyph unicode="&#xee;" horiz-adv-x="565" d="M-82 1186l229 315h271l229 -315h-254l-110 157l-111 -157h-254zM143 0v1065h279v-1065h-279z" />
<glyph unicode="&#xef;" horiz-adv-x="565" d="M-82 1341q0 65 43 107.5t107 42.5t106.5 -42.5t42.5 -107.5t-42.5 -107t-106.5 -42q-65 0 -107.5 42.5t-42.5 106.5zM143 0v1065h279v-1065h-279zM348 1341q0 65 43 107.5t107 42.5t106.5 -42.5t42.5 -107.5t-42.5 -107t-106.5 -42q-65 0 -107.5 42.5t-42.5 106.5z" />
<glyph unicode="&#xf0;" horiz-adv-x="1185" d="M90 442v129q0 207 116.5 338t315.5 131q161 0 252 -88q-78 144 -176 242l-279 -100l-61 161l191 68q-92 69 -263 172h332q87 -48 148 -94l231 84l59 -160l-143 -53q131 -135 207 -302.5t76 -353.5v-159q0 -213 -139.5 -349.5t-372.5 -136.5q-219 0 -356.5 133t-137.5 338 zM362 418q0 -102 62.5 -166t165.5 -64q111 0 172 65t61 171v154q0 116 -61 184.5t-168 68.5q-114 0 -173 -67.5t-59 -190.5v-155z" />
<glyph unicode="&#xf1;" horiz-adv-x="1220" d="M137 0v1065h266v-127q82 152 314 152q174 0 275.5 -108.5t101.5 -299.5v-682h-279v637q0 97 -48.5 154t-145.5 57q-96 0 -150.5 -56t-54.5 -161v-631h-279zM215 1225q19 127 71.5 195.5t162.5 68.5q58 0 178.5 -44t146.5 -44q25 0 42.5 15t23.5 28t17 45q2 5 3 8l172 -53 q-14 -49 -24.5 -78t-29.5 -67t-41 -58t-56.5 -34.5t-77.5 -14.5q-49 0 -168 44t-162 44q-25 0 -42 -14.5t-24 -31t-18 -52.5z" />
<glyph unicode="&#xf2;" horiz-adv-x="1183" d="M90 457v151q0 210 134.5 346t367.5 136t367.5 -136t134.5 -346v-151q0 -210 -134.5 -346t-367.5 -136t-367.5 136t-134.5 346zM236 1501h344l149 -315h-280zM360 438q0 -109 59 -176t173 -67t172.5 67t58.5 176v189q0 109 -58.5 176t-172.5 67t-173 -67t-59 -176v-189z " />
<glyph unicode="&#xf3;" horiz-adv-x="1183" d="M90 457v151q0 210 134.5 346t367.5 136t367.5 -136t134.5 -346v-151q0 -210 -134.5 -346t-367.5 -136t-367.5 136t-134.5 346zM360 438q0 -109 59 -176t173 -67t172.5 67t58.5 176v189q0 109 -58.5 176t-172.5 67t-173 -67t-59 -176v-189zM455 1186l149 315h344 l-217 -315h-276z" />
<glyph unicode="&#xf4;" horiz-adv-x="1183" d="M90 457v151q0 210 134.5 346t367.5 136t367.5 -136t134.5 -346v-151q0 -210 -134.5 -346t-367.5 -136t-367.5 136t-134.5 346zM227 1186l230 315h270l229 -315h-254l-110 157l-111 -157h-254zM360 438q0 -109 59 -176t173 -67t172.5 67t58.5 176v189q0 109 -58.5 176 t-172.5 67t-173 -67t-59 -176v-189z" />
<glyph unicode="&#xf5;" horiz-adv-x="1183" d="M90 457v151q0 210 134.5 346t367.5 136t367.5 -136t134.5 -346v-151q0 -210 -134.5 -346t-367.5 -136t-367.5 136t-134.5 346zM195 1225q19 128 71 196t162 68q58 0 179 -44t147 -44q25 0 42.5 15t23.5 28t17 45q2 5 3 8l172 -53q-14 -49 -24.5 -78.5t-30 -66.5 t-41.5 -57.5t-56 -35t-78 -14.5q-49 0 -167.5 44t-161.5 44q-25 0 -42 -14.5t-24 -31t-18 -52.5zM360 438q0 -109 59 -176t173 -67t172.5 67t58.5 176v189q0 109 -58.5 176t-172.5 67t-173 -67t-59 -176v-189z" />
<glyph unicode="&#xf6;" horiz-adv-x="1183" d="M90 457v151q0 210 134.5 346t367.5 136t367.5 -136t134.5 -346v-151q0 -210 -134.5 -346t-367.5 -136t-367.5 136t-134.5 346zM227 1341q0 65 42.5 107.5t107.5 42.5q64 0 106.5 -42.5t42.5 -107.5t-42 -107t-107 -42t-107.5 42.5t-42.5 106.5zM360 438q0 -109 59 -176 t173 -67t172.5 67t58.5 176v189q0 109 -58.5 176t-172.5 67t-173 -67t-59 -176v-189zM657 1341q0 65 42.5 107.5t107.5 42.5q64 0 106.5 -42.5t42.5 -107.5t-42 -107t-107 -42t-107.5 42.5t-42.5 106.5z" />
<glyph unicode="&#xf7;" horiz-adv-x="1224" d="M143 618v238h938v-238h-938zM457 328q0 69 42.5 112t112.5 43t113 -43t43 -112t-43 -112.5t-113 -43.5t-112.5 43.5t-42.5 112.5zM457 1147q0 69 42.5 112.5t112.5 43.5t113 -43.5t43 -112.5t-43 -112.5t-113 -43.5t-112.5 43.5t-42.5 112.5z" />
<glyph unicode="&#xf8;" horiz-adv-x="1183" d="M90 -102l139 206q-139 133 -139 353v151q0 210 134.5 346t367.5 136q145 0 258 -58l92 135h152l-140 -209q68 -65 104 -155.5t36 -194.5v-151q0 -210 -134.5 -346t-367.5 -136q-147 0 -260 58l-90 -135h-152zM360 438q0 -58 19 -110l342 510q-56 32 -129 32 q-114 0 -173 -67t-59 -176v-189zM463 225q49 -30 129 -30q114 0 172.5 67t58.5 176v189q0 59 -18 108z" />
<glyph unicode="&#xf9;" horiz-adv-x="1212" d="M127 383v682h279v-643q0 -102 47.5 -157.5t140.5 -55.5q96 0 149.5 57.5t53.5 157.5v641h278v-1065h-266v127q-37 -68 -122 -110t-187 -42q-177 0 -275 111.5t-98 296.5zM287 1501h344l149 -315h-280z" />
<glyph unicode="&#xfa;" horiz-adv-x="1212" d="M127 383v682h279v-643q0 -102 47.5 -157.5t140.5 -55.5q96 0 149.5 57.5t53.5 157.5v641h278v-1065h-266v127q-37 -68 -122 -110t-187 -42q-177 0 -275 111.5t-98 296.5zM444 1186l150 315h344l-217 -315h-277z" />
<glyph unicode="&#xfb;" horiz-adv-x="1212" d="M127 383v682h279v-643q0 -102 47.5 -157.5t140.5 -55.5q96 0 149.5 57.5t53.5 157.5v641h278v-1065h-266v127q-37 -68 -122 -110t-187 -42q-177 0 -275 111.5t-98 296.5zM254 1186l229 315h271l229 -315h-254l-111 157l-110 -157h-254z" />
<glyph unicode="&#xfc;" horiz-adv-x="1212" d="M127 383v682h279v-643q0 -102 47.5 -157.5t140.5 -55.5q96 0 149.5 57.5t53.5 157.5v641h278v-1065h-266v127q-37 -68 -122 -110t-187 -42q-177 0 -275 111.5t-98 296.5zM258 1341q0 65 43 107.5t107 42.5t106.5 -42.5t42.5 -107.5t-42.5 -107t-106.5 -42 q-65 0 -107.5 42.5t-42.5 106.5zM688 1341q0 65 43 107.5t107 42.5t106.5 -42.5t42.5 -107.5t-42.5 -107t-106.5 -42q-65 0 -107.5 42.5t-42.5 106.5z" />
<glyph unicode="&#xfd;" horiz-adv-x="1046" d="M23 1065h278l229 -764l218 764h276l-465 -1421h-274l106 360zM391 1186l150 315h344l-217 -315h-277z" />
<glyph unicode="&#xfe;" horiz-adv-x="1257" d="M137 -356v1851h279v-541q44 60 122.5 98t180.5 38q107 0 193 -37.5t141 -102.5t84.5 -149t29.5 -180v-177q0 -130 -50.5 -235t-153.5 -169.5t-242 -64.5q-103 0 -182.5 38t-122.5 102v-471h-279zM416 453q0 -117 67 -184.5t166 -67.5q115 0 177.5 70t62.5 186v151 q0 112 -61 184t-177 72q-105 0 -170 -71.5t-65 -184.5v-155z" />
<glyph unicode="&#xff;" horiz-adv-x="1046" d="M23 1065h278l229 -764l218 764h276l-465 -1421h-274l106 360zM176 1341q0 65 43 107.5t107 42.5t106.5 -42.5t42.5 -107.5t-42.5 -107t-106.5 -42q-65 0 -107.5 42.5t-42.5 106.5zM606 1341q0 65 43 107.5t107 42.5t106.5 -42.5t42.5 -107.5t-42.5 -107t-106.5 -42 q-65 0 -107.5 42.5t-42.5 106.5z" />
<glyph unicode="&#x152;" horiz-adv-x="2179" d="M115 649v135q0 301 170.5 475.5t494.5 174.5h1295v-238h-717v-350h655v-240h-655v-368h719v-238h-1297q-324 0 -494.5 174t-170.5 475zM399 637q0 -187 95.5 -293t287.5 -106h289v958h-289q-192 0 -287.5 -106t-95.5 -293v-160z" />
<glyph unicode="&#x153;" horiz-adv-x="1896" d="M90 457v151q0 210 134.5 346t367.5 136q113 0 199 -35t163 -105q130 140 361 140q152 0 261.5 -64t161.5 -168t52 -235v-187h-696v-26q0 -102 55.5 -168t169.5 -66q85 0 141 38t78 97h244q-28 -147 -157.5 -241.5t-305.5 -94.5q-115 0 -212.5 36.5t-154.5 101.5 q-54 -59 -151.5 -98.5t-208.5 -39.5q-159 0 -274 64.5t-171.5 172t-56.5 245.5zM360 438q0 -109 59 -176t173 -67t172.5 67t58.5 176v189q0 109 -58.5 176t-172.5 67t-173 -67t-59 -176v-189zM1094 633h440v26q0 105 -55.5 169.5t-163.5 64.5q-114 0 -167.5 -67.5 t-53.5 -182.5v-10z" />
<glyph unicode="&#x178;" horiz-adv-x="1302" d="M16 1434h312l323 -639l324 639h311l-491 -918v-516h-287v516zM272 1692q0 64 42.5 106.5t107.5 42.5q64 0 106.5 -42.5t42.5 -106.5q0 -65 -42.5 -107.5t-106.5 -42.5t-107 43t-43 107zM731 1692q0 64 42.5 106.5t107.5 42.5t107 -42.5t42 -106.5q0 -65 -42.5 -107.5 t-106.5 -42.5q-65 0 -107.5 43t-42.5 107z" />
<glyph unicode="&#x2c6;" horiz-adv-x="1044" d="M158 1186l229 315h270l230 -315h-254l-111 157l-110 -157h-254z" />
<glyph unicode="&#x2dc;" horiz-adv-x="1132" d="M158 1225q19 128 71 196t162 68q58 0 179 -44t147 -44q25 0 42.5 15t23.5 28t17 45q2 5 3 8l172 -53q-14 -49 -24.5 -78.5t-30 -66.5t-41.5 -57.5t-56 -35t-78 -14.5q-49 0 -167.5 44t-161.5 44q-25 0 -42 -14.5t-24 -31t-18 -52.5z" />
<glyph unicode="&#x2000;" horiz-adv-x="925" />
<glyph unicode="&#x2001;" horiz-adv-x="1851" />
<glyph unicode="&#x2002;" horiz-adv-x="925" />
<glyph unicode="&#x2003;" horiz-adv-x="1851" />
<glyph unicode="&#x2004;" horiz-adv-x="617" />
<glyph unicode="&#x2005;" horiz-adv-x="462" />
<glyph unicode="&#x2006;" horiz-adv-x="308" />
<glyph unicode="&#x2007;" horiz-adv-x="308" />
<glyph unicode="&#x2008;" horiz-adv-x="231" />
<glyph unicode="&#x2009;" horiz-adv-x="370" />
<glyph unicode="&#x200a;" horiz-adv-x="102" />
<glyph unicode="&#x2010;" horiz-adv-x="837" d="M113 530v250h612v-250h-612z" />
<glyph unicode="&#x2011;" horiz-adv-x="837" d="M113 530v250h612v-250h-612z" />
<glyph unicode="&#x2012;" horiz-adv-x="837" d="M113 530v250h612v-250h-612z" />
<glyph unicode="&#x2013;" horiz-adv-x="1257" d="M113 530v250h1032v-250h-1032z" />
<glyph unicode="&#x2014;" horiz-adv-x="1869" d="M113 530v250h1644v-250h-1644z" />
<glyph unicode="&#x2018;" horiz-adv-x="485" d="M20 891l185 543h227l-104 -543h-308z" />
<glyph unicode="&#x2019;" horiz-adv-x="485" d="M53 891l105 543h307l-184 -543h-228z" />
<glyph unicode="&#x201a;" horiz-adv-x="524" d="M31 -264l104 543h307l-184 -543h-227z" />
<glyph unicode="&#x201c;" horiz-adv-x="956" d="M20 891l185 543h227l-104 -543h-308zM492 891l184 543h227l-104 -543h-307z" />
<glyph unicode="&#x201d;" horiz-adv-x="956" d="M53 891l105 543h307l-184 -543h-228zM524 891l105 543h307l-184 -543h-228z" />
<glyph unicode="&#x201e;" horiz-adv-x="995" d="M31 -264l104 543h307l-184 -543h-227zM502 -264l104 543h307l-184 -543h-227z" />
<glyph unicode="&#x2022;" horiz-adv-x="847" d="M143 729q0 119 77 197t204 78q128 0 204.5 -77.5t76.5 -197.5q0 -118 -76.5 -196t-204.5 -78q-127 0 -204 78t-77 196z" />
<glyph unicode="&#x2026;" horiz-adv-x="1572" d="M102 143q0 71 44 115.5t116 44.5t116 -44.5t44 -115.5t-44 -115t-116 -44t-116 44t-44 115zM627 143q0 71 43.5 115.5t115.5 44.5t116 -44.5t44 -115.5t-44 -115t-116 -44t-115.5 44t-43.5 115zM1151 143q0 71 44 115.5t116 44.5t115.5 -44.5t43.5 -115.5t-43.5 -115 t-115.5 -44t-116 44t-44 115z" />
<glyph unicode="&#x202f;" horiz-adv-x="370" />
<glyph unicode="&#x2039;" horiz-adv-x="729" d="M20 565l334 443h314l-332 -443l332 -442h-314z" />
<glyph unicode="&#x203a;" horiz-adv-x="729" d="M61 123l332 442l-332 443h314l334 -443l-334 -442h-314z" />
<glyph unicode="&#x205f;" horiz-adv-x="462" />
<glyph unicode="&#x20ac;" horiz-adv-x="1374" d="M92 449v190h150v156h-150v190h150q2 100 38 186t100.5 151t163.5 102.5t220 37.5q113 0 208 -37t159 -100.5t101 -148t40 -179.5h-252q-5 107 -71.5 174.5t-180.5 67.5q-122 0 -186 -67.5t-64 -180.5v-6h307v-190h-307v-156h307v-190h-307v-7q0 -113 64 -180t186 -67 q114 0 180.5 67t71.5 174h252q-3 -95 -40 -179.5t-101 -148t-159 -100.5t-208 -37q-121 0 -220 37.5t-163.5 102.5t-100.5 151.5t-38 186.5h-150z" />
<glyph unicode="&#x2122;" horiz-adv-x="1339" d="M61 1323v111h488v-111h-180v-496h-127v496h-181zM651 827v607h117l174 -357l174 357h117v-607h-123v357l-106 -217h-123l-107 217v-357h-123z" />
<glyph unicode="&#xe000;" horiz-adv-x="1064" d="M0 0v1065h1065v-1065h-1065z" />
<glyph unicode="&#xfb01;" horiz-adv-x="1308" d="M63 840v225h136v98q0 173 81 252.5t248 79.5h185v-221h-121q-62 0 -88.5 -24t-26.5 -85v-100h215v-225h-215v-840h-278v840h-136zM864 1343q0 69 46 115.5t116 46.5t116 -46.5t46 -115.5t-46 -115t-116 -46t-116 46t-46 115zM887 0v1065h278v-1065h-278z" />
<glyph unicode="&#xfb02;" horiz-adv-x="1308" d="M63 840v225h136v98q0 173 81 252.5t248 79.5h185v-221h-121q-62 0 -88.5 -24t-26.5 -85v-100h215v-225h-215v-840h-278v840h-136zM887 0v1495h278v-1495h-278z" />
</font>
</defs>
</svg>
