<?xml version="1.0" standalone="no"?>
<!DOCTYPE svg PUBLIC "-//W3C//DTD SVG 1.1//EN" "http://www.w3.org/Graphics/SVG/1.1/DTD/svg11.dtd" >
<svg xmlns="http://www.w3.org/2000/svg">
<metadata></metadata>
<defs>
<font id="colfaxregular_italic" horiz-adv-x="1460" >
<font-face units-per-em="2048" ascent="1536" descent="-512" />
<missing-glyph horiz-adv-x="450" />
<glyph horiz-adv-x="2048" />
<glyph horiz-adv-x="2048" />
<glyph unicode="&#xd;" horiz-adv-x="2048" />
<glyph unicode=" "  horiz-adv-x="450" />
<glyph unicode="&#x09;" horiz-adv-x="450" />
<glyph unicode="&#xa0;" horiz-adv-x="450" />
<glyph unicode="!" horiz-adv-x="534" d="M88 80q0 47 33.5 77.5t85.5 30.5q41 0 66.5 -25.5t25.5 -62.5q0 -47 -34 -79.5t-83 -32.5q-40 0 -67 26t-27 66zM197 371l55 524l94 539h162l-96 -549l-127 -514h-88z" />
<glyph unicode="&#x22;" horiz-adv-x="911" d="M217 893l96 541h133l-96 -541h-133zM643 893l96 541h133l-96 -541h-133z" />
<glyph unicode="#" horiz-adv-x="1376" d="M104 438l19 109h233l105 364h-232l21 109h244l118 414h123l-119 -414h406l119 414h123l-119 -414h207l-19 -109h-221l-104 -364h219l-19 -109h-233l-125 -438h-123l127 438h-408l-124 -438h-123l127 438h-222zM479 547h406l104 364h-405z" />
<glyph unicode="$" horiz-adv-x="1214" d="M129 352q0 28 4 56l4 26h146l-4 -22q-5 -35 -5 -52q0 -114 91 -176.5t227 -62.5q139 0 234.5 80.5t95.5 210.5q0 143 -170 213l-269 108q-110 44 -167.5 118.5t-57.5 168.5q0 183 123 293t319 119l41 227h150l-41 -238q132 -29 220.5 -115t88.5 -208q0 -26 -4 -58l-6 -34 h-145l6 34q4 20 4 43q0 105 -86.5 166.5t-212.5 61.5q-142 0 -223.5 -75t-81.5 -202q0 -116 145 -176l276 -115q244 -99 244 -307q0 -183 -130.5 -304t-334.5 -132l-39 -225h-149l41 235q-146 29 -240 120t-94 222z" />
<glyph unicode="%" horiz-adv-x="1740" d="M205 928q0 31 6 61l33 185q50 276 321 276q127 0 208 -74.5t81 -195.5q0 -30 -6 -64l-31 -174q-24 -132 -107.5 -208.5t-215.5 -76.5q-126 0 -207.5 75.5t-81.5 195.5zM315 928q0 -86 50 -132t137 -46q83 0 136.5 53t70.5 149l28 164q4 28 4 55q0 84 -46.5 134.5 t-137.5 50.5t-139.5 -50t-67.5 -155l-28 -162q-7 -44 -7 -61zM350 0l993 1434h127l-993 -1434h-127zM975 254q0 31 6 61l33 185q50 276 321 276q127 0 208 -74.5t81 -195.5q0 -30 -6 -64l-31 -174q-24 -132 -107.5 -208t-215.5 -76q-127 0 -208 75.5t-81 194.5zM1085 254 q0 -86 50 -132t137 -46q82 0 136 53.5t71 149.5l28 163q4 28 4 56q0 84 -46 134t-138 50q-91 0 -139.5 -50t-67.5 -155l-28 -162q-7 -44 -7 -61z" />
<glyph unicode="&#x26;" horiz-adv-x="1413" d="M113 399q0 87 30 163t82 131t114.5 93.5t135.5 61.5l-4 6q-86 110 -86 248q0 110 53.5 193t142.5 125t199 42q92 0 171.5 -32t131.5 -98t52 -152q0 -27 -5 -52l-12 -69h-129l12 67q5 25 5 41q0 86 -66.5 135.5t-163.5 49.5q-108 0 -181 -66.5t-73 -181.5q0 -96 72 -189 l463 -589q56 95 76 211l26 145h129l-26 -150q-30 -171 -127 -307l137 -172l-105 -82l-123 154q-175 -154 -438 -154q-219 0 -356 121.5t-137 306.5zM252 393q0 -135 100.5 -222t268.5 -87q222 0 352 133l-434 549q-71 -32 -118.5 -63t-88.5 -74.5t-60.5 -102t-19.5 -133.5z " />
<glyph unicode="'" horiz-adv-x="485" d="M217 893l96 541h133l-96 -541h-133z" />
<glyph unicode="(" horiz-adv-x="632" d="M152 371q0 331 114.5 649t323.5 582h149q-211 -306 -321.5 -610.5t-110.5 -631.5q0 -288 101 -634h-150q-106 320 -106 645z" />
<glyph unicode=")" horiz-adv-x="632" d="M-63 -274q211 306 321.5 610t110.5 631q0 289 -101 635h150q106 -320 106 -646q0 -331 -114.5 -648.5t-323.5 -581.5h-149z" />
<glyph unicode="*" horiz-adv-x="903" d="M205 961l258 137l-230 149l35 60l234 -154l49 281h74l-50 -275l259 137l28 -61l-268 -141l223 -144l-37 -57l-225 145l-49 -278h-72l47 272l-248 -131z" />
<glyph unicode="+" horiz-adv-x="1241" d="M193 676l20 123h387l74 418h139l-74 -418h387l-20 -123h-387l-74 -418h-139l74 418h-387z" />
<glyph unicode="," horiz-adv-x="487" d="M-51 -233l178 458h176l-223 -458h-131z" />
<glyph unicode="-" horiz-adv-x="845" d="M125 571l25 136h571l-25 -136h-571z" />
<glyph unicode="." horiz-adv-x="487" d="M55 80q0 47 33.5 77.5t85.5 30.5q41 0 66.5 -25.5t25.5 -62.5q0 -47 -33.5 -79.5t-82.5 -32.5q-40 0 -67.5 26.5t-27.5 65.5z" />
<glyph unicode="/" horiz-adv-x="946" d="M-14 -215l886 1751h158l-887 -1751h-157z" />
<glyph unicode="0" horiz-adv-x="1288" d="M131 403q0 51 8 95l90 512q38 219 174 335.5t355 116.5q204 0 336.5 -123.5t132.5 -310.5q0 -36 -8 -86l-91 -510q-36 -210 -171.5 -335.5t-350.5 -125.5q-205 0 -340 120t-135 312zM285 401q0 -141 88.5 -221t236.5 -80q149 0 243 90t122 252l90 510q6 38 6 72 q0 135 -88 222t-229 87q-152 0 -247 -87.5t-122 -237.5l-92 -523q-8 -39 -8 -84z" />
<glyph unicode="1" horiz-adv-x="712" d="M178 1141l25 139l342 154h131l-252 -1434h-156l224 1268z" />
<glyph unicode="2" horiz-adv-x="1224" d="M57 0l21 123l715 637q44 38 75 70t65.5 76t52.5 92.5t18 97.5q0 106 -78.5 171.5t-192.5 65.5q-269 0 -319 -274l-6 -35h-152l8 45q72 393 486 393q107 0 200.5 -42.5t152 -124.5t58.5 -185q0 -68 -20 -128.5t-61 -117t-84.5 -100.5t-110.5 -102l-617 -533h733l-22 -129 h-922z" />
<glyph unicode="3" horiz-adv-x="1243" d="M121 391h143q-8 -92 33.5 -159.5t115.5 -100.5t171 -33q153 0 256.5 90.5t103.5 227.5q0 127 -92.5 197.5t-247.5 70.5h-131l23 123l479 500h-629l21 127h827l-23 -129l-499 -508h14q178 0 297 -102t119 -261q0 -208 -149.5 -335.5t-381.5 -127.5q-72 0 -139 16.5 t-126 51t-101.5 83t-65.5 118t-18 151.5z" />
<glyph unicode="4" horiz-adv-x="1247" d="M92 342l21 117l649 975h147l-639 -973h521l59 340h145l-59 -340h197l-21 -119h-199l-59 -342h-145l59 342h-676z" />
<glyph unicode="5" horiz-adv-x="1275" d="M137 352h150q25 -121 111 -187.5t218 -66.5q116 0 204 57.5t130.5 143t42.5 182.5q0 132 -88.5 227t-220.5 95q-104 0 -186.5 -48t-130.5 -122h-152l272 801h695l-23 -125h-569l-168 -492q72 61 141 87t168 26q112 0 207.5 -54.5t153 -153t57.5 -218.5q0 -144 -67 -265 t-193 -194.5t-285 -73.5q-112 0 -212 44t-170.5 132.5t-84.5 204.5z" />
<glyph unicode="6" horiz-adv-x="1224" d="M115 420q0 70 17.5 136t51.5 126t65.5 104t78.5 99l467 549h170l-531 -592l2 -4q109 88 256 88q174 0 297 -127.5t123 -306.5q0 -102 -38 -196t-106.5 -166.5t-171 -115.5t-223.5 -43q-189 0 -323.5 133t-134.5 316zM268 422q0 -139 91.5 -232.5t228.5 -93.5 q166 0 268 110.5t102 270.5q0 139 -88 233.5t-231 94.5q-156 0 -263.5 -112.5t-107.5 -270.5z" />
<glyph unicode="7" horiz-adv-x="1142" d="M150 0l837 1305h-706l22 129h877l-19 -111l-850 -1323h-161z" />
<glyph unicode="8" horiz-adv-x="1288" d="M137 356q0 107 56 197.5t142 143t183 65.5q-83 34 -139.5 114t-56.5 185q0 183 128 292t338 109q105 0 196 -42.5t148.5 -124t57.5 -185.5q0 -137 -81 -236.5t-216 -140.5q103 -36 169 -115.5t66 -191.5q0 -134 -72.5 -238.5t-196 -160.5t-275.5 -56q-189 0 -318 110 t-129 275zM289 360q0 -122 84.5 -196t226.5 -74q160 0 268.5 92t108.5 238q0 117 -86 187.5t-219 70.5q-171 0 -277 -85t-106 -233zM465 1053q0 -104 73 -180t179 -76q138 0 230.5 86.5t92.5 212.5q0 109 -75.5 178t-190.5 69q-141 0 -225 -77t-84 -213z" />
<glyph unicode="9" horiz-adv-x="1226" d="M174 946q0 108 38 202.5t107 164t171 109.5t223 40q191 0 324.5 -130.5t133.5 -317.5q0 -97 -34.5 -194.5t-100.5 -174.5l-547 -645h-167l489 580h-2q-75 -72 -225 -72q-170 0 -290 130t-120 308zM328 950q0 -146 86 -233.5t231 -87.5q152 0 261.5 113t109.5 270 q0 139 -88 232t-230 93q-110 0 -195.5 -53.5t-130 -141t-44.5 -192.5z" />
<glyph unicode=":" horiz-adv-x="487" d="M55 80q0 47 33.5 77.5t85.5 30.5q41 0 66.5 -25.5t25.5 -62.5q0 -47 -33.5 -79.5t-82.5 -32.5q-40 0 -67.5 26.5t-27.5 65.5zM174 758q0 47 33.5 77.5t85.5 30.5q41 0 66.5 -25.5t25.5 -62.5q0 -47 -34 -79.5t-83 -32.5q-40 0 -67 26t-27 66z" />
<glyph unicode=";" horiz-adv-x="487" d="M-51 -233l178 458h176l-223 -458h-131zM209 758q0 47 33.5 77.5t85.5 30.5q41 0 66.5 -25.5t25.5 -62.5q0 -47 -34 -79.5t-83 -32.5q-40 0 -67 26t-27 66z" />
<glyph unicode="&#x3c;" horiz-adv-x="1202" d="M150 688l16 98l993 451l-24 -137l-803 -373l676 -352l-25 -137z" />
<glyph unicode="=" horiz-adv-x="1257" d="M174 432l21 123h888l-20 -123h-889zM260 920l21 122h888l-20 -122h-889z" />
<glyph unicode="&#x3e;" horiz-adv-x="1202" d="M100 238l25 137l803 373l-676 352l24 137l834 -451l-16 -98z" />
<glyph unicode="?" horiz-adv-x="1036" d="M190 1061l7 35q33 188 144.5 277t305.5 89q161 0 275 -91t114 -228q0 -102 -55 -181.5t-156 -148.5l-129 -88q-85 -58 -122.5 -118t-57.5 -177l-12 -72h-142l19 107q24 132 71 207t130 133l114 80q41 29 66.5 50t56.5 53.5t46.5 69t15.5 77.5q0 90 -71.5 146t-178.5 56 q-128 0 -196 -61t-91 -182l-6 -33h-148zM293 80q0 47 33.5 77.5t85.5 30.5q41 0 66.5 -25.5t25.5 -62.5q0 -47 -34 -79.5t-83 -32.5q-40 0 -67 26t-27 66z" />
<glyph unicode="@" horiz-adv-x="1945" d="M178 561q0 185 62 349t174 286.5t280 194t369 71.5q180 0 329 -59.5t245 -159t148 -226.5t52 -265q0 -73 -13 -145.5t-43 -144t-73.5 -126t-110.5 -88t-149 -33.5q-98 0 -163.5 58.5t-78.5 138.5q-41 -71 -116.5 -119.5t-174.5 -48.5q-133 0 -210.5 85.5t-77.5 219.5 q0 37 6 78l10 59q27 161 117 242.5t225 81.5q92 0 156.5 -46t89.5 -108l24 137h117l-76 -424q-6 -38 -6 -67q0 -88 43.5 -142.5t128.5 -54.5q84 0 147.5 63t94.5 163t31 219q0 127 -46 239t-130 197t-213 134.5t-285 49.5q-229 0 -405.5 -102t-273.5 -286t-97 -421 q0 -146 47.5 -273.5t135.5 -223.5t224.5 -151.5t304.5 -55.5q196 0 430 63l-12 -90q-176 -66 -430 -66q-182 0 -335.5 63.5t-255.5 171.5t-159 253.5t-57 308.5zM748 549q0 -99 50.5 -152t137.5 -53q92 0 157 64.5t81 160.5l12 72q4 20 4 45q0 92 -58.5 157.5t-148.5 65.5 q-179 0 -219 -233l-8 -47q-8 -46 -8 -80z" />
<glyph unicode="A" horiz-adv-x="1372" d="M-12 0l776 1434h162l276 -1434h-153l-66 375h-631l-192 -375h-172zM418 504h543l-136 790z" />
<glyph unicode="B" horiz-adv-x="1343" d="M94 0l252 1434h569q162 0 253.5 -95.5t91.5 -238.5q0 -119 -75.5 -221t-197.5 -146q107 -25 173.5 -104t66.5 -189q0 -199 -145.5 -319.5t-381.5 -120.5h-606zM270 125h435q170 0 268 82t98 225q0 110 -72 174t-200 64h-432zM389 795h391q78 0 141.5 26.5t102.5 69 t59.5 93.5t20.5 103q0 97 -58 159.5t-172 62.5h-395z" />
<glyph unicode="C" horiz-adv-x="1421" d="M143 512q0 59 13 139l39 219q52 294 201.5 443t412.5 149q228 0 377 -131.5t164 -369.5h-150q-14 171 -117.5 269.5t-279.5 98.5q-192 0 -302 -115.5t-151 -343.5l-41 -229q-14 -86 -14 -141q0 -184 99.5 -290t289.5 -106q91 0 167 30t128 82.5t86.5 117t52.5 139.5h150 q-41 -217 -200 -359.5t-388 -142.5q-249 0 -393 149t-144 392z" />
<glyph unicode="D" horiz-adv-x="1419" d="M94 0l252 1434h535q216 0 342.5 -122t126.5 -323q0 -51 -11 -119l-61 -348q-44 -256 -196 -389t-435 -133h-553zM274 131h363q212 0 329.5 93t153.5 298l62 348q10 55 10 107q0 155 -90 240.5t-258 85.5h-363z" />
<glyph unicode="E" horiz-adv-x="1245" d="M94 0l252 1434h932l-23 -134h-774l-88 -505h713l-23 -133h-714l-93 -529h777l-25 -133h-934z" />
<glyph unicode="F" horiz-adv-x="1185" d="M94 0l252 1434h909l-24 -134h-748l-96 -528h684l-22 -133h-684l-111 -639h-160z" />
<glyph unicode="G" horiz-adv-x="1423" d="M141 524q0 62 13 138l39 221q103 579 606 579q113 0 208.5 -31t168 -92t115 -157t46.5 -219h-147q-15 175 -115.5 270.5t-279.5 95.5q-186 0 -297.5 -116.5t-149.5 -329.5l-41 -232q-12 -70 -12 -137q0 -192 104.5 -303t290.5 -111q183 0 290.5 109.5t139.5 300.5l8 49 h-397l25 131h553l-29 -168q-20 -119 -68 -218.5t-121.5 -174t-178.5 -116.5t-232 -42q-167 0 -290.5 74t-186 198t-62.5 281z" />
<glyph unicode="H" horiz-adv-x="1443" d="M94 0l252 1434h160l-113 -639h752l112 639h160l-252 -1434h-159l114 651h-751l-115 -651h-160z" />
<glyph unicode="I" horiz-adv-x="552" d="M104 0l252 1434h160l-252 -1434h-160z" />
<glyph unicode="J" horiz-adv-x="1198" d="M72 395h147q-2 -18 -2 -35q0 -109 74 -178q85 -78 225 -78t218.5 77.5t103.5 213.5l182 1039h160l-185 -1051q-33 -188 -166 -300t-329 -112q-121 0 -223.5 51t-161.5 150q-46 78 -46 171q0 26 3 52z" />
<glyph unicode="K" horiz-adv-x="1239" d="M94 0l252 1434h160l-123 -701l745 701h203l-780 -725l553 -709h-184l-541 711l-125 -711h-160z" />
<glyph unicode="L" horiz-adv-x="1157" d="M94 0l252 1434h160l-230 -1301h728l-23 -133h-887z" />
<glyph unicode="M" horiz-adv-x="1605" d="M94 0l252 1434h152l301 -938l624 938h156l-252 -1434h-151l196 1118l-528 -780h-137l-258 817l-203 -1155h-152z" />
<glyph unicode="N" horiz-adv-x="1458" d="M94 0l252 1434h150l571 -1192l209 1192h156l-252 -1434h-150l-571 1184l-209 -1184h-156z" />
<glyph unicode="O" d="M143 530q0 61 13 134l37 208q51 285 207.5 437.5t424.5 152.5q167 0 293.5 -72t192 -196.5t65.5 -282.5q0 -57 -12 -131l-37 -213q-22 -128 -73 -235.5t-129 -188.5t-188 -126.5t-241 -45.5q-167 0 -294 73.5t-193 199.5t-66 286zM299 528q0 -191 105.5 -307.5 t300.5 -116.5q189 0 309 128t157 337l41 234q11 57 11 108q0 185 -109 301.5t-297 116.5q-200 0 -315.5 -120t-153.5 -339l-39 -219q-10 -54 -10 -123z" />
<glyph unicode="P" horiz-adv-x="1302" d="M94 0l252 1434h553q177 0 293.5 -118.5t116.5 -281.5q0 -227 -156 -372.5t-410 -145.5h-397l-92 -516h-160zM369 649h379q184 0 292.5 105t108.5 268q0 116 -74.5 197t-212.5 81h-379z" />
<glyph unicode="Q" d="M143 530q0 61 13 134l37 208q51 285 207.5 437.5t424.5 152.5q167 0 293.5 -72t192 -196.5t65.5 -282.5q0 -57 -12 -131l-37 -213q-28 -161 -101 -289t-186 -206l97 -178l-119 -64l-96 180q-106 -39 -226 -39q-167 0 -294 73.5t-193 199.5t-66 286zM299 528 q0 -191 105.5 -307.5t300.5 -116.5q83 0 153 27l-96 182l119 58l94 -176q150 124 196 374l41 234q11 57 11 108q0 185 -109 301.5t-297 116.5q-200 0 -315.5 -120t-153.5 -339l-39 -219q-10 -54 -10 -123z" />
<glyph unicode="R" horiz-adv-x="1382" d="M94 0l252 1434h578q131 0 229 -58.5t145.5 -150.5t47.5 -203q0 -176 -102 -301.5t-294 -177.5l228 -543h-174l-213 524h-445l-92 -524h-160zM369 651h399q195 0 306.5 102.5t111.5 258.5q0 123 -75.5 208t-213.5 85h-414z" />
<glyph unicode="S" horiz-adv-x="1314" d="M127 352q0 34 6 68l4 22h150l-4 -22q-7 -35 -7 -58q0 -129 106 -197.5t269 -68.5q168 0 274.5 79.5t106.5 227.5q0 75 -46 132.5t-134 82.5l-336 95q-128 36 -195 115t-67 190q0 215 140.5 329.5t373.5 114.5q91 0 176 -23.5t154.5 -67.5t111 -115.5t41.5 -159.5 q0 -32 -4 -64l-2 -12h-147l2 12q4 32 4 47q0 82 -52 142.5t-130.5 88t-169.5 27.5q-151 0 -246.5 -77t-95.5 -220q0 -75 39 -120.5t118 -69.5l340 -98q136 -40 209.5 -125.5t73.5 -202.5q0 -137 -73.5 -241t-198.5 -158t-281 -54q-136 0 -250 43.5t-187 131.5t-73 206z" />
<glyph unicode="T" horiz-adv-x="1150" d="M197 1298l24 136h1030l-22 -136h-436l-230 -1298h-160l230 1298h-436z" />
<glyph unicode="U" horiz-adv-x="1441" d="M162 414q0 40 8 84l164 936h160l-166 -947q-6 -37 -6 -73q0 -143 99.5 -226.5t252.5 -83.5q171 0 283.5 100.5t142.5 272.5l168 957h159l-167 -959q-40 -231 -198 -367.5t-400 -136.5q-133 0 -247 55t-183.5 157.5t-69.5 230.5z" />
<glyph unicode="V" horiz-adv-x="1277" d="M215 1434h162l201 -1258l632 1258h174l-745 -1434h-180z" />
<glyph unicode="W" horiz-adv-x="1873" d="M231 1434h158l51 -1213l572 1213h157l156 -1213l473 1213h162l-590 -1434h-151l-156 1245l-592 -1245h-152z" />
<glyph unicode="X" horiz-adv-x="1282" d="M-27 0l627 739l-344 695h156l286 -580l490 580h176l-600 -709l362 -725h-157l-303 610l-516 -610h-177z" />
<glyph unicode="Y" horiz-adv-x="1224" d="M188 1434h166l285 -748l532 748h183l-660 -902l-94 -532h-160l97 547z" />
<glyph unicode="Z" horiz-adv-x="1271" d="M47 0l25 131l997 1172h-762l25 131h938l-25 -131l-997 -1172h817l-23 -131h-995z" />
<glyph unicode="[" horiz-adv-x="741" d="M35 -274l332 1876h483l-23 -127h-327l-287 -1622h330l-23 -127h-485z" />
<glyph unicode="\" horiz-adv-x="946" d="M291 1536h141l268 -1751h-141z" />
<glyph unicode="]" horiz-adv-x="741" d="M-59 -274l22 127h328l287 1622h-330l22 127h486l-332 -1876h-483z" />
<glyph unicode="^" horiz-adv-x="1044" d="M186 864l422 570h133l224 -570h-146l-157 445l-316 -445h-160z" />
<glyph unicode="_" horiz-adv-x="1015" d="M-94 -242l14 74h1018l-12 -74h-1020z" />
<glyph unicode="`" horiz-adv-x="727" d="M311 1483h187l112 -291h-147z" />
<glyph unicode="a" horiz-adv-x="1179" d="M80 289q0 108 58 187.5t153.5 118t216.5 38.5q116 0 211.5 -44.5t142.5 -111.5l35 197q4 24 4 53q0 99 -62.5 162t-170.5 63q-200 0 -281 -159h-143q53 137 165 208.5t277 71.5q156 0 264.5 -96t108.5 -242q0 -31 -6 -61l-119 -674h-150l21 123q-37 -57 -137 -102.5 t-217 -45.5q-167 0 -269 88.5t-102 225.5zM225 291q0 -98 69 -155.5t198 -57.5q43 0 88.5 9t91 29t81.5 48t58.5 69.5t22.5 90.5q0 87 -93.5 146.5t-214.5 59.5q-134 0 -217.5 -60.5t-83.5 -178.5z" />
<glyph unicode="b" horiz-adv-x="1212" d="M74 0l264 1495h156l-105 -588q49 74 136 120t200 46q170 0 279.5 -116.5t109.5 -292.5q0 -45 -8 -95l-29 -166q-34 -194 -152 -311t-309 -117q-135 0 -229 64.5t-129 159.5l-37 -199h-147zM305 399q0 -129 83 -217t214 -88q132 0 214.5 86t107.5 236l26 153q8 54 8 86 q0 137 -77 218t-201 81q-129 0 -222 -92t-122 -258l-25 -139q-6 -41 -6 -66z" />
<glyph unicode="c" horiz-adv-x="1155" d="M98 385q0 49 8 90l29 164q36 211 155.5 322.5t327.5 111.5q116 0 212 -45t156 -136t61 -212h-136q-6 120 -88 195t-211 75q-267 0 -325 -323l-31 -174q-6 -40 -6 -72q0 -126 78 -204.5t213 -78.5q121 0 202 73.5t111 188.5h141q-35 -172 -157 -278.5t-306 -106.5 q-189 0 -311.5 115t-122.5 295z" />
<glyph unicode="d" horiz-adv-x="1212" d="M98 385q0 38 11 102l28 162q37 205 154.5 314.5t300.5 109.5q131 0 229 -70t127 -157l115 649h156l-265 -1495h-149l26 156q-36 -70 -130 -125.5t-209 -55.5q-181 0 -287.5 117t-106.5 293zM252 385q0 -133 74 -212t206 -79q135 0 225 97.5t117 240.5l25 135q6 34 6 70 q0 133 -84 225t-219 92q-127 0 -207 -84.5t-108 -242.5l-27 -150q-8 -47 -8 -92z" />
<glyph unicode="e" horiz-adv-x="1138" d="M100 391q0 43 9 96l26 152q35 201 157.5 317.5t325.5 116.5q188 0 301 -109.5t113 -285.5q0 -40 -8 -90l-20 -121h-750q-8 -58 -8 -92q0 -133 76.5 -210t212.5 -77q106 0 181 55.5t107 149.5h142q-39 -142 -156.5 -230t-284.5 -88q-104 0 -186 33.5t-133.5 91t-78 132 t-26.5 159.5zM274 578h607l4 24q6 44 6 80q0 128 -74.5 202t-204.5 74q-139 0 -221 -89t-108 -242z" />
<glyph unicode="f" horiz-adv-x="720" d="M147 0l164 926h-153l20 123h154l30 172q25 137 102 205.5t216 68.5h164l-23 -123h-114q-88 0 -132 -38.5t-59 -125.5l-29 -159h265l-21 -123h-264l-164 -926h-156z" />
<glyph unicode="g" horiz-adv-x="1214" d="M29 -111h151q35 -72 119 -111.5t195 -39.5q126 0 206.5 74t100.5 188l39 221q-38 -75 -128.5 -126.5t-199.5 -51.5q-181 0 -292 115.5t-111 292.5q0 39 8 86l22 125q75 411 457 411q130 0 228 -65.5t134 -151.5l35 193h148l-187 -1061q-29 -165 -158.5 -267t-308.5 -102 q-98 0 -190.5 30t-166.5 93t-101 147zM260 442q0 -129 77.5 -203.5t207.5 -74.5q134 0 224 88t116 225l20 113q6 30 6 59q0 127 -87.5 215t-215.5 88q-130 0 -211 -78.5t-106 -222.5l-23 -127q-8 -50 -8 -82z" />
<glyph unicode="h" horiz-adv-x="1200" d="M74 0l264 1495h154l-109 -608q56 88 149 137t209 49q148 0 242 -90t94 -238q0 -31 -8 -81l-117 -664h-155l114 649q7 44 7 70q0 106 -64 162.5t-170 56.5q-130 0 -226 -95t-124 -251l-105 -592h-155z" />
<glyph unicode="i" horiz-adv-x="507" d="M84 0l184 1049h156l-184 -1049h-156zM297 1317q0 44 29 73t77 29q39 0 66 -23t27 -61q0 -44 -30.5 -74t-80.5 -30q-36 0 -62 24.5t-26 61.5z" />
<glyph unicode="j" horiz-adv-x="507" d="M-166 -356l21 123h55q134 0 153 116l205 1166h156l-207 -1178q-42 -227 -268 -227h-115zM297 1317q0 44 29 73t77 29q39 0 66 -23t27 -61q0 -44 -30.5 -74t-80.5 -30q-36 0 -62 24.5t-26 61.5z" />
<glyph unicode="k" horiz-adv-x="1040" d="M74 0l264 1495h156l-166 -936l522 490h199l-566 -521l410 -528h-180l-391 526l-93 -526h-155z" />
<glyph unicode="l" horiz-adv-x="507" d="M84 0l264 1495h156l-264 -1495h-156z" />
<glyph unicode="m" horiz-adv-x="1902" d="M74 0l184 1049h148l-33 -179q53 96 146.5 149.5t211.5 53.5q116 0 200 -54.5t116 -152.5q132 207 397 207q148 0 242 -90t94 -238q0 -35 -8 -81l-117 -664h-156l115 649q6 37 6 70q0 106 -64 162.5t-170 56.5q-131 0 -220.5 -91t-118.5 -255l-105 -592h-156l115 649 q6 38 6 70q0 106 -63.5 162.5t-169.5 56.5q-128 0 -220 -93t-120 -253l-105 -592h-155z" />
<glyph unicode="n" horiz-adv-x="1200" d="M74 0l184 1049h148l-33 -179q54 96 150.5 149.5t217.5 53.5q148 0 242 -90t94 -238q0 -31 -8 -81l-117 -664h-155l114 649q7 44 7 70q0 106 -64 162.5t-170 56.5q-130 0 -226 -95t-124 -251l-105 -592h-155z" />
<glyph unicode="o" horiz-adv-x="1159" d="M98 391q0 54 8 98l27 152q38 214 163.5 323t324.5 109q196 0 317 -117.5t121 -302.5q0 -34 -8 -92l-27 -155q-34 -199 -161 -315t-322 -116q-203 0 -323 114.5t-120 301.5zM246 379q0 -135 82.5 -210t214.5 -75q136 0 219.5 84.5t109.5 229.5l31 174q8 40 8 77 q0 131 -81 213t-214 82q-274 0 -333 -327l-29 -162q-8 -58 -8 -86z" />
<glyph unicode="p" horiz-adv-x="1210" d="M10 -356l248 1405h150l-27 -156q36 70 130.5 125t209.5 55q179 0 285 -113.5t106 -289.5q0 -54 -8 -101l-29 -161q-37 -207 -154.5 -320t-299.5 -113q-132 0 -231 70t-126 158l-98 -559h-156zM307 410q0 -133 84 -224.5t219 -91.5q128 0 208 83.5t108 240.5l26 153 q9 46 9 91q0 134 -74 213t-207 79q-91 0 -165 -48t-117.5 -123t-59.5 -167l-25 -139q-6 -35 -6 -67z" />
<glyph unicode="q" horiz-adv-x="1212" d="M100 389q0 43 9 98l28 162q34 199 153 311.5t306 112.5q135 0 229 -64t129 -159l37 199h148l-248 -1405h-156l88 497q-49 -74 -136 -120t-200 -46q-172 0 -279.5 118t-107.5 296zM252 383q0 -137 74.5 -213t205.5 -76q129 0 222.5 92t122.5 258l24 140q6 35 6 65 q0 129 -83 217t-214 88q-132 0 -214 -83t-107 -232l-27 -154q-10 -65 -10 -102z" />
<glyph unicode="r" horiz-adv-x="720" d="M74 0l184 1049h148l-39 -230q56 125 141.5 180.5t228.5 55.5h27l-27 -152h-35q-145 0 -247.5 -100t-135.5 -289l-90 -514h-155z" />
<glyph unicode="s" horiz-adv-x="1058" d="M74 256q0 27 4 47l2 10h135l-2 -12q-3 -17 -3 -33q0 -76 66 -124q80 -58 220 -58q132 0 206 58t74 155q0 106 -119 137l-268 68q-102 26 -158.5 90t-56.5 149q0 163 107 246.5t301 83.5q72 0 140 -17t125 -49.5t91.5 -88t34.5 -125.5q0 -26 -4 -50l-2 -12h-136l3 12 q3 17 3 32q1 49 -29 89q-38 52 -101 75.5t-134 23.5q-116 0 -183.5 -51t-67.5 -148q0 -112 122 -143l273 -72q96 -26 151.5 -85.5t55.5 -148.5q0 -156 -123 -248t-320 -92q-171 0 -289 79t-118 202z" />
<glyph unicode="t" horiz-adv-x="757" d="M139 926l23 123h176l53 297h156l-53 -297h268l-21 -123h-268l-115 -647q-4 -24 -4 -41q0 -113 146 -113h94l-23 -125h-122q-115 0 -183.5 57.5t-68.5 161.5q0 30 6 60l114 647h-178z" />
<glyph unicode="u" horiz-adv-x="1189" d="M125 307q0 46 8 90l115 652h155l-114 -654q-8 -54 -8 -76q0 -106 62 -161.5t173 -55.5q129 0 219.5 96t120.5 259l105 592h155l-184 -1049h-148l33 178q-45 -90 -141 -146.5t-215 -56.5q-145 0 -240.5 89.5t-95.5 242.5z" />
<glyph unicode="v" horiz-adv-x="1050" d="M158 1049h151l156 -887l453 887h157l-557 -1049h-160z" />
<glyph unicode="w" horiz-adv-x="1552" d="M162 1049h149l70 -859l410 859h145l123 -859l362 859h154l-471 -1049h-143l-119 872l-430 -872h-144z" />
<glyph unicode="x" horiz-adv-x="1044" d="M-18 0l467 539l-263 510h152l205 -402l346 402h170l-451 -523l273 -526h-154l-215 418l-358 -418h-172z" />
<glyph unicode="y" horiz-adv-x="1052" d="M158 1049h153l162 -887l440 887h162l-557 -1051l-192 -354h-154l197 366z" />
<glyph unicode="z" horiz-adv-x="1021" d="M31 0l18 113l754 817h-586l21 119h761l-20 -113l-754 -817h621l-21 -119h-794z" />
<glyph unicode="{" horiz-adv-x="880" d="M88 600l25 127h67q101 0 153 47.5t70 143.5l70 393q28 156 108.5 223.5t245.5 67.5h158l-20 -127h-125q-107 0 -153 -44.5t-62 -140.5l-68 -387q-38 -209 -240 -248q158 -43 158 -186q0 -27 -4 -51l-65 -371q-7 -40 -7 -59q0 -68 39.5 -101.5t126.5 -33.5h113l-23 -127 h-127q-134 0 -209 68.5t-75 185.5q0 32 6 67l63 361q4 20 4 49q0 70 -42 106.5t-125 36.5h-62z" />
<glyph unicode="|" horiz-adv-x="622" d="M100 -307l342 1945h131l-344 -1945h-129z" />
<glyph unicode="}" horiz-adv-x="880" d="M-49 -274l20 127h125q107 0 153 44t62 140l68 387q22 121 77 177.5t162 70.5q-157 42 -157 186q0 27 4 51l65 371q7 40 7 59q0 69 -40 102.5t-126 33.5h-113l23 127h127q134 0 209 -68.5t75 -185.5q0 -34 -6 -68l-63 -360q-5 -25 -5 -50q0 -69 42.5 -106t125.5 -37h62 l-25 -127h-67q-101 0 -153.5 -47t-70.5 -143l-69 -394q-28 -156 -108.5 -223t-245.5 -67h-158z" />
<glyph unicode="~" horiz-adv-x="1220" d="M133 610q37 139 102.5 214t178.5 75q59 0 153 -46.5t179.5 -93t123.5 -46.5q22 0 40.5 9t30 19t24.5 34t18.5 37t18 46t16.5 43l121 -45q-21 -64 -40 -106.5t-49 -86.5t-73 -66t-98 -22q-42 0 -107.5 29t-122.5 64.5t-122 64.5t-107 29q-37 0 -63.5 -13t-45 -41.5 t-29 -55.5t-24.5 -74z" />
<glyph unicode="&#xa1;" horiz-adv-x="534" d="M94 0l96 549l127 514h89l-56 -524l-94 -539h-162zM303 1333q0 47 34 80t83 33q40 0 67 -26t27 -66q0 -47 -33.5 -78t-85.5 -31q-41 0 -66.5 25.5t-25.5 62.5z" />
<glyph unicode="&#xa2;" horiz-adv-x="1169" d="M154 596q0 36 6 76l24 141q33 194 151.5 301t295.5 115l35 205h155l-39 -220q125 -31 203.5 -117.5t91.5 -213.5h-143q-13 98 -90.5 159.5t-186.5 61.5q-130 0 -212.5 -78t-108.5 -223l-25 -139q-6 -34 -6 -66q0 -115 74.5 -191.5t191.5 -76.5q118 0 198 63.5t110 157.5 h143q-40 -143 -150 -238.5t-268 -107.5l-35 -205h-155l37 217q-136 32 -216.5 136t-80.5 243z" />
<glyph unicode="&#xa3;" horiz-adv-x="1353" d="M61 0l21 123h246l90 500h-217l18 120h219l56 314q35 204 150 304.5t314 100.5q157 0 265 -89.5t108 -231.5q0 -31 -6 -66l-6 -33h-143l6 35q4 32 4 49q0 96 -67.5 152.5t-172.5 56.5q-130 0 -201 -67.5t-96 -210.5l-55 -314h432l-18 -120h-437l-88 -500h604l-18 -123 h-1008z" />
<glyph unicode="&#xa4;" horiz-adv-x="1218" d="M90 193l215 256q-51 76 -51 174q0 31 6 65l23 123q26 138 108 211l-110 231h151l74 -157q65 30 168 30q107 0 198 -59l136 162h157l-207 -250q52 -74 52 -172q0 -29 -6 -64l-21 -114q-24 -134 -109 -219l115 -234h-151l-76 160q-73 -33 -176 -33q-108 0 -193 57 l-141 -167h-162zM383 627q0 -96 59.5 -154.5t163.5 -58.5q101 0 164.5 55t81.5 149l25 138q4 32 4 47q0 92 -61 152.5t-163 60.5q-98 0 -162.5 -51t-82.5 -154l-23 -125q-6 -35 -6 -59z" />
<glyph unicode="&#xa5;" horiz-adv-x="1216" d="M147 350l21 113h354l19 106l-43 148h-285l20 114h230l-174 603h160l192 -715l436 715h166l-385 -603h240l-21 -114h-291l-94 -148l-18 -106h358l-20 -113h-359l-61 -350h-152l62 350h-355z" />
<glyph unicode="&#xa6;" horiz-adv-x="622" d="M98 -307l140 784h131l-140 -784h-131zM303 856l139 782h131l-139 -782h-131z" />
<glyph unicode="&#xa7;" horiz-adv-x="1245" d="M123 37q0 27 4 51l2 12h135l-2 -12q-4 -28 -4 -41q0 -96 77 -146.5t195 -50.5q111 0 189 66.5t78 163.5q0 116 -115 162l-320 125q-92 35 -139 102t-47 158q0 112 60 193t147 130q-45 61 -45 150q0 170 117 266t309 96q97 0 182.5 -32.5t144 -102t58.5 -162.5 q0 -21 -4 -53l-2 -12h-135l2 12q18 109 -59.5 173.5t-198.5 64.5q-114 0 -192.5 -62t-78.5 -172q0 -60 28 -96.5t89 -61.5l295 -116q209 -83 209 -269q0 -178 -193 -342q33 -58 33 -127q0 -159 -123.5 -262.5t-304.5 -103.5q-103 0 -191 34.5t-144 103.5t-56 161zM319 647 q0 -118 117 -166l291 -116q68 -28 107 -56q124 117 124 244q0 122 -133 174l-272 109q-42 15 -92 45q-142 -97 -142 -234z" />
<glyph unicode="&#xa8;" horiz-adv-x="944" d="M297 1329q0 43 29 70.5t75 27.5q40 0 66.5 -24.5t26.5 -61.5q0 -43 -30 -72.5t-77 -29.5q-39 0 -64.5 26.5t-25.5 63.5zM707 1329q0 43 29 70.5t75 27.5q40 0 66 -24.5t26 -61.5q0 -43 -29.5 -72.5t-76.5 -29.5q-39 0 -64.5 26.5t-25.5 63.5z" />
<glyph unicode="&#xa9;" horiz-adv-x="1765" d="M143 717q0 150 53 285t148 236t235 160.5t304 59.5t304 -59.5t234.5 -160.5t147.5 -236t53 -285t-53 -285t-147.5 -236.5t-234.5 -161t-304 -59.5t-304 59.5t-235 161t-148 236.5t-53 285zM203 717q0 -139 47.5 -263.5t133.5 -219t215.5 -150t283.5 -55.5t283.5 55.5 t215.5 150t133.5 219t47.5 263.5t-47.5 263.5t-133.5 219t-215.5 150t-283.5 55.5t-283.5 -55.5t-215.5 -150t-133.5 -219t-47.5 -263.5zM584 657v119q0 134 78 224t221 90q120 0 197.5 -72t86.5 -176h-92q-10 74 -58 120t-134 46q-102 0 -153.5 -63.5t-51.5 -168.5v-119 q0 -105 51.5 -168t153.5 -63q86 0 134 46t58 120h92q-9 -104 -86.5 -176t-197.5 -72q-143 0 -221 89.5t-78 223.5z" />
<glyph unicode="&#xaa;" horiz-adv-x="868" d="M139 537l17 92h596l-17 -92h-596zM215 956q0 112 78.5 169t191.5 57q137 0 222 -92l20 118q12 70 -28 115t-111 45q-116 0 -170 -100h-99q74 184 275 184q106 0 180.5 -70.5t56.5 -173.5l-75 -432h-101l15 78q-28 -39 -88 -66.5t-129 -27.5q-110 0 -174 55t-64 141z M315 961q0 -54 44.5 -90.5t113.5 -36.5q83 0 149 39.5t66 109.5q0 57 -56.5 92t-137.5 35q-75 0 -127 -38t-52 -111z" />
<glyph unicode="&#xab;" horiz-adv-x="1255" d="M78 559l422 432h184l-426 -448l272 -420h-176zM616 559l422 432h185l-426 -448l272 -420h-176z" />
<glyph unicode="&#xac;" horiz-adv-x="1187" d="M137 676l21 123h913l-94 -541h-139l73 418h-774z" />
<glyph unicode="&#xad;" horiz-adv-x="845" d="M125 571l25 136h571l-25 -136h-571z" />
<glyph unicode="&#xae;" horiz-adv-x="1159" d="M211 1024q0 116 52.5 214t155.5 159t236 61q101 0 185.5 -35.5t141 -95.5t87.5 -138.5t31 -164.5t-31 -164.5t-87.5 -138.5t-141 -95.5t-185.5 -35.5q-133 0 -236 61t-155.5 159t-52.5 214zM258 1024q0 -167 109 -280t288 -113t288.5 113t109.5 280t-109.5 280 t-288.5 113t-288 -113t-109 -280zM518 844v391h180q62 0 97.5 -37t35.5 -92q0 -40 -22.5 -73t-60.5 -48l81 -141h-73l-72 133h-102v-133h-64zM582 1030h96q90 0 90 76q0 36 -22.5 57t-67.5 21h-96v-154z" />
<glyph unicode="&#xaf;" horiz-adv-x="993" d="M305 1264l21 116h620l-20 -116h-621z" />
<glyph unicode="&#xb0;" horiz-adv-x="892" d="M242 1128q0 141 88.5 233.5t236.5 92.5q116 0 196.5 -79.5t80.5 -196.5q0 -86 -37 -160t-113 -122t-176 -48q-117 0 -196.5 81.5t-79.5 198.5zM324 1128q0 -90 55.5 -148t146.5 -58q108 0 172 72.5t64 176.5q0 86 -55.5 147.5t-145.5 61.5q-110 0 -173.5 -69.5 t-63.5 -182.5z" />
<glyph unicode="&#xb1;" horiz-adv-x="1261" d="M82 0l20 123h914l-21 -123h-913zM205 698l20 123h387l70 396h139l-69 -396h387l-21 -123h-387l-69 -395h-140l70 395h-387z" />
<glyph unicode="&#xb2;" horiz-adv-x="849" d="M219 952l14 88l408 330q47 37 70.5 71t23.5 75q0 52 -39 84t-104 32q-142 0 -162 -129l-2 -12h-109l3 12q39 228 280 228q108 0 180 -58t72 -145q0 -72 -37.5 -126.5t-111.5 -111.5l-320 -241h385l-16 -97h-535z" />
<glyph unicode="&#xb3;" horiz-adv-x="856" d="M240 1167h100q0 -66 46 -103.5t118 -37.5q82 0 131 42.5t49 105.5q0 62 -46.5 98.5t-131.5 36.5h-78l14 84l248 231h-321l16 90h467l-16 -90l-261 -238q99 -6 161.5 -59.5t62.5 -138.5q0 -108 -87.5 -179t-211.5 -71q-113 0 -188.5 61.5t-71.5 167.5z" />
<glyph unicode="&#xb4;" horiz-adv-x="727" d="M317 1192l205 291h205l-254 -291h-156z" />
<glyph unicode="&#xb5;" horiz-adv-x="1200" d="M10 -356l248 1405h156l-115 -654q-8 -40 -8 -76q0 -110 61.5 -163.5t173.5 -53.5q129 0 219.5 96t120.5 259l105 592h155l-184 -1049h-147l32 178q-45 -90 -141 -146.5t-215 -56.5q-69 0 -132.5 27.5t-98.5 71.5l-74 -430h-156z" />
<glyph unicode="&#xb6;" horiz-adv-x="1175" d="M162 838q0 284 161 440t472 156h344l-316 -1790h-108l299 1695h-236l-166 -946q-200 0 -325 123.5t-125 321.5z" />
<glyph unicode="&#xb7;" horiz-adv-x="485" d="M150 586q0 47 33 77.5t85 30.5q41 0 66.5 -25.5t25.5 -62.5q0 -47 -33.5 -79.5t-82.5 -32.5q-40 0 -67 26t-27 66z" />
<glyph unicode="&#xb8;" horiz-adv-x="714" d="M90 -369l10 88q46 -10 105 -10q110 0 110 58q0 24 -21.5 35t-64.5 16l-96 10l55 172h97l-27 -94l41 -4q57 -5 96 -37.5t39 -91.5q0 -70 -58.5 -112t-154.5 -42q-75 0 -131 12z" />
<glyph unicode="&#xb9;" horiz-adv-x="622" d="M258 1524l21 108l208 82h99l-133 -762h-119l112 641z" />
<glyph unicode="&#xba;" horiz-adv-x="901" d="M168 537l16 92h568l-17 -92h-567zM240 1036q0 10 6 58l14 82q24 133 103 204.5t212 71.5q127 0 208 -77t81 -197q0 -26 -6 -62l-12 -69q-22 -128 -107 -207.5t-213 -79.5q-127 0 -206.5 76t-79.5 200zM342 1036q0 -88 50.5 -140t137.5 -52t142 57.5t73 155.5l13 71 q4 24 4 46q0 85 -52 139.5t-137 54.5q-89 0 -142 -53.5t-71 -151.5l-12 -69q-6 -36 -6 -58z" />
<glyph unicode="&#xbb;" horiz-adv-x="1255" d="M53 123l426 448l-272 420h176l276 -436l-421 -432h-185zM592 123l426 448l-273 420h177l276 -436l-422 -432h-184z" />
<glyph unicode="&#xbc;" horiz-adv-x="1630" d="M242 0l993 1434h127l-993 -1434h-127zM264 1243l21 109l209 82h98l-133 -762h-119l113 641zM827 172l15 82l346 508h110l-337 -504h274l31 168h106l-31 -168h105l-16 -86h-103l-31 -172h-106l31 172h-394z" />
<glyph unicode="&#xbd;" horiz-adv-x="1669" d="M242 0l993 1434h127l-993 -1434h-127zM264 1243l21 109l209 82h98l-133 -762h-119l113 641zM891 0l14 88l408 330q47 37 70.5 70.5t23.5 74.5q0 53 -39.5 85t-103.5 32q-142 0 -162 -129l-2 -12h-109l2 12q39 227 281 227q108 0 180 -58t72 -145q0 -72 -37.5 -125.5 t-112.5 -111.5l-319 -242h385l-17 -96h-534z" />
<glyph unicode="&#xbe;" horiz-adv-x="1765" d="M215 887h100q0 -66 46 -104t118 -38q82 0 131 42.5t49 105.5q0 62 -46.5 98.5t-131.5 36.5h-78l15 84l248 231h-322l16 91h467l-16 -91l-260 -237q98 -6 160.5 -60t62.5 -139q0 -108 -87.5 -179t-211.5 -71q-113 0 -188.5 62t-71.5 168zM377 0l993 1434h127l-993 -1434 h-127zM963 172l14 82l346 508h111l-338 -504h274l31 168h106l-30 -168h104l-16 -86h-103l-30 -172h-107l31 172h-393z" />
<glyph unicode="&#xbf;" horiz-adv-x="1036" d="M68 291q0 102 55 181.5t156 148.5l129 88q85 58 122.5 118t57.5 177l12 71h141l-18 -106q-24 -132 -71 -207t-130 -133l-114 -80q-41 -29 -66.5 -50t-56.5 -53.5t-46.5 -69t-15.5 -77.5q0 -90 72 -146.5t178 -56.5q128 0 196 61.5t91 182.5l6 33h147l-6 -35 q-33 -189 -144.5 -278t-305.5 -89q-161 0 -275 91.5t-114 228.5zM600 1333q0 47 34 80t83 33q40 0 67 -26t27 -66q0 -47 -33.5 -78t-85.5 -31q-41 0 -66.5 25.5t-25.5 62.5z" />
<glyph unicode="&#xc0;" horiz-adv-x="1372" d="M-12 0l776 1434h162l276 -1434h-153l-66 375h-631l-192 -375h-172zM418 504h543l-136 790zM625 1815h178l104 -259h-145z" />
<glyph unicode="&#xc1;" horiz-adv-x="1372" d="M-12 0l776 1434h162l276 -1434h-153l-66 375h-631l-192 -375h-172zM418 504h543l-136 790zM799 1556l186 259h193l-224 -259h-155z" />
<glyph unicode="&#xc2;" horiz-adv-x="1372" d="M-12 0l776 1434h162l276 -1434h-153l-66 375h-631l-192 -375h-172zM418 504h543l-136 790zM537 1556l276 259h152l188 -259h-145l-125 170l-187 -170h-159z" />
<glyph unicode="&#xc3;" horiz-adv-x="1372" d="M-12 0l776 1434h162l276 -1434h-153l-66 375h-631l-192 -375h-172zM418 504h543l-136 790zM485 1591q66 215 234 215q57 0 123 -32t122 -63.5t89 -31.5q15 0 28 3.5t24 13t18 16.5t15.5 23.5t12.5 24.5t12 28.5t11 26.5l94 -37q-15 -43 -30 -73.5t-40 -66t-60 -54.5 t-79 -19q-41 0 -90 20t-86.5 43.5t-82.5 43.5t-79 20q-51 0 -82 -34t-57 -102z" />
<glyph unicode="&#xc4;" horiz-adv-x="1372" d="M-12 0l776 1434h162l276 -1434h-153l-66 375h-631l-192 -375h-172zM418 504h543l-136 790zM565 1692q0 43 29.5 70.5t75.5 27.5q40 0 66 -24.5t26 -61.5q0 -43 -30 -72.5t-77 -29.5q-39 0 -64.5 26.5t-25.5 63.5zM1020 1692q0 43 29 70.5t75 27.5q40 0 66.5 -24.5 t26.5 -61.5q0 -43 -30 -72.5t-77 -29.5q-39 0 -64.5 26.5t-25.5 63.5z" />
<glyph unicode="&#xc5;" horiz-adv-x="1372" d="M-12 0l753 1393q-63 47 -63 129q0 81 54 130.5t140 49.5q76 0 127.5 -45t51.5 -117q0 -56 -30.5 -101t-82.5 -67l264 -1372h-153l-66 375h-631l-192 -375h-172zM418 504h543l-136 790zM764 1522q0 -40 25 -64t73 -24t75.5 30.5t27.5 73.5q0 40 -24.5 65t-70.5 25 q-49 0 -77.5 -29t-28.5 -77z" />
<glyph unicode="&#xc6;" horiz-adv-x="2127" d="M-74 0l1227 1434h1008l-23 -134h-774l-88 -505h713l-23 -133h-715l-92 -529h776l-24 -133h-934l65 375h-616l-315 -375h-185zM535 504h530l139 794z" />
<glyph unicode="&#xc7;" horiz-adv-x="1421" d="M143 512q0 59 13 139l39 219q52 294 201.5 443t412.5 149q228 0 377 -131.5t164 -369.5h-150q-14 171 -117.5 269.5t-279.5 98.5q-192 0 -302 -115.5t-151 -343.5l-41 -229q-14 -86 -14 -141q0 -184 99.5 -290t289.5 -106q91 0 167 30t128 82.5t86.5 117t52.5 139.5h150 q-41 -217 -200 -359.5t-388 -142.5h-18l-19 -65l41 -4q57 -5 96 -37.5t39 -91.5q0 -70 -58.5 -112t-154.5 -42q-76 0 -131 12l10 88q46 -10 105 -10q110 0 110 58q0 24 -21.5 35t-64.5 16l-96 10l49 154q-200 32 -312 174t-112 356z" />
<glyph unicode="&#xc8;" horiz-adv-x="1245" d="M94 0l252 1434h932l-23 -134h-774l-88 -505h713l-23 -133h-714l-93 -529h777l-25 -133h-934zM614 1815h179l104 -259h-145z" />
<glyph unicode="&#xc9;" horiz-adv-x="1245" d="M94 0l252 1434h932l-23 -134h-774l-88 -505h713l-23 -133h-714l-93 -529h777l-25 -133h-934zM721 1556l186 259h193l-223 -259h-156z" />
<glyph unicode="&#xca;" horiz-adv-x="1245" d="M94 0l252 1434h932l-23 -134h-774l-88 -505h713l-23 -133h-714l-93 -529h777l-25 -133h-934zM514 1556l277 259h151l188 -259h-145l-125 170l-186 -170h-160z" />
<glyph unicode="&#xcb;" horiz-adv-x="1245" d="M94 0l252 1434h932l-23 -134h-774l-88 -505h713l-23 -133h-714l-93 -529h777l-25 -133h-934zM530 1692q0 43 29.5 70.5t75.5 27.5q40 0 66 -24.5t26 -61.5q0 -43 -29.5 -72.5t-76.5 -29.5q-39 0 -65 26.5t-26 63.5zM985 1692q0 43 29.5 70.5t75.5 27.5q40 0 66 -24.5 t26 -61.5q0 -43 -30 -72.5t-77 -29.5q-39 0 -64.5 26.5t-25.5 63.5z" />
<glyph unicode="&#xcc;" horiz-adv-x="552" d="M104 0l252 1434h160l-252 -1434h-160zM227 1815h179l104 -259h-145z" />
<glyph unicode="&#xcd;" horiz-adv-x="552" d="M104 0l252 1434h160l-252 -1434h-160zM387 1556l186 259h193l-223 -259h-156z" />
<glyph unicode="&#xce;" horiz-adv-x="552" d="M104 0l252 1434h160l-252 -1434h-160zM141 1556l277 259h151l189 -259h-146l-125 170l-186 -170h-160z" />
<glyph unicode="&#xcf;" horiz-adv-x="552" d="M104 0l252 1434h160l-252 -1434h-160zM156 1692q0 43 29 70.5t75 27.5q40 0 66 -24.5t26 -61.5q0 -43 -29.5 -72.5t-76.5 -29.5q-39 0 -64.5 26.5t-25.5 63.5zM610 1692q0 43 29.5 70.5t75.5 27.5q40 0 66 -24.5t26 -61.5q0 -43 -30 -72.5t-77 -29.5q-39 0 -64.5 26.5 t-25.5 63.5z" />
<glyph unicode="&#xd0;" horiz-adv-x="1486" d="M100 651l23 131h176l115 652h534q216 0 342.5 -122t126.5 -323q0 -57 -10 -119l-61 -348q-44 -256 -196 -389t-435 -133h-553l114 651h-176zM342 131h363q212 0 329.5 93t153.5 298l61 348q11 61 11 107q0 155 -90.5 240.5t-258.5 85.5h-362l-92 -521h370l-22 -131h-371z " />
<glyph unicode="&#xd1;" horiz-adv-x="1458" d="M94 0l252 1434h150l571 -1192l209 1192h156l-252 -1434h-150l-571 1184l-209 -1184h-156zM530 1591q66 215 234 215q57 0 123 -32t122 -63.5t89 -31.5q15 0 28 3.5t24 13t18 16.5t15.5 23.5t12.5 24.5t12 28.5t11 26.5l94 -37q-15 -43 -30 -73.5t-40 -66t-60 -54.5 t-79 -19q-41 0 -90 20t-86.5 43.5t-82.5 43.5t-79 20q-51 0 -82 -34t-57 -102z" />
<glyph unicode="&#xd2;" d="M143 530q0 61 13 134l37 208q51 285 207.5 437.5t424.5 152.5q167 0 293.5 -72t192 -196.5t65.5 -282.5q0 -57 -12 -131l-37 -213q-22 -128 -73 -235.5t-129 -188.5t-188 -126.5t-241 -45.5q-167 0 -294 73.5t-193 199.5t-66 286zM299 528q0 -191 105.5 -307.5 t300.5 -116.5q189 0 309 128t157 337l41 234q11 57 11 108q0 185 -109 301.5t-297 116.5q-200 0 -315.5 -120t-153.5 -339l-39 -219q-10 -54 -10 -123zM672 1815h178l104 -259h-145z" />
<glyph unicode="&#xd3;" d="M143 530q0 61 13 134l37 208q51 285 207.5 437.5t424.5 152.5q167 0 293.5 -72t192 -196.5t65.5 -282.5q0 -57 -12 -131l-37 -213q-22 -128 -73 -235.5t-129 -188.5t-188 -126.5t-241 -45.5q-167 0 -294 73.5t-193 199.5t-66 286zM299 528q0 -191 105.5 -307.5 t300.5 -116.5q189 0 309 128t157 337l41 234q11 57 11 108q0 185 -109 301.5t-297 116.5q-200 0 -315.5 -120t-153.5 -339l-39 -219q-10 -54 -10 -123zM827 1556l187 259h192l-223 -259h-156z" />
<glyph unicode="&#xd4;" d="M143 530q0 61 13 134l37 208q51 285 207.5 437.5t424.5 152.5q167 0 293.5 -72t192 -196.5t65.5 -282.5q0 -57 -12 -131l-37 -213q-22 -128 -73 -235.5t-129 -188.5t-188 -126.5t-241 -45.5q-167 0 -294 73.5t-193 199.5t-66 286zM299 528q0 -191 105.5 -307.5 t300.5 -116.5q189 0 309 128t157 337l41 234q11 57 11 108q0 185 -109 301.5t-297 116.5q-200 0 -315.5 -120t-153.5 -339l-39 -219q-10 -54 -10 -123zM586 1554l276 258h152l188 -258h-145l-125 170l-187 -170h-159z" />
<glyph unicode="&#xd5;" d="M143 530q0 61 13 134l37 208q51 285 207.5 437.5t424.5 152.5q167 0 293.5 -72t192 -196.5t65.5 -282.5q0 -57 -12 -131l-37 -213q-22 -128 -73 -235.5t-129 -188.5t-188 -126.5t-241 -45.5q-167 0 -294 73.5t-193 199.5t-66 286zM299 528q0 -191 105.5 -307.5 t300.5 -116.5q189 0 309 128t157 337l41 234q11 57 11 108q0 185 -109 301.5t-297 116.5q-200 0 -315.5 -120t-153.5 -339l-39 -219q-10 -54 -10 -123zM524 1591q66 215 234 215q57 0 123 -32t122 -63.5t89 -31.5q18 0 33 7t24.5 13.5t20.5 25t15 26t14.5 33.5t12.5 31 l95 -37q-15 -43 -30 -73.5t-40 -66t-60 -54.5t-79 -19q-41 0 -90 20t-86.5 43.5t-82.5 43.5t-79 20q-51 0 -82 -34t-57 -102z" />
<glyph unicode="&#xd6;" d="M143 530q0 61 13 134l37 208q51 285 207.5 437.5t424.5 152.5q167 0 293.5 -72t192 -196.5t65.5 -282.5q0 -57 -12 -131l-37 -213q-22 -128 -73 -235.5t-129 -188.5t-188 -126.5t-241 -45.5q-167 0 -294 73.5t-193 199.5t-66 286zM299 528q0 -191 105.5 -307.5 t300.5 -116.5q189 0 309 128t157 337l41 234q11 57 11 108q0 185 -109 301.5t-297 116.5q-200 0 -315.5 -120t-153.5 -339l-39 -219q-10 -54 -10 -123zM592 1692q0 43 29 70.5t75 27.5q40 0 66 -24.5t26 -61.5q0 -43 -29.5 -72.5t-76.5 -29.5q-39 0 -64.5 26.5t-25.5 63.5z M1047 1692q0 43 29 70.5t75 27.5q40 0 66 -24.5t26 -61.5q0 -43 -29.5 -72.5t-76.5 -29.5q-39 0 -64.5 26.5t-25.5 63.5z" />
<glyph unicode="&#xd7;" horiz-adv-x="1175" d="M139 406l393 335l-270 330l107 90l270 -330l389 330l84 -102l-387 -330l279 -340l-107 -90l-281 340l-393 -336z" />
<glyph unicode="&#xd8;" d="M20 -102l232 280q-109 146 -109 352q0 61 13 134l37 208q51 285 207.5 437.5t424.5 152.5q228 0 375 -131l170 205h129l-229 -279q106 -142 106 -346q0 -57 -12 -131l-37 -213q-22 -128 -73 -235.5t-129 -188.5t-188 -126.5t-241 -45.5q-227 0 -377 131l-167 -204h-132z M299 528q0 -135 51 -231l758 922q-110 110 -291 110q-200 0 -315.5 -120t-153.5 -339l-39 -219q-10 -54 -10 -123zM410 213q106 -109 295 -109t309 128t157 337l41 234q11 57 11 108q0 127 -54 224z" />
<glyph unicode="&#xd9;" horiz-adv-x="1441" d="M162 414q0 40 8 84l164 936h160l-166 -947q-6 -37 -6 -73q0 -143 99.5 -226.5t252.5 -83.5q171 0 283.5 100.5t142.5 272.5l168 957h159l-167 -959q-40 -231 -198 -367.5t-400 -136.5q-133 0 -247 55t-183.5 157.5t-69.5 230.5zM700 1815h179l104 -259h-145z" />
<glyph unicode="&#xda;" horiz-adv-x="1441" d="M162 414q0 40 8 84l164 936h160l-166 -947q-6 -37 -6 -73q0 -143 99.5 -226.5t252.5 -83.5q171 0 283.5 100.5t142.5 272.5l168 957h159l-167 -959q-40 -231 -198 -367.5t-400 -136.5q-133 0 -247 55t-183.5 157.5t-69.5 230.5zM768 1556l186 259h193l-223 -259h-156z " />
<glyph unicode="&#xdb;" horiz-adv-x="1441" d="M162 414q0 40 8 84l164 936h160l-166 -947q-6 -37 -6 -73q0 -143 99.5 -226.5t252.5 -83.5q171 0 283.5 100.5t142.5 272.5l168 957h159l-167 -959q-40 -231 -198 -367.5t-400 -136.5q-133 0 -247 55t-183.5 157.5t-69.5 230.5zM586 1556l276 259h152l188 -259h-145 l-125 170l-187 -170h-159z" />
<glyph unicode="&#xdc;" horiz-adv-x="1441" d="M162 414q0 40 8 84l164 936h160l-166 -947q-6 -37 -6 -73q0 -143 99.5 -226.5t252.5 -83.5q171 0 283.5 100.5t142.5 272.5l168 957h159l-167 -959q-40 -231 -198 -367.5t-400 -136.5q-133 0 -247 55t-183.5 157.5t-69.5 230.5zM596 1692q0 43 29 70.5t75 27.5 q40 0 66.5 -24.5t26.5 -61.5q0 -43 -30 -72.5t-77 -29.5q-39 0 -64.5 26.5t-25.5 63.5zM1051 1692q0 43 29 70.5t75 27.5q40 0 66 -24.5t26 -61.5q0 -43 -29.5 -72.5t-76.5 -29.5q-39 0 -64.5 26.5t-25.5 63.5z" />
<glyph unicode="&#xdd;" horiz-adv-x="1224" d="M188 1434h166l285 -748l532 748h183l-660 -902l-94 -532h-160l97 547zM684 1556l186 259h193l-223 -259h-156z" />
<glyph unicode="&#xde;" horiz-adv-x="1290" d="M94 0l252 1434h160l-43 -240h373q183 0 297 -118.5t114 -287.5q0 -220 -155.5 -364.5t-411.5 -144.5h-377l-49 -279h-160zM326 412h362q179 0 288 102.5t109 259.5q0 120 -75.5 203.5t-208.5 83.5h-361z" />
<glyph unicode="&#xdf;" horiz-adv-x="1216" d="M74 0l196 1112q69 391 469 391q174 0 293 -101t119 -259q0 -145 -89.5 -246.5t-223.5 -148.5q113 -23 191.5 -112t78.5 -212q0 -187 -138.5 -305.5t-367.5 -118.5h-90l20 123h68q164 0 259 82.5t95 212.5q0 121 -87.5 192.5t-209.5 71.5h-24l20 127q146 10 243 101 t97 216q0 110 -75.5 181t-194.5 71q-120 0 -197.5 -65.5t-101.5 -202.5l-195 -1110h-155z" />
<glyph unicode="&#xe0;" horiz-adv-x="1179" d="M80 289q0 108 58 187.5t153.5 118t216.5 38.5q116 0 211.5 -44.5t142.5 -111.5l35 197q4 24 4 53q0 99 -62.5 162t-170.5 63q-200 0 -281 -159h-143q53 137 165 208.5t277 71.5q156 0 264.5 -96t108.5 -242q0 -31 -6 -61l-119 -674h-150l21 123q-37 -57 -137 -102.5 t-217 -45.5q-167 0 -269 88.5t-102 225.5zM225 291q0 -98 69 -155.5t198 -57.5q43 0 88.5 9t91 29t81.5 48t58.5 69.5t22.5 90.5q0 87 -93.5 146.5t-214.5 59.5q-134 0 -217.5 -60.5t-83.5 -178.5zM469 1483h186l113 -291h-147z" />
<glyph unicode="&#xe1;" horiz-adv-x="1179" d="M80 289q0 108 58 187.5t153.5 118t216.5 38.5q116 0 211.5 -44.5t142.5 -111.5l35 197q4 24 4 53q0 99 -62.5 162t-170.5 63q-200 0 -281 -159h-143q53 137 165 208.5t277 71.5q156 0 264.5 -96t108.5 -242q0 -31 -6 -61l-119 -674h-150l21 123q-37 -57 -137 -102.5 t-217 -45.5q-167 0 -269 88.5t-102 225.5zM225 291q0 -98 69 -155.5t198 -57.5q43 0 88.5 9t91 29t81.5 48t58.5 69.5t22.5 90.5q0 87 -93.5 146.5t-214.5 59.5q-134 0 -217.5 -60.5t-83.5 -178.5zM606 1192l205 291h205l-254 -291h-156z" />
<glyph unicode="&#xe2;" horiz-adv-x="1179" d="M80 289q0 108 58 187.5t153.5 118t216.5 38.5q116 0 211.5 -44.5t142.5 -111.5l35 197q4 24 4 53q0 99 -62.5 162t-170.5 63q-200 0 -281 -159h-143q53 137 165 208.5t277 71.5q156 0 264.5 -96t108.5 -242q0 -31 -6 -61l-119 -674h-150l21 123q-37 -57 -137 -102.5 t-217 -45.5q-167 0 -269 88.5t-102 225.5zM225 291q0 -98 69 -155.5t198 -57.5q43 0 88.5 9t91 29t81.5 48t58.5 69.5t22.5 90.5q0 87 -93.5 146.5t-214.5 59.5q-134 0 -217.5 -60.5t-83.5 -178.5zM436 1192l273 291h149l172 -291h-141l-115 199l-184 -199h-154z" />
<glyph unicode="&#xe3;" horiz-adv-x="1179" d="M80 289q0 108 58 187.5t153.5 118t216.5 38.5q116 0 211.5 -44.5t142.5 -111.5l35 197q4 24 4 53q0 99 -62.5 162t-170.5 63q-200 0 -281 -159h-143q53 137 165 208.5t277 71.5q156 0 264.5 -96t108.5 -242q0 -31 -6 -61l-119 -674h-150l21 123q-37 -57 -137 -102.5 t-217 -45.5q-167 0 -269 88.5t-102 225.5zM225 291q0 -98 69 -155.5t198 -57.5q43 0 88.5 9t91 29t81.5 48t58.5 69.5t22.5 90.5q0 87 -93.5 146.5t-214.5 59.5q-134 0 -217.5 -60.5t-83.5 -178.5zM365 1227q32 104 87 160.5t146 56.5q50 0 108.5 -32t108.5 -63.5t80 -31.5 q15 0 28 3.5t24 13t18 16.5t15.5 23.5t12 24t12 28t11.5 26.5l94 -37q-15 -43 -30 -73.5t-40 -66t-60 -54.5t-79 -19q-45 0 -100.5 32t-108.5 63.5t-92 31.5q-50 0 -81.5 -34.5t-57.5 -102.5z" />
<glyph unicode="&#xe4;" horiz-adv-x="1179" d="M80 289q0 108 58 187.5t153.5 118t216.5 38.5q116 0 211.5 -44.5t142.5 -111.5l35 197q4 24 4 53q0 99 -62.5 162t-170.5 63q-200 0 -281 -159h-143q53 137 165 208.5t277 71.5q156 0 264.5 -96t108.5 -242q0 -31 -6 -61l-119 -674h-150l21 123q-37 -57 -137 -102.5 t-217 -45.5q-167 0 -269 88.5t-102 225.5zM225 291q0 -98 69 -155.5t198 -57.5q43 0 88.5 9t91 29t81.5 48t58.5 69.5t22.5 90.5q0 87 -93.5 146.5t-214.5 59.5q-134 0 -217.5 -60.5t-83.5 -178.5zM457 1329q0 43 29 70.5t75 27.5q40 0 66 -24.5t26 -61.5q0 -43 -29.5 -72.5 t-76.5 -29.5q-39 0 -64.5 26.5t-25.5 63.5zM866 1329q0 43 29.5 70.5t75.5 27.5q40 0 66 -24.5t26 -61.5q0 -43 -30 -72.5t-77 -29.5q-39 0 -64.5 26.5t-25.5 63.5z" />
<glyph unicode="&#xe5;" horiz-adv-x="1179" d="M80 289q0 108 58 187.5t153.5 118t216.5 38.5q116 0 211.5 -44.5t142.5 -111.5l35 197q4 24 4 53q0 99 -62.5 162t-170.5 63q-200 0 -281 -159h-143q53 137 165 208.5t277 71.5q156 0 264.5 -96t108.5 -242q0 -31 -6 -61l-119 -674h-150l21 123q-37 -57 -137 -102.5 t-217 -45.5q-167 0 -269 88.5t-102 225.5zM225 291q0 -98 69 -155.5t198 -57.5q43 0 88.5 9t91 29t81.5 48t58.5 69.5t22.5 90.5q0 87 -93.5 146.5t-214.5 59.5q-134 0 -217.5 -60.5t-83.5 -178.5zM571 1356q0 81 54.5 130.5t140.5 49.5q76 0 127 -45t51 -117 q0 -76 -53.5 -129t-138.5 -53q-79 0 -130 45.5t-51 118.5zM657 1356q0 -40 25.5 -64t73.5 -24t75 30.5t27 73.5q0 40 -24 65t-70 25q-49 0 -78 -29t-29 -77z" />
<glyph unicode="&#xe6;" horiz-adv-x="1900" d="M80 289q0 158 119.5 251t306.5 93q110 0 209 -45t147 -113l35 199q4 24 4 53q0 99 -62.5 161t-170.5 62q-193 0 -281 -157h-143q125 280 442 280q105 0 188.5 -46.5t133.5 -137.5q55 90 151 137t221 47q188 0 301 -109.5t113 -285.5q0 -40 -8 -90l-21 -121h-749 q-8 -58 -8 -92q0 -133 76 -210t212 -77q106 0 181.5 56t107.5 149h141q-39 -142 -156 -230t-284 -88q-140 0 -238.5 57.5t-136.5 153.5q-61 -94 -173.5 -152.5t-260.5 -58.5q-180 0 -288.5 88.5t-108.5 225.5zM221 289q0 -96 75.5 -153.5t203.5 -57.5q55 0 112 15.5 t107.5 44.5t82.5 78t32 108q0 87 -93.5 146.5t-214.5 59.5q-63 0 -116.5 -14t-96.5 -42t-67.5 -75.5t-24.5 -109.5zM1036 578h606l5 24q6 44 6 80q0 128 -74.5 202t-204.5 74q-139 0 -221.5 -89t-108.5 -242z" />
<glyph unicode="&#xe7;" horiz-adv-x="1155" d="M98 385q0 49 8 90l29 164q36 211 155.5 322.5t327.5 111.5q116 0 212 -45t156 -136t61 -212h-136q-6 120 -88 195t-211 75q-267 0 -325 -323l-31 -174q-6 -40 -6 -72q0 -126 78 -204.5t213 -78.5q121 0 202 73.5t111 188.5h141q-35 -172 -157 -278.5t-306 -106.5h-20 l-18 -69l41 -4q57 -5 96 -37.5t39 -91.5q0 -70 -58.5 -112t-154.5 -42q-76 0 -131 12l10 88q46 -10 104 -10q51 0 81 15t30 43q0 24 -21.5 35t-64.5 16l-96 10l51 160q-146 33 -234 139.5t-88 257.5z" />
<glyph unicode="&#xe8;" horiz-adv-x="1138" d="M100 391q0 43 9 96l26 152q35 201 157.5 317.5t325.5 116.5q188 0 301 -109.5t113 -285.5q0 -40 -8 -90l-20 -121h-750q-8 -58 -8 -92q0 -133 76.5 -210t212.5 -77q106 0 181 55.5t107 149.5h142q-39 -142 -156.5 -230t-284.5 -88q-104 0 -186 33.5t-133.5 91t-78 132 t-26.5 159.5zM274 578h607l4 24q6 44 6 80q0 128 -74.5 202t-204.5 74q-139 0 -221 -89t-108 -242zM430 1483h186l113 -291h-147z" />
<glyph unicode="&#xe9;" horiz-adv-x="1138" d="M100 391q0 43 9 96l26 152q35 201 157.5 317.5t325.5 116.5q188 0 301 -109.5t113 -285.5q0 -40 -8 -90l-20 -121h-750q-8 -58 -8 -92q0 -133 76.5 -210t212.5 -77q106 0 181 55.5t107 149.5h142q-39 -142 -156.5 -230t-284.5 -88q-104 0 -186 33.5t-133.5 91t-78 132 t-26.5 159.5zM274 578h607l4 24q6 44 6 80q0 128 -74.5 202t-204.5 74q-139 0 -221 -89t-108 -242zM594 1192l205 291h205l-254 -291h-156z" />
<glyph unicode="&#xea;" horiz-adv-x="1138" d="M100 391q0 43 9 96l26 152q35 201 157.5 317.5t325.5 116.5q188 0 301 -109.5t113 -285.5q0 -40 -8 -90l-20 -121h-750q-8 -58 -8 -92q0 -133 76.5 -210t212.5 -77q106 0 181 55.5t107 149.5h142q-39 -142 -156.5 -230t-284.5 -88q-104 0 -186 33.5t-133.5 91t-78 132 t-26.5 159.5zM274 578h607l4 24q6 44 6 80q0 128 -74.5 202t-204.5 74q-139 0 -221 -89t-108 -242zM381 1192l272 291h150l172 -291h-141l-115 199l-184 -199h-154z" />
<glyph unicode="&#xeb;" horiz-adv-x="1138" d="M100 391q0 43 9 96l26 152q35 201 157.5 317.5t325.5 116.5q188 0 301 -109.5t113 -285.5q0 -40 -8 -90l-20 -121h-750q-8 -58 -8 -92q0 -133 76.5 -210t212.5 -77q106 0 181 55.5t107 149.5h142q-39 -142 -156.5 -230t-284.5 -88q-104 0 -186 33.5t-133.5 91t-78 132 t-26.5 159.5zM274 578h607l4 24q6 44 6 80q0 128 -74.5 202t-204.5 74q-139 0 -221 -89t-108 -242zM397 1329q0 43 29.5 70.5t75.5 27.5q40 0 66 -24.5t26 -61.5q0 -43 -30 -72.5t-77 -29.5q-39 0 -64.5 26.5t-25.5 63.5zM807 1329q0 43 29 70.5t75 27.5q40 0 66.5 -24.5 t26.5 -61.5q0 -43 -30 -72.5t-77 -29.5q-39 0 -64.5 26.5t-25.5 63.5z" />
<glyph unicode="&#xec;" horiz-adv-x="507" d="M84 0l184 1049h156l-184 -1049h-156zM127 1483h186l113 -291h-147z" />
<glyph unicode="&#xed;" horiz-adv-x="507" d="M84 0l184 1049h156l-184 -1049h-156zM301 1192l205 291h205l-254 -291h-156z" />
<glyph unicode="&#xee;" horiz-adv-x="507" d="M70 1192l272 291h150l172 -291h-142l-114 199l-185 -199h-153zM84 0l184 1049h156l-184 -1049h-156z" />
<glyph unicode="&#xef;" horiz-adv-x="507" d="M84 0l184 1049h156l-184 -1049h-156zM94 1329q0 43 29.5 70.5t75.5 27.5q40 0 66 -24.5t26 -61.5q0 -43 -30 -72.5t-77 -29.5q-39 0 -64.5 26.5t-25.5 63.5zM504 1329q0 43 29 70.5t75 27.5q40 0 66 -24.5t26 -61.5q0 -43 -29.5 -72.5t-76.5 -29.5q-39 0 -64.5 26.5 t-25.5 63.5z" />
<glyph unicode="&#xf0;" horiz-adv-x="1161" d="M100 395q0 45 9 94l22 125q75 414 457 414q110 0 202 -48t128 -120q-49 206 -185 367l-295 -90l-35 102l250 76q-110 105 -219 180h193q92 -64 164 -139l245 76l35 -101l-203 -63q195 -251 195 -561q0 -90 -14 -170l-27 -154q-32 -185 -161 -298.5t-329 -113.5 q-190 0 -311 117.5t-121 306.5zM248 385q0 -133 81.5 -213t215.5 -80q132 0 217 83t112 231l23 126q6 34 6 66q0 131 -82.5 222t-214.5 91q-135 0 -215.5 -73.5t-109.5 -233.5l-25 -137q-8 -46 -8 -82z" />
<glyph unicode="&#xf1;" horiz-adv-x="1200" d="M74 0l184 1049h148l-33 -179q54 96 150.5 149.5t217.5 53.5q148 0 242 -90t94 -238q0 -31 -8 -81l-117 -664h-155l114 649q7 44 7 70q0 106 -64 162.5t-170 56.5q-130 0 -226 -95t-124 -251l-105 -592h-155zM344 1227q32 103 87.5 160t146.5 57q50 0 108.5 -32t108 -63.5 t79.5 -31.5q15 0 28 3.5t24 13t18 16.5t15.5 23.5t12 24t12 28t11.5 26.5l95 -37q-15 -43 -30 -73.5t-40 -66t-60 -54.5t-79 -19q-45 0 -100.5 32t-108.5 63.5t-92 31.5q-51 0 -82.5 -34.5t-57.5 -102.5z" />
<glyph unicode="&#xf2;" horiz-adv-x="1159" d="M98 391q0 54 8 98l27 152q38 214 163.5 323t324.5 109q196 0 317 -117.5t121 -302.5q0 -34 -8 -92l-27 -155q-34 -199 -161 -315t-322 -116q-203 0 -323 114.5t-120 301.5zM246 379q0 -135 82.5 -210t214.5 -75q136 0 219.5 84.5t109.5 229.5l31 174q8 40 8 77 q0 131 -81 213t-214 82q-274 0 -333 -327l-29 -162q-8 -58 -8 -86zM434 1483h187l112 -291h-147z" />
<glyph unicode="&#xf3;" horiz-adv-x="1159" d="M98 391q0 54 8 98l27 152q38 214 163.5 323t324.5 109q196 0 317 -117.5t121 -302.5q0 -34 -8 -92l-27 -155q-34 -199 -161 -315t-322 -116q-203 0 -323 114.5t-120 301.5zM246 379q0 -135 82.5 -210t214.5 -75q136 0 219.5 84.5t109.5 229.5l31 174q8 40 8 77 q0 131 -81 213t-214 82q-274 0 -333 -327l-29 -162q-8 -58 -8 -86zM600 1192l205 291h205l-254 -291h-156z" />
<glyph unicode="&#xf4;" horiz-adv-x="1159" d="M98 391q0 54 8 98l27 152q38 214 163.5 323t324.5 109q196 0 317 -117.5t121 -302.5q0 -34 -8 -92l-27 -155q-34 -199 -161 -315t-322 -116q-203 0 -323 114.5t-120 301.5zM246 379q0 -135 82.5 -210t214.5 -75q136 0 219.5 84.5t109.5 229.5l31 174q8 40 8 77 q0 131 -81 213t-214 82q-274 0 -333 -327l-29 -162q-8 -58 -8 -86zM397 1192l273 291h149l172 -291h-141l-115 199l-184 -199h-154z" />
<glyph unicode="&#xf5;" horiz-adv-x="1159" d="M98 391q0 54 8 98l27 152q38 214 163.5 323t324.5 109q196 0 317 -117.5t121 -302.5q0 -34 -8 -92l-27 -155q-34 -199 -161 -315t-322 -116q-203 0 -323 114.5t-120 301.5zM246 379q0 -135 82.5 -210t214.5 -75q136 0 219.5 84.5t109.5 229.5l31 174q8 40 8 77 q0 131 -81 213t-214 82q-274 0 -333 -327l-29 -162q-8 -58 -8 -86zM340 1227q32 104 87 160.5t146 56.5q50 0 108.5 -32t108.5 -63.5t80 -31.5q15 0 28 3.5t24 13t18 16.5t15.5 23.5t12 24t12 28t11.5 26.5l94 -37q-15 -43 -30 -73.5t-39.5 -66t-59.5 -54.5t-79 -19 q-35 0 -78.5 20t-77 43.5t-74.5 43.5t-72 20q-50 0 -81.5 -34.5t-57.5 -102.5z" />
<glyph unicode="&#xf6;" horiz-adv-x="1159" d="M98 391q0 54 8 98l27 152q38 214 163.5 323t324.5 109q196 0 317 -117.5t121 -302.5q0 -34 -8 -92l-27 -155q-34 -199 -161 -315t-322 -116q-203 0 -323 114.5t-120 301.5zM246 379q0 -135 82.5 -210t214.5 -75q136 0 219.5 84.5t109.5 229.5l31 174q8 40 8 77 q0 131 -81 213t-214 82q-274 0 -333 -327l-29 -162q-8 -58 -8 -86zM418 1329q0 43 29 70.5t75 27.5q40 0 66 -24.5t26 -61.5q0 -43 -29.5 -72.5t-76.5 -29.5q-39 0 -64.5 26.5t-25.5 63.5zM827 1329q0 43 29.5 70.5t75.5 27.5q40 0 66 -24.5t26 -61.5q0 -43 -29.5 -72.5 t-76.5 -29.5q-39 0 -65 26.5t-26 63.5z" />
<glyph unicode="&#xf7;" horiz-adv-x="1216" d="M184 672l25 131h889l-25 -131h-889zM469 334q0 46 33 76t84 30q39 0 64.5 -25t25.5 -61q0 -47 -33.5 -78.5t-81.5 -31.5q-38 0 -65 26t-27 64zM608 1124q0 46 33 76.5t84 30.5q39 0 64.5 -25t25.5 -61q0 -47 -33.5 -79t-81.5 -32q-38 0 -65 26t-27 64z" />
<glyph unicode="&#xf8;" horiz-adv-x="1159" d="M2 -102l184 225q-88 108 -88 268q0 54 8 98l27 152q38 214 163.5 323t324.5 109q155 0 274 -82l133 162h127l-188 -229q44 -44 68 -117t24 -154q0 -34 -8 -92l-27 -155q-34 -199 -161 -315t-322 -116q-167 0 -283 80l-129 -157h-127zM246 379q0 -85 30 -146l535 656 q-78 65 -195 65q-274 0 -333 -327l-29 -162q-8 -58 -8 -86zM342 158q76 -64 201 -64q136 0 219.5 84.5t109.5 229.5l31 174q8 40 8 77q0 88 -37 152z" />
<glyph unicode="&#xf9;" horiz-adv-x="1189" d="M125 307q0 46 8 90l115 652h155l-114 -654q-8 -54 -8 -76q0 -106 62 -161.5t173 -55.5q129 0 219.5 96t120.5 259l105 592h155l-184 -1049h-148l33 178q-45 -90 -141 -146.5t-215 -56.5q-145 0 -240.5 89.5t-95.5 242.5zM477 1483h187l112 -291h-147z" />
<glyph unicode="&#xfa;" horiz-adv-x="1189" d="M125 307q0 46 8 90l115 652h155l-114 -654q-8 -54 -8 -76q0 -106 62 -161.5t173 -55.5q129 0 219.5 96t120.5 259l105 592h155l-184 -1049h-148l33 178q-45 -90 -141 -146.5t-215 -56.5q-145 0 -240.5 89.5t-95.5 242.5zM596 1192l205 291h205l-254 -291h-156z" />
<glyph unicode="&#xfb;" horiz-adv-x="1189" d="M125 307q0 46 8 90l115 652h155l-114 -654q-8 -54 -8 -76q0 -106 62 -161.5t173 -55.5q129 0 219.5 96t120.5 259l105 592h155l-184 -1049h-148l33 178q-45 -90 -141 -146.5t-215 -56.5q-145 0 -240.5 89.5t-95.5 242.5zM416 1192l272 291h150l172 -291h-142l-114 199 l-185 -199h-153z" />
<glyph unicode="&#xfc;" horiz-adv-x="1189" d="M125 307q0 46 8 90l115 652h155l-114 -654q-8 -54 -8 -76q0 -106 62 -161.5t173 -55.5q129 0 219.5 96t120.5 259l105 592h155l-184 -1049h-148l33 178q-45 -90 -141 -146.5t-215 -56.5q-145 0 -240.5 89.5t-95.5 242.5zM430 1329q0 43 29.5 70.5t75.5 27.5 q40 0 66 -24.5t26 -61.5q0 -43 -30 -72.5t-77 -29.5q-39 0 -64.5 26.5t-25.5 63.5zM840 1329q0 43 29 70.5t75 27.5q40 0 66 -24.5t26 -61.5q0 -43 -29.5 -72.5t-76.5 -29.5q-39 0 -64.5 26.5t-25.5 63.5z" />
<glyph unicode="&#xfd;" horiz-adv-x="1052" d="M158 1049h153l162 -887l440 887h162l-557 -1051l-192 -354h-154l197 366zM522 1192l205 291h205l-254 -291h-156z" />
<glyph unicode="&#xfe;" horiz-adv-x="1210" d="M10 -356l328 1851h154l-105 -590q41 66 133 117t201 51q179 0 285 -113.5t106 -289.5q0 -43 -8 -101l-29 -161q-37 -207 -154.5 -320t-299.5 -113q-132 0 -231 70t-126 158l-98 -559h-156zM307 410q0 -133 84 -224.5t219 -91.5q128 0 208 83.5t108 240.5l26 153 q9 65 9 91q0 134 -74 213t-207 79q-137 0 -226.5 -94.5t-115.5 -243.5l-25 -139q-6 -35 -6 -67z" />
<glyph unicode="&#xff;" horiz-adv-x="1052" d="M158 1049h153l162 -887l440 887h162l-557 -1051l-192 -354h-154l197 366zM367 1329q0 43 29 70.5t75 27.5q40 0 66 -24.5t26 -61.5q0 -43 -29.5 -72.5t-76.5 -29.5q-39 0 -64.5 26.5t-25.5 63.5zM776 1329q0 43 29.5 70.5t75.5 27.5q40 0 66 -24.5t26 -61.5 q0 -43 -30 -72.5t-77 -29.5q-39 0 -64.5 26.5t-25.5 63.5z" />
<glyph unicode="&#x152;" horiz-adv-x="2148" d="M143 547q0 49 13 129l32 184q54 303 224.5 438.5t494.5 135.5h1274l-22 -134h-775l-88 -505h713l-22 -133h-715l-92 -529h776l-25 -133h-1188q-149 0 -264.5 41.5t-188 115.5t-110 173t-37.5 217zM303 547q0 -187 117.5 -300.5t339.5 -113.5h260l205 1167h-328 q-253 0 -381 -107.5t-170 -344.5l-33 -184q-10 -62 -10 -117z" />
<glyph unicode="&#x153;" horiz-adv-x="1916" d="M98 391q0 54 8 98l27 152q38 214 163.5 323t324.5 109q129 0 229 -53t151 -148q57 94 159.5 147.5t236.5 53.5q188 0 300.5 -109.5t112.5 -285.5q0 -40 -8 -90l-20 -121h-750q-8 -58 -8 -92q0 -133 76.5 -210t212.5 -77q106 0 181.5 56t107.5 149h141q-39 -142 -156 -230 t-284 -88q-131 0 -228.5 57.5t-142.5 149.5q-54 -88 -160.5 -147.5t-230.5 -59.5q-209 0 -326 114t-117 302zM246 379q0 -135 82.5 -210t214.5 -75q136 0 219.5 84.5t109.5 229.5l31 174q8 40 8 77q0 131 -81 213t-214 82q-274 0 -333 -327l-29 -162q-8 -58 -8 -86z M1053 578h606l4 24q6 44 6 80q0 128 -74 202t-204 74q-139 0 -221.5 -89t-108.5 -242z" />
<glyph unicode="&#x178;" horiz-adv-x="1224" d="M188 1434h166l285 -748l532 748h183l-660 -902l-94 -532h-160l97 547zM467 1692q0 43 29 70.5t75 27.5q40 0 66.5 -24.5t26.5 -61.5q0 -43 -30 -72.5t-77 -29.5q-39 0 -64.5 26.5t-25.5 63.5zM922 1692q0 43 29 70.5t75 27.5q40 0 66 -24.5t26 -61.5q0 -43 -29.5 -72.5 t-76.5 -29.5q-39 0 -64.5 26.5t-25.5 63.5z" />
<glyph unicode="&#x2c6;" horiz-adv-x="974" d="M287 1192l272 291h150l172 -291h-142l-114 199l-185 -199h-153z" />
<glyph unicode="&#x2dc;" horiz-adv-x="1075" d="M303 1227q32 103 87.5 160t146.5 57q50 0 108.5 -32t108.5 -63.5t80 -31.5q15 0 28 3.5t23.5 12.5t18 16.5t15.5 23.5t12 24.5t12 28t11 26.5l95 -37q-15 -43 -30 -73.5t-40 -66t-60 -54.5t-79 -19q-45 0 -100.5 32t-108.5 63.5t-92 31.5q-51 0 -82.5 -34.5t-57.5 -102.5 z" />
<glyph unicode="&#x2000;" horiz-adv-x="907" />
<glyph unicode="&#x2001;" horiz-adv-x="1815" />
<glyph unicode="&#x2002;" horiz-adv-x="907" />
<glyph unicode="&#x2003;" horiz-adv-x="1815" />
<glyph unicode="&#x2004;" horiz-adv-x="605" />
<glyph unicode="&#x2005;" horiz-adv-x="453" />
<glyph unicode="&#x2006;" horiz-adv-x="302" />
<glyph unicode="&#x2007;" horiz-adv-x="302" />
<glyph unicode="&#x2008;" horiz-adv-x="226" />
<glyph unicode="&#x2009;" horiz-adv-x="363" />
<glyph unicode="&#x200a;" horiz-adv-x="100" />
<glyph unicode="&#x2010;" horiz-adv-x="845" d="M125 571l25 136h571l-25 -136h-571z" />
<glyph unicode="&#x2011;" horiz-adv-x="845" d="M125 571l25 136h571l-25 -136h-571z" />
<glyph unicode="&#x2012;" horiz-adv-x="845" d="M125 571l25 136h571l-25 -136h-571z" />
<glyph unicode="&#x2013;" horiz-adv-x="1253" d="M125 571l25 136h978l-24 -136h-979z" />
<glyph unicode="&#x2014;" horiz-adv-x="1865" d="M125 571l25 136h1591l-25 -136h-1591z" />
<glyph unicode="&#x2018;" horiz-adv-x="466" d="M162 975l223 459h131l-178 -459h-176z" />
<glyph unicode="&#x2019;" horiz-adv-x="466" d="M168 975l178 459h176l-223 -459h-131z" />
<glyph unicode="&#x201a;" horiz-adv-x="487" d="M-51 -233l178 458h176l-223 -458h-131z" />
<glyph unicode="&#x201c;" horiz-adv-x="888" d="M162 975l223 459h131l-178 -459h-176zM584 975l223 459h131l-178 -459h-176z" />
<glyph unicode="&#x201d;" horiz-adv-x="888" d="M162 975l178 459h176l-223 -459h-131zM584 975l178 459h176l-223 -459h-131z" />
<glyph unicode="&#x201e;" horiz-adv-x="909" d="M-51 -233l178 458h176l-223 -458h-131zM371 -233l178 458h176l-223 -458h-131z" />
<glyph unicode="&#x2022;" horiz-adv-x="856" d="M195 721q0 104 68.5 175t178.5 71q94 0 164 -65t70 -161q0 -102 -72 -175.5t-180 -73.5q-94 0 -161.5 67t-67.5 162z" />
<glyph unicode="&#x2026;" horiz-adv-x="1462" d="M55 80q0 47 33.5 77.5t85.5 30.5q41 0 66.5 -25.5t25.5 -62.5q0 -47 -33.5 -79.5t-82.5 -32.5q-40 0 -67.5 26.5t-27.5 65.5zM543 80q0 47 33.5 77.5t85.5 30.5q41 0 66.5 -25.5t25.5 -62.5q0 -47 -34 -79.5t-83 -32.5q-40 0 -67 26t-27 66zM1030 80q0 47 33.5 77.5 t85.5 30.5q41 0 66.5 -25.5t25.5 -62.5q0 -47 -34 -79.5t-83 -32.5q-40 0 -67 26t-27 66z" />
<glyph unicode="&#x202f;" horiz-adv-x="363" />
<glyph unicode="&#x2039;" horiz-adv-x="716" d="M78 559l422 432h184l-426 -448l272 -420h-176z" />
<glyph unicode="&#x203a;" horiz-adv-x="716" d="M53 123l426 448l-272 420h176l276 -436l-421 -432h-185z" />
<glyph unicode="&#x205f;" horiz-adv-x="453" />
<glyph unicode="&#x20ac;" horiz-adv-x="1372" d="M98 487l19 105h178l43 250h-178l18 104h178l11 53q38 222 170.5 342.5t341.5 120.5q202 0 327 -118.5t125 -325.5h-139q0 143 -83 232t-228 89q-303 0 -365 -350l-8 -43h405l-18 -104h-406l-43 -250h406l-18 -105h-406l-2 -10q-8 -47 -8 -88q0 -135 78.5 -215t224.5 -80 q144 0 237.5 91t128.5 231h140q-42 -191 -178.5 -318t-337.5 -127q-199 0 -322 119t-123 305q0 42 8 82l2 10h-178z" />
<glyph unicode="&#x2122;" horiz-adv-x="1339" d="M225 1370l13 64h448l-10 -64h-189l-92 -526h-73l92 526h-189zM696 844l105 590h69l121 -387l256 387h70l-103 -590h-71l76 438l-203 -301h-68l-100 315l-80 -452h-72z" />
<glyph unicode="&#xe000;" horiz-adv-x="1044" d="M0 0v1044h1044v-1044h-1044z" />
<glyph unicode="&#xfb01;" horiz-adv-x="1228" d="M147 0l164 926h-153l20 123h154l30 172q25 137 102 205.5t216 68.5h164l-23 -123h-114q-88 0 -132 -38.5t-59 -125.5l-29 -159h265l-21 -123h-264l-164 -926h-156zM805 0l184 1049h156l-184 -1049h-156zM1018 1317q0 44 29 73t77 29q39 0 66 -23t27 -61q0 -44 -30.5 -74 t-80.5 -30q-36 0 -62 24.5t-26 61.5z" />
<glyph unicode="&#xfb02;" horiz-adv-x="1228" d="M147 0l164 926h-153l20 123h154l30 172q25 137 102 205.5t216 68.5h164l-23 -123h-114q-88 0 -132 -38.5t-59 -125.5l-29 -159h265l-21 -123h-264l-164 -926h-156zM805 0l264 1495h156l-264 -1495h-156z" />
</font>
</defs>
</svg>
