<?xml version="1.0" standalone="no"?>
<!DOCTYPE svg PUBLIC "-//W3C//DTD SVG 1.1//EN" "http://www.w3.org/Graphics/SVG/1.1/DTD/svg11.dtd" >
<svg xmlns="http://www.w3.org/2000/svg">
<metadata></metadata>
<defs>
<font id="colfax_regularregular" horiz-adv-x="1490" >
<font-face units-per-em="2048" ascent="1536" descent="-512" />
<missing-glyph horiz-adv-x="450" />
<glyph horiz-adv-x="2048" />
<glyph horiz-adv-x="2048" />
<glyph unicode="&#xd;" horiz-adv-x="2048" />
<glyph unicode=" "  horiz-adv-x="450" />
<glyph unicode="&#x09;" horiz-adv-x="450" />
<glyph unicode="&#xa0;" horiz-adv-x="450" />
<glyph unicode="!" horiz-adv-x="536" d="M164 88q0 44 29 72t75 28t75.5 -28t29.5 -72t-30 -72t-75 -28t-74.5 28t-29.5 72zM186 891v543h164v-543l-41 -514h-82z" />
<glyph unicode="&#x22;" horiz-adv-x="913" d="M176 893v541h133v-541h-133zM604 893v541h133v-541h-133z" />
<glyph unicode="#" horiz-adv-x="1390" d="M119 434v111h231l41 366h-229v111h241l48 412h122l-47 -412h422l47 412h123l-47 -412h211v-111h-223l-41 -366h221v-111h-233l-50 -434h-122l49 434h-422l-49 -434h-123l49 434h-219zM473 545h422l41 366h-422z" />
<glyph unicode="$" horiz-adv-x="1218" d="M143 397v37h144v-37q0 -131 85.5 -204.5t248.5 -73.5q149 0 234 71.5t85 190.5q0 160 -180 227l-318 121q-139 52 -211.5 129.5t-72.5 208.5q0 155 103.5 250t273.5 113v229h153v-232q167 -21 266 -117.5t99 -252.5v-53h-144v49q0 120 -80.5 191t-224.5 71 q-137 0 -218 -64t-81 -178q0 -85 46 -133t138 -82l314 -121q143 -56 213.5 -138t70.5 -210q0 -157 -109 -260.5t-280 -124.5v-229h-153v229q-184 19 -293 122.5t-109 270.5z" />
<glyph unicode="%" horiz-adv-x="1738" d="M125 965v178q0 137 84 222t225 85t225 -85t84 -222v-178q0 -137 -84 -222.5t-225 -85.5t-225 85.5t-84 222.5zM242 956q0 -91 50 -145.5t142 -54.5t142.5 54.5t50.5 145.5v195q0 91 -50.5 146t-142.5 55t-142 -55t-50 -146v-195zM444 0l744 1434h119l-744 -1434h-119z M1006 291v178q0 137 84 222t225 85t225 -85t84 -222v-178q0 -137 -84 -222t-225 -85t-225 85t-84 222zM1122 283q0 -91 50.5 -146t142.5 -55t142 55t50 146v194q0 91 -50 146t-142 55t-142.5 -55t-50.5 -146v-194z" />
<glyph unicode="&#x26;" horiz-adv-x="1419" d="M133 428q0 276 297 410l-8 8q-139 147 -139 295q0 149 102 235t274 86q160 0 266.5 -89.5t106.5 -233.5v-80h-129v78q0 92 -68.5 153.5t-172.5 61.5q-111 0 -177.5 -52.5t-66.5 -146.5q0 -121 114 -238l566 -585q37 92 37 207v145h131v-150q0 -171 -74 -301l166 -170 l-92 -90l-152 156q-159 -156 -455 -156q-143 0 -262.5 56t-191.5 161.5t-72 239.5zM274 428q0 -158 113.5 -251t304.5 -93q218 0 336 133l-520 539q-234 -101 -234 -328z" />
<glyph unicode="'" horiz-adv-x="485" d="M176 893v541h133v-541h-133z" />
<glyph unicode="(" horiz-adv-x="632" d="M156 664q0 246 59.5 469.5t187.5 468.5h152q-128 -269 -186 -490t-58 -448t58 -448t186 -490h-152q-128 245 -187.5 468.5t-59.5 469.5z" />
<glyph unicode=")" horiz-adv-x="632" d="M78 -274q128 269 186 490t58 448t-58 448t-186 490h151q128 -245 188 -469t60 -469t-60 -469t-188 -469h-151z" />
<glyph unicode="*" horiz-adv-x="870" d="M123 963l233 133l-233 133l39 67l235 -135v273h78v-271l234 133l39 -67l-234 -133l234 -133l-39 -68l-234 133v-268h-78v268l-235 -133z" />
<glyph unicode="+" horiz-adv-x="1241" d="M164 676v123h387v418h139v-418h387v-123h-387v-418h-139v418h-387z" />
<glyph unicode="," horiz-adv-x="487" d="M72 -233l98 458h174l-141 -458h-131z" />
<glyph unicode="-" horiz-adv-x="845" d="M137 571v138h572v-138h-572z" />
<glyph unicode="." horiz-adv-x="487" d="M139 88q0 44 29.5 72t75.5 28t75 -28t29 -72t-29.5 -72t-74.5 -28t-75 28t-30 72z" />
<glyph unicode="/" horiz-adv-x="866" d="M72 -215l577 1751h146l-578 -1751h-145z" />
<glyph unicode="0" horiz-adv-x="1290" d="M143 449v536q0 209 135.5 343t366.5 134t366.5 -134t135.5 -343v-536q0 -209 -135.5 -343.5t-366.5 -134.5t-366.5 134.5t-135.5 343.5zM301 442q0 -156 90 -249t254 -93t254 93t90 249v549q0 156 -90 249t-254 93t-254 -93t-90 -249v-549z" />
<glyph unicode="1" horiz-adv-x="716" d="M63 1130v144l326 160h131v-1434h-158v1272z" />
<glyph unicode="2" horiz-adv-x="1222" d="M143 0v123l607 637q80 83 119.5 156.5t39.5 152.5q0 118 -82.5 191t-210.5 73q-138 0 -219.5 -76.5t-81.5 -212.5v-32h-149v39q0 193 123.5 302t326.5 109q198 0 324.5 -107.5t126.5 -285.5q0 -62 -19 -121t-57.5 -114.5t-72.5 -95t-87 -93.5l-505 -516h743v-129h-926z " />
<glyph unicode="3" horiz-adv-x="1245" d="M127 391h145q10 -135 103 -214t237 -79q153 0 247.5 84t94.5 213q0 131 -90 211t-241 80h-195v123l442 498h-645v127h836v-129l-459 -502h55q200 0 325.5 -111t125.5 -293q0 -122 -67.5 -221t-181.5 -153t-249 -54q-126 0 -232 47t-176 144.5t-75 228.5z" />
<glyph unicode="4" horiz-adv-x="1253" d="M125 342v117l477 975h143l-466 -973h526v340h145v-340h199v-119h-199v-342h-145v342h-680z" />
<glyph unicode="5" horiz-adv-x="1277" d="M150 352h149q32 -115 118.5 -183.5t217.5 -68.5q163 0 262.5 99t99.5 254q0 147 -96 247.5t-246 100.5q-201 0 -325 -168h-150l135 801h715v-129h-590l-90 -514q51 62 142 100.5t194 38.5q201 0 333 -136t132 -337q0 -207 -146.5 -346.5t-369.5 -139.5q-183 0 -317.5 102 t-167.5 279z" />
<glyph unicode="6" horiz-adv-x="1228" d="M121 449q0 110 40 209.5t111 211.5l357 564h168l-416 -633v-2q106 127 289 127q194 0 322 -133t128 -338q0 -96 -37.5 -184.5t-102.5 -154.5t-159 -105.5t-200 -39.5q-219 0 -359.5 135.5t-140.5 342.5zM274 446q0 -153 94 -251.5t250 -98.5q155 0 252 101t97 254 q0 154 -92.5 254t-247.5 100q-152 0 -252.5 -102.5t-100.5 -256.5z" />
<glyph unicode="7" horiz-adv-x="1144" d="M133 1305v129h899v-111l-633 -1323h-157l628 1305h-737z" />
<glyph unicode="8" horiz-adv-x="1290" d="M147 381q0 79 25.5 144.5t68 109t92 71t103.5 39.5q-107 48 -168 133t-61 201q0 176 121.5 279.5t316.5 103.5t316.5 -103.5t121.5 -279.5q0 -116 -61 -201t-168 -133q54 -12 103.5 -39.5t92 -71t68 -109t25.5 -144.5q0 -182 -139.5 -296t-358.5 -114t-358.5 114 t-139.5 296zM299 381q0 -129 98 -210t248 -81t248 81t98 210q0 138 -95 217.5t-251 79.5t-251 -79.5t-95 -217.5zM354 1069q0 -114 83 -193t208 -79t208 79t83 193q0 126 -79.5 200t-211.5 74t-211.5 -74t-79.5 -200z" />
<glyph unicode="9" horiz-adv-x="1228" d="M109 979q0 207 139 345t360 138q219 0 359.5 -134t140.5 -343q0 -183 -102 -346l-406 -639h-170l404 618v3q-36 -47 -113.5 -80t-161.5 -33q-194 0 -322 134.5t-128 336.5zM262 981q0 -162 90 -257t250 -95q148 0 250 102t102 256q0 151 -97 250.5t-247 99.5 q-156 0 -252 -101.5t-96 -254.5z" />
<glyph unicode=":" horiz-adv-x="487" d="M139 88q0 44 29.5 72t75.5 28t75 -28t29 -72t-29.5 -72t-74.5 -28t-75 28t-30 72zM139 766q0 44 29.5 72t75.5 28t75 -28t29 -72t-29.5 -72t-74.5 -28t-75 28t-30 72z" />
<glyph unicode=";" horiz-adv-x="487" d="M61 -233l99 458h174l-141 -458h-132zM160 766q0 44 29 72t75 28t75.5 -28t29.5 -72t-30 -72t-75 -28t-74.5 28t-29.5 72z" />
<glyph unicode="&#x3c;" horiz-adv-x="1210" d="M123 688v98l913 451v-137l-743 -363l743 -362v-137z" />
<glyph unicode="=" horiz-adv-x="1257" d="M184 432v123h889v-123h-889zM184 920v122h889v-122h-889z" />
<glyph unicode="&#x3e;" horiz-adv-x="1210" d="M174 238v137l744 362l-744 363v137l913 -451v-98z" />
<glyph unicode="?" horiz-adv-x="1038" d="M94 1049v41q0 181 110.5 276.5t303.5 95.5q191 0 308.5 -97t117.5 -253q0 -179 -162 -303l-108 -84q-76 -59 -101.5 -112.5t-25.5 -168.5v-86h-138v97q0 133 31 209.5t109 138.5l102 80q71 56 104 106.5t33 122.5q0 104 -73.5 163.5t-198.5 59.5q-126 0 -197 -64 t-71 -184v-38h-144zM365 88q0 44 29 72t75 28t75 -28t29 -72t-29.5 -72t-74.5 -28t-74.5 28t-29.5 72z" />
<glyph unicode="@" horiz-adv-x="1945" d="M147 561q0 185 62 349t174 286.5t280 194t369 71.5q180 0 329 -59.5t245 -159t148 -226.5t52 -265q0 -73 -13 -145.5t-43 -144t-73.5 -126t-110.5 -88t-149 -33.5q-98 0 -163 58.5t-78 138.5q-41 -71 -116.5 -119.5t-174.5 -48.5q-134 0 -211.5 85.5t-77.5 219.5 q0 37 6 78l10 59q27 161 117 242.5t225 81.5q92 0 156.5 -46t89.5 -108l25 137h116l-75 -424q-6 -38 -6 -67q0 -88 43.5 -142.5t128.5 -54.5q84 0 147 63.5t94 163t31 218.5q0 127 -46 239t-130 197t-213 134.5t-285 49.5q-229 0 -405.5 -102t-273.5 -286t-97 -421 q0 -146 47.5 -273.5t136 -223.5t225 -151.5t304.5 -55.5q196 0 430 63l-13 -90q-176 -66 -430 -66q-182 0 -335.5 63.5t-255.5 171.5t-159 253.5t-57 308.5zM717 549q0 -99 50.5 -152t137.5 -53q92 0 157 64.5t81 160.5l12 72q4 20 4 45q0 92 -58.5 157.5t-148.5 65.5 q-179 0 -219 -233l-8 -47q-8 -46 -8 -80z" />
<glyph unicode="A" horiz-adv-x="1392" d="M78 0l538 1434h160l539 -1434h-158l-131 365h-661l-129 -365h-158zM410 492h571l-285 796z" />
<glyph unicode="B" horiz-adv-x="1357" d="M186 0v1434h592q186 0 288.5 -98.5t102.5 -258.5q0 -120 -57.5 -206.5t-153.5 -129.5q130 -29 212.5 -117t82.5 -235q0 -180 -124 -284.5t-336 -104.5h-607zM340 125h440q154 0 236 71t82 203q0 122 -84.5 196.5t-231.5 74.5h-442v-545zM340 795h403q128 0 199.5 76 t71.5 186q0 112 -72 182t-199 70h-403v-514z" />
<glyph unicode="C" horiz-adv-x="1435" d="M143 596v242q0 181 65.5 320t202 221.5t328.5 82.5q121 0 224.5 -40t175 -109t114.5 -159.5t52 -192.5h-154q-10 76 -39.5 141t-79.5 116.5t-125.5 81t-169.5 29.5q-212 0 -323 -132.5t-111 -352.5v-254q0 -220 111 -353t323 -133q94 0 169.5 29.5t125.5 81.5t79.5 117 t39.5 141h154q-9 -102 -52 -192.5t-114.5 -159.5t-175 -109.5t-224.5 -40.5q-145 0 -259.5 47.5t-187.5 132t-111 197.5t-38 248z" />
<glyph unicode="D" horiz-adv-x="1431" d="M186 0v1434h539q267 0 416 -152.5t149 -398.5v-332q0 -246 -149 -398.5t-416 -152.5h-539zM344 131h358q208 0 319.5 114t111.5 306v332q0 192 -111.5 306t-319.5 114h-358v-1172z" />
<glyph unicode="E" horiz-adv-x="1247" d="M186 0v1434h947v-134h-787v-507h727v-134h-727v-526h789v-133h-949z" />
<glyph unicode="F" horiz-adv-x="1198" d="M186 0v1434h928v-134h-768v-528h709v-133h-709v-639h-160z" />
<glyph unicode="G" horiz-adv-x="1452" d="M143 606v228q0 185 66.5 325.5t200.5 221.5t319 81q256 0 408 -140.5t157 -358.5h-151q-5 157 -115 261.5t-297 104.5q-144 0 -241.5 -63.5t-142 -171t-44.5 -254.5v-238q0 -87 15.5 -161t49.5 -137.5t84.5 -108.5t124 -70t164.5 -25q195 0 304.5 109t109.5 313v37h-401 v133h555v-151q0 -166 -65 -294t-195.5 -202t-309.5 -74q-146 0 -261 49.5t-187.5 137t-110 201.5t-37.5 247z" />
<glyph unicode="H" horiz-adv-x="1449" d="M186 0v1434h160v-643h758v643h160v-1434h-160v647h-758v-647h-160z" />
<glyph unicode="I" horiz-adv-x="552" d="M197 0v1434h159v-1434h-159z" />
<glyph unicode="J" horiz-adv-x="1206" d="M92 387v12h152v-12q0 -128 81 -205.5t232 -77.5q148 0 229.5 75.5t81.5 209.5v1045h160v-1045q0 -184 -129 -301t-340 -117t-339 115t-128 301z" />
<glyph unicode="K" horiz-adv-x="1253" d="M186 0v1434h160v-699l647 699h193l-666 -709l688 -725h-192l-670 713v-713h-160z" />
<glyph unicode="L" horiz-adv-x="1165" d="M186 0v1434h160v-1301h735v-133h-895z" />
<glyph unicode="M" horiz-adv-x="1617" d="M186 0v1434h150l473 -947l473 947h150v-1434h-152v1126l-395 -780h-152l-395 780v-1126h-152z" />
<glyph unicode="N" horiz-adv-x="1466" d="M186 0v1434h150l788 -1178v1178h156v-1434h-150l-788 1178v-1178h-156z" />
<glyph unicode="O" d="M143 602v229q0 131 38.5 244.5t111.5 200.5t189.5 136.5t262.5 49.5t262.5 -49.5t190 -136.5t112 -200.5t38.5 -244.5v-229q0 -131 -38.5 -244.5t-112 -200.5t-190 -136.5t-262.5 -49.5t-262.5 49.5t-189.5 136.5t-111.5 200.5t-38.5 244.5zM303 594q0 -103 26.5 -190.5 t79.5 -155.5t139 -106t197 -38q89 0 163 25t125 69.5t86.5 106.5t52 134.5t16.5 154.5v246q0 103 -27 190.5t-79.5 155t-139 105.5t-197.5 38t-197 -38t-139 -105.5t-79.5 -155t-26.5 -190.5v-246z" />
<glyph unicode="P" horiz-adv-x="1308" d="M186 0v1434h562q221 0 354 -128.5t133 -326.5t-133 -328.5t-354 -130.5h-402v-520h-160zM346 653h387q168 0 255 93t87 233t-87 230.5t-255 90.5h-387v-647z" />
<glyph unicode="Q" d="M143 602v229q0 131 38.5 244.5t111.5 200.5t189.5 136.5t262.5 49.5t262.5 -49.5t190 -136.5t112 -200.5t38.5 -244.5v-229q0 -170 -64 -309.5t-186 -222.5l102 -189l-123 -63l-102 190q-109 -37 -230 -37q-146 0 -262.5 49.5t-189.5 136.5t-111.5 200.5t-38.5 244.5z M303 594q0 -103 26.5 -190.5t79.5 -155.5t139 -106t197 -38q103 0 164 25l-98 184l121 66l98 -182q78 65 118 168t40 229v246q0 103 -27 190.5t-79.5 155t-139 105.5t-197.5 38t-197 -38t-139 -105.5t-79.5 -155t-26.5 -190.5v-246z" />
<glyph unicode="R" horiz-adv-x="1384" d="M186 0v1434h592q153 0 264 -62t164.5 -164t53.5 -231q0 -151 -82.5 -267t-227.5 -161l312 -549h-183l-291 524h-442v-524h-160zM346 651h412q166 0 254 90t88 236q0 145 -90 236.5t-252 91.5h-412v-654z" />
<glyph unicode="S" horiz-adv-x="1333" d="M141 397v37h152v-33q0 -137 103 -220t280 -83q178 0 278.5 74.5t100.5 210.5q0 88 -52.5 147.5t-152.5 85.5l-406 107q-150 38 -217 123.5t-67 214.5q0 188 135 294.5t360 106.5q222 0 362 -113.5t140 -295.5v-35h-149v31q0 129 -94.5 207.5t-258.5 78.5 q-155 0 -248.5 -68.5t-93.5 -193.5q0 -89 43 -141.5t136 -77.5l415 -111q138 -37 219.5 -126t81.5 -222q0 -193 -149.5 -308.5t-382.5 -115.5t-384 116.5t-151 309.5z" />
<glyph unicode="T" horiz-adv-x="1150" d="M57 1300v134h1037v-134h-439v-1300h-159v1300h-439z" />
<glyph unicode="U" horiz-adv-x="1449" d="M174 483v951h160v-965q0 -168 105 -266.5t286 -98.5t286 98.5t105 266.5v965h160v-951q0 -226 -150 -369t-401 -143t-401 143t-150 369z" />
<glyph unicode="V" horiz-adv-x="1277" d="M53 1434h156l430 -1280l430 1280h156l-498 -1434h-176z" />
<glyph unicode="W" horiz-adv-x="1888" d="M72 1434h153l271 -1221l368 1221h160l369 -1221l270 1221h154l-340 -1434h-154l-379 1260l-379 -1260h-153z" />
<glyph unicode="X" horiz-adv-x="1286" d="M66 0l495 729l-477 705h164l395 -582l395 582h164l-477 -705l496 -729h-168l-410 606l-410 -606h-167z" />
<glyph unicode="Y" horiz-adv-x="1236" d="M29 1434h168l421 -746l422 746h168l-510 -891v-543h-159v543z" />
<glyph unicode="Z" horiz-adv-x="1275" d="M135 0v133l817 1167h-780v134h950v-134l-817 -1167h840v-133h-1010z" />
<glyph unicode="[" horiz-adv-x="743" d="M176 -274v1876h486v-127h-330v-1622h330v-127h-486z" />
<glyph unicode="\" horiz-adv-x="866" d="M72 1536h145l578 -1751h-146z" />
<glyph unicode="]" horiz-adv-x="743" d="M80 -147h330v1622h-330v127h485v-1876h-485v127z" />
<glyph unicode="^" horiz-adv-x="1019" d="M113 864l329 570h136l329 -570h-153l-244 439l-244 -439h-153z" />
<glyph unicode="_" horiz-adv-x="1017" d="M-2 -168h1022v-74h-1022v74z" />
<glyph unicode="`" horiz-adv-x="727" d="M186 1483h191l164 -291h-154z" />
<glyph unicode="a" horiz-adv-x="1179" d="M119 305q0 151 113.5 239.5t302.5 88.5q113 0 197.5 -38t137.5 -93v194q0 111 -70 182.5t-192 71.5q-192 0 -262 -157h-143q40 132 146.5 206t260.5 74q190 0 303 -108.5t113 -268.5v-696h-149v131q-37 -61 -137.5 -108.5t-223.5 -47.5q-183 0 -290 92.5t-107 237.5z M266 303q0 -106 79 -166.5t204 -60.5q127 0 224 66.5t97 164.5q0 95 -95 159t-218 64q-133 0 -212 -60t-79 -167z" />
<glyph unicode="b" horiz-adv-x="1220" d="M166 0v1495h156v-602q49 82 140 131t210 49q196 0 315 -131.5t119 -337.5v-160q0 -132 -51 -237.5t-152 -168.5t-235 -63q-124 0 -221.5 56t-133.5 133v-164h-147zM322 463q0 -158 84.5 -259.5t234.5 -101.5q105 0 176 48t102 124.5t31 176.5v147q0 151 -81.5 249.5 t-225.5 98.5q-135 0 -228 -95.5t-93 -252.5v-135z" />
<glyph unicode="c" horiz-adv-x="1146" d="M115 436v176q0 202 125.5 331.5t339.5 129.5q194 0 316.5 -111.5t131.5 -281.5h-139q-17 117 -92.5 193.5t-214.5 76.5q-156 0 -236 -91t-80 -245v-180q0 -154 80 -245t236 -91q139 0 214.5 76.5t92.5 194.5h139q-9 -170 -131.5 -282t-316.5 -112q-214 0 -339.5 129.5 t-125.5 331.5z" />
<glyph unicode="d" horiz-adv-x="1220" d="M115 444v160q0 206 119 337.5t315 131.5q119 0 210 -49t140 -131v602h156v-1495h-148v164q-36 -77 -133 -133t-221 -56q-134 0 -235 63t-152 168.5t-51 237.5zM270 451q0 -74 18.5 -136t55 -110.5t97 -75.5t139.5 -27q150 0 234.5 101.5t84.5 259.5v135q0 157 -93 252.5 t-228 95.5q-144 0 -226 -98.5t-82 -249.5v-147z" />
<glyph unicode="e" horiz-adv-x="1134" d="M115 432v168q0 218 119 345.5t337 127.5q145 0 247 -61t150 -162.5t48 -233.5v-155h-752v-37q0 -146 79 -238t235 -92q114 0 187.5 55t100.5 148h140q-26 -142 -145 -232t-283 -90q-207 0 -335 123.5t-128 333.5zM264 580h606v49q0 147 -75.5 236t-223.5 89 q-82 0 -142.5 -26t-96 -73t-52 -107.5t-16.5 -135.5v-32z" />
<glyph unicode="f" horiz-adv-x="720" d="M86 922v127h154v139q0 155 73 231t230 76h147v-127h-135q-83 0 -121.5 -40t-38.5 -128v-151h258v-127h-258v-922h-155v922h-154z" />
<glyph unicode="g" horiz-adv-x="1216" d="M115 471v174q0 185 114.5 306.5t315.5 121.5q93 0 169.5 -31.5t119.5 -74.5t67 -93v175h150v-1049q0 -163 -132 -272t-331 -109q-162 0 -287.5 71t-167.5 197h154q83 -145 301 -145q137 0 222 71.5t85 190.5v238q-26 -77 -126 -138t-226 -61q-197 0 -312.5 123 t-115.5 305zM268 483q0 -149 78 -231t227 -82q138 0 230 86t92 231v136q0 135 -90.5 229t-224.5 94q-153 0 -232.5 -80.5t-79.5 -232.5v-150z" />
<glyph unicode="h" horiz-adv-x="1204" d="M166 0v1495h156v-608q101 186 342 186q177 0 281 -111t104 -300v-662h-156v639q0 140 -66 219.5t-202 79.5q-135 0 -219 -82.5t-84 -239.5v-616h-156z" />
<glyph unicode="i" horiz-adv-x="507" d="M156 1325q0 42 27 68t71 26t71 -26t27 -68t-27 -68t-71 -26t-71 26t-27 68zM176 0v1049h156v-1049h-156z" />
<glyph unicode="j" horiz-adv-x="507" d="M-18 -231h55q73 0 106 29t33 98v1153h156v-1164q0 -116 -64.5 -178.5t-185.5 -62.5h-100v125zM156 1325q0 42 27 68t71 26t71 -26t27 -68t-27 -68t-71 -26t-71 26t-27 68z" />
<glyph unicode="k" horiz-adv-x="1050" d="M166 0v1495h156v-940l452 494h195l-480 -506l500 -543h-194l-473 528v-528h-156z" />
<glyph unicode="l" horiz-adv-x="507" d="M176 0v1495h156v-1495h-156z" />
<glyph unicode="m" horiz-adv-x="1906" d="M166 0v1049h147v-179q38 93 126 148t220 55q116 0 202.5 -54t131.5 -151q56 96 152.5 150.5t228.5 54.5q171 0 274 -112.5t103 -298.5v-662h-156v639q0 137 -67 218t-193 81q-135 0 -217 -82.5t-82 -239.5v-616h-155v639q0 137 -67 218t-193 81q-135 0 -217 -82.5 t-82 -239.5v-616h-156z" />
<glyph unicode="n" horiz-adv-x="1204" d="M166 0v1049h147v-179q38 93 128.5 148t222.5 55q177 0 281 -111t104 -300v-662h-156v639q0 140 -66 219.5t-202 79.5q-135 0 -219 -82.5t-84 -239.5v-616h-156z" />
<glyph unicode="o" horiz-adv-x="1165" d="M115 438v172q0 130 54.5 234t162.5 166.5t252 62.5q216 0 341.5 -131.5t125.5 -331.5v-172q0 -200 -125.5 -331.5t-341.5 -131.5q-145 0 -253 62.5t-162 166.5t-54 234zM266 440q0 -153 83 -246.5t235 -93.5q151 0 234 93t83 247v168q0 154 -83 247t-234 93 q-152 0 -235 -93.5t-83 -246.5v-168z" />
<glyph unicode="p" horiz-adv-x="1220" d="M166 -356v1405h147v-164q36 77 133.5 132.5t221.5 55.5q205 0 321.5 -131.5t116.5 -337.5v-160q0 -206 -119 -337.5t-315 -131.5q-119 0 -210 49t-140 132v-512h-156zM322 451q0 -157 93 -253t228 -96q144 0 225.5 99t81.5 250v147q0 100 -31 176.5t-102 124t-176 47.5 q-151 0 -235 -101t-84 -259v-135z" />
<glyph unicode="q" horiz-adv-x="1220" d="M115 444v160q0 204 118.5 336.5t319.5 132.5q124 0 221 -55.5t133 -132.5v164h148v-1405h-156v512q-49 -83 -140 -132t-210 -49q-196 0 -315 131.5t-119 337.5zM270 451q0 -151 82 -250t226 -99q135 0 228 96t93 253v135q0 158 -84 259t-235 101q-155 0 -232.5 -97 t-77.5 -251v-147z" />
<glyph unicode="r" horiz-adv-x="722" d="M166 0v1049h145v-242q60 248 342 248h25v-146h-31q-153 0 -239 -100.5t-86 -294.5v-514h-156z" />
<glyph unicode="s" horiz-adv-x="1077" d="M117 305v10h141v-6q0 -97 82.5 -157t212.5 -60q127 0 202.5 50.5t75.5 148.5q0 56 -34 94t-97 51l-311 72q-118 26 -182 95t-64 171q0 144 109.5 221.5t288.5 77.5q166 0 277.5 -92t111.5 -236v-10h-142v6q0 98 -66.5 156.5t-182.5 58.5q-113 0 -182.5 -46.5 t-69.5 -131.5q0 -109 110 -135l322 -76q127 -31 192.5 -95.5t65.5 -174.5q0 -139 -120.5 -230.5t-305.5 -91.5q-193 0 -313.5 89.5t-120.5 240.5z" />
<glyph unicode="t" horiz-adv-x="763" d="M74 922v127h178v301h156v-301h268v-127h-268v-643q0 -81 34.5 -116.5t120.5 -35.5h105v-127h-131q-285 0 -285 279v643h-178z" />
<glyph unicode="u" horiz-adv-x="1193" d="M156 387v662h155v-639q0 -140 64 -222t194 -82q135 0 219 84.5t84 241.5v617h156v-1049h-147v178q-38 -93 -128.5 -148t-222.5 -55q-172 0 -273 111.5t-101 300.5z" />
<glyph unicode="v" horiz-adv-x="1040" d="M53 1049h154l313 -893l314 893h153l-385 -1049h-164z" />
<glyph unicode="w" horiz-adv-x="1556" d="M66 1049h147l221 -863l271 863h147l270 -863l221 863h148l-287 -1049h-147l-279 885l-278 -885h-148z" />
<glyph unicode="x" horiz-adv-x="1040" d="M72 0l368 532l-354 517h162l272 -400l273 400h161l-354 -517l369 -532h-164l-285 418l-284 -418h-164z" />
<glyph unicode="y" horiz-adv-x="1040" d="M53 1049h154l319 -891l308 891h153l-387 -1049l-137 -356h-152l133 356z" />
<glyph unicode="z" horiz-adv-x="1021" d="M117 0v117l618 809h-594v123h766v-117l-618 -809h626v-123h-798z" />
<glyph unicode="{" horiz-adv-x="870" d="M66 600v127h57q98 0 149.5 54t51.5 153v360q0 144 81.5 226t239.5 82h139v-127h-114q-102 0 -146.5 -47t-44.5 -140v-366q0 -224 -198 -258q198 -34 198 -258v-367q0 -93 44.5 -139.5t146.5 -46.5h114v-127h-139q-158 0 -239.5 81.5t-81.5 225.5v360q0 99 -51.5 153 t-149.5 54h-57z" />
<glyph unicode="|" horiz-adv-x="622" d="M246 -307v1945h131v-1945h-131z" />
<glyph unicode="}" horiz-adv-x="870" d="M86 -147h115q102 0 146 46.5t44 139.5v367q0 224 199 258q-199 34 -199 258v366q0 93 -44 140t-146 47h-115v127h139q158 0 240 -82t82 -226v-360q0 -99 51.5 -153t149.5 -54h57v-127h-57q-98 0 -149.5 -54t-51.5 -153v-360q0 -144 -82 -225.5t-240 -81.5h-139v127z" />
<glyph unicode="~" horiz-adv-x="1220" d="M133 600q10 307 254 307q55 0 127 -31.5t129 -68.5t116.5 -68.5t92.5 -31.5q22 0 39 6.5t28.5 23t18.5 28.5t12.5 40t7 39t5.5 43l135 -19q-2 -60 -16.5 -111.5t-42 -93.5t-74 -66t-107.5 -24q-49 0 -117.5 31.5t-125 69t-119 69t-99.5 31.5q-29 0 -50.5 -9.5t-34.5 -24 t-22 -40.5t-13.5 -49.5t-8.5 -60.5z" />
<glyph unicode="&#xa1;" horiz-adv-x="536" d="M164 1346q0 44 29.5 72t74.5 28t75 -28t30 -72t-29.5 -72.5t-75.5 -28.5t-75 28.5t-29 72.5zM186 0v543l41 514h82l41 -514v-543h-164z" />
<glyph unicode="&#xa2;" horiz-adv-x="1169" d="M145 641v152q0 178 101.5 292t269.5 138v211h154v-211q155 -23 246.5 -115t107.5 -225h-143q-16 97 -90.5 158t-196.5 61q-141 0 -219 -81.5t-78 -229.5v-148q0 -148 78 -229.5t219 -81.5q122 0 196.5 61t90.5 158h143q-15 -132 -111 -226.5t-245 -115.5v-209h-154v209 q-169 24 -269 138t-100 294z" />
<glyph unicode="&#xa3;" horiz-adv-x="1353" d="M150 0v127h247v496h-219v127h219v292q0 205 109.5 312.5t308.5 107.5q194 0 304 -106.5t110 -280.5v-33h-146v31q0 119 -69.5 190.5t-196.5 71.5q-266 0 -266 -291v-294h426v-127h-426v-496h604v-127h-1005z" />
<glyph unicode="&#xa4;" horiz-adv-x="1228" d="M150 176l167 256q-73 92 -73 221v123q0 126 73 221l-167 256h155l113 -174q83 47 196 47q115 0 195 -47l115 174h155l-170 -256q76 -95 76 -221v-123q0 -129 -76 -221l170 -256h-155l-115 172q-82 -45 -195 -45q-111 0 -196 45l-113 -172h-155zM377 647q0 -102 61 -166.5 t176 -64.5t176.5 64.5t61.5 166.5v135q0 102 -61.5 167t-176.5 65t-176 -65t-61 -167v-135z" />
<glyph unicode="&#xa5;" horiz-adv-x="1216" d="M123 1434h166l319 -713l320 713h166l-287 -603h246v-118h-301l-68 -144v-100h369v-119h-369v-350h-152v350h-368v119h368v100l-67 144h-301v118h244z" />
<glyph unicode="&#xa6;" horiz-adv-x="622" d="M246 -307v784h131v-784h-131zM246 856v782h131v-782h-131z" />
<glyph unicode="&#xa7;" horiz-adv-x="1245" d="M156 662q0 168 161 276q-84 74 -84 201q0 150 108.5 236.5t289.5 86.5q193 0 302 -90.5t109 -247.5v-24h-133v24q0 104 -71.5 165t-204.5 61q-122 0 -190 -53.5t-68 -151.5q0 -71 38 -114t111 -73l367 -153q106 -45 157.5 -111t51.5 -172q0 -73 -41.5 -149t-100.5 -127 q66 -72 66 -185q0 -140 -114.5 -231.5t-291.5 -91.5q-186 0 -300.5 92.5t-114.5 245.5v24h139v-20q0 -103 71 -166.5t205 -63.5q119 0 192 53t73 152q0 127 -150 183l-346 137q-114 42 -172.5 110t-58.5 177zM293 672q0 -68 34.5 -111.5t116.5 -73.5l314 -127 q81 -33 112 -49q93 104 93 203q0 62 -30 105.5t-102 74.5l-331 142q-58 25 -92 41q-115 -89 -115 -205z" />
<glyph unicode="&#xa8;" horiz-adv-x="944" d="M168 1333q0 42 27 68t71 26t71.5 -26.5t27.5 -67.5t-27.5 -67.5t-71.5 -26.5t-71 26t-27 68zM578 1333q0 42 27 68t71 26t71 -26t27 -68t-27 -68t-71 -26t-71 26t-27 68z" />
<glyph unicode="&#xa9;" horiz-adv-x="1765" d="M143 717q0 150 53 285t148 236t235 160.5t304 59.5t304 -59.5t234.5 -160.5t147.5 -236t53 -285t-53 -285t-147.5 -236.5t-234.5 -161t-304 -59.5t-304 59.5t-235 161t-148 236.5t-53 285zM203 717q0 -139 47.5 -263.5t133.5 -219t215.5 -150t283.5 -55.5t283.5 55.5 t215.5 150t133.5 219t47.5 263.5t-47.5 263.5t-133.5 219t-215.5 150t-283.5 55.5t-283.5 -55.5t-215.5 -150t-133.5 -219t-47.5 -263.5zM584 657v119q0 134 78 224t221 90q120 0 197.5 -72t86.5 -176h-92q-10 74 -58 120t-134 46q-102 0 -153.5 -63.5t-51.5 -168.5v-119 q0 -105 51.5 -168t153.5 -63q86 0 134 46t58 120h92q-9 -104 -86.5 -176t-197.5 -72q-143 0 -221 89.5t-78 223.5z" />
<glyph unicode="&#xaa;" horiz-adv-x="868" d="M131 969q0 100 74.5 156.5t193.5 56.5q70 0 122 -23.5t81 -54.5v102q0 72 -41 117t-117 45q-64 0 -105.5 -27t-57.5 -73h-95q18 88 87.5 136t172.5 48q116 0 189.5 -70.5t73.5 -177.5v-428h-101v82q-21 -37 -86 -67.5t-137 -30.5q-114 0 -184 59t-70 150zM133 537v92h596 v-92h-596zM233 969q0 -63 48.5 -99t126.5 -36q83 0 139.5 39t56.5 98q0 57 -58 98t-136 41q-85 0 -131 -36.5t-46 -104.5z" />
<glyph unicode="&#xab;" horiz-adv-x="1257" d="M74 557l352 434h178l-352 -434l352 -434h-178zM612 557l353 434h178l-352 -434l352 -434h-178z" />
<glyph unicode="&#xac;" horiz-adv-x="1200" d="M123 676v123h913v-541h-139v418h-774z" />
<glyph unicode="&#xad;" horiz-adv-x="845" d="M137 571v138h572v-138h-572z" />
<glyph unicode="&#xae;" horiz-adv-x="1093" d="M102 1024q0 86 31 164.5t87.5 138.5t141 95.5t185.5 35.5q133 0 236 -61t155.5 -159t52.5 -214t-52.5 -214t-155.5 -159t-236 -61q-101 0 -185.5 35.5t-141 95.5t-87.5 138.5t-31 164.5zM150 1024q0 -167 109 -280t288 -113t288 113t109 280t-109 280t-288 113t-288 -113 t-109 -280zM410 844v391h180q62 0 97.5 -37t35.5 -92q0 -40 -23 -73t-61 -48l82 -141h-74l-72 133h-102v-133h-63zM473 1030h96q90 0 90 76q0 36 -22.5 57t-67.5 21h-96v-154z" />
<glyph unicode="&#xaf;" horiz-adv-x="993" d="M186 1264v118h621v-118h-621z" />
<glyph unicode="&#xb0;" horiz-adv-x="811" d="M102 1151q0 126 80 214.5t224 88.5q143 0 223 -88t80 -215t-80 -215t-223 -88q-144 0 -224 88.5t-80 214.5zM193 1151q0 -93 55 -159t158 -66t157.5 65.5t54.5 159.5t-54.5 159.5t-157.5 65.5t-158 -66t-55 -159z" />
<glyph unicode="&#xb1;" horiz-adv-x="1261" d="M174 0v123h913v-123h-913zM174 698v123h387v396h139v-396h387v-123h-387v-395h-139v395h-387z" />
<glyph unicode="&#xb2;" horiz-adv-x="849" d="M154 952v88l346 318q80 73 80 145q0 58 -40.5 93.5t-111.5 35.5q-76 0 -116 -37t-40 -106v-14h-108v18q0 111 72.5 174.5t193.5 63.5q120 0 193 -63.5t73 -162.5q0 -66 -32.5 -118t-96.5 -107l-264 -231h383v-97h-532z" />
<glyph unicode="&#xb3;" horiz-adv-x="856" d="M143 1167h105q9 -66 55.5 -102.5t118.5 -36.5q77 0 122.5 41t45.5 105t-47 99.5t-131 35.5h-103v84l223 231h-325v90h465v-90l-230 -233h7q109 0 181 -56.5t72 -156.5q0 -109 -83 -174.5t-201 -65.5q-108 0 -188 62.5t-87 166.5z" />
<glyph unicode="&#xb4;" horiz-adv-x="727" d="M186 1192l166 291h189l-201 -291h-154z" />
<glyph unicode="&#xb5;" horiz-adv-x="1204" d="M166 -356v1405h156v-654q0 -133 65 -211t193 -78q135 0 219 84.5t84 241.5v617h155v-1049h-147v178q-44 -94 -131.5 -148.5t-218.5 -54.5q-63 0 -121.5 23t-97.5 61v-415h-156z" />
<glyph unicode="&#xb6;" horiz-adv-x="1179" d="M115 911q0 245 141.5 384t398.5 139h328v-1790h-113v1693h-215v-944q-251 0 -395.5 138.5t-144.5 379.5z" />
<glyph unicode="&#xb7;" horiz-adv-x="487" d="M139 594q0 44 29.5 72t75.5 28t75 -28t29 -72t-29.5 -72t-74.5 -28t-75 28t-30 72z" />
<glyph unicode="&#xb8;" horiz-adv-x="714" d="M190 -279q56 -12 113 -12q103 0 103 55q0 50 -89 56l-94 6l39 174h98l-16 -94l27 -2q157 -10 157 -133q0 -69 -55 -110.5t-147 -41.5q-72 0 -136 12v90z" />
<glyph unicode="&#xb9;" horiz-adv-x="622" d="M123 1530v102l196 82h99v-762h-117v647z" />
<glyph unicode="&#xba;" horiz-adv-x="901" d="M145 1059v90q0 133 83.5 218t222.5 85t222 -85t83 -218v-90q0 -133 -83 -218t-222 -85t-222.5 85t-83.5 218zM168 537v92h565v-92h-565zM248 1059q0 -97 52 -157t151 -60t150.5 60t51.5 157v90q0 97 -51.5 157t-150.5 60t-151 -60t-52 -157v-90z" />
<glyph unicode="&#xbb;" horiz-adv-x="1257" d="M115 123l352 434l-352 434h178l352 -434l-352 -434h-178zM653 123l353 434l-353 434h178l353 -434l-353 -434h-178z" />
<glyph unicode="&#xbc;" horiz-adv-x="1632" d="M143 1249v103l197 82h98v-762h-116v647zM342 0l743 1434h119l-743 -1434h-119zM895 172v90l258 500h111l-250 -496h272v162h109v-162h104v-94h-104v-172h-109v172h-391z" />
<glyph unicode="&#xbd;" horiz-adv-x="1667" d="M143 1249v103l197 82h98v-762h-116v647zM342 0l743 1434h119l-743 -1434h-119zM991 0v88l346 318q80 73 80 145q0 58 -40 93.5t-111 35.5q-76 0 -116 -37t-40 -106v-15h-109v19q0 111 72.5 174t194.5 63q120 0 193 -63t73 -162q0 -65 -32.5 -115.5t-96.5 -109.5 l-264 -232h383v-96h-533z" />
<glyph unicode="&#xbe;" horiz-adv-x="1767" d="M154 887h104q9 -66 55.5 -102.5t118.5 -36.5q77 0 122.5 40.5t45.5 104.5t-47 99.5t-131 35.5h-103v84l224 231h-326v91h465v-91l-229 -233h6q109 0 181.5 -56.5t72.5 -156.5q0 -108 -83.5 -174t-201.5 -66q-108 0 -187.5 63t-86.5 167zM477 0l744 1434h118l-743 -1434 h-119zM1030 172v90l258 500h111l-250 -496h272v162h109v-162h104v-94h-104v-172h-109v172h-391z" />
<glyph unicode="&#xbf;" horiz-adv-x="1038" d="M104 322q0 179 162 303l109 84q76 59 101.5 112t25.5 168v86h137v-96q0 -134 -30.5 -210.5t-108.5 -137.5l-103 -80q-71 -56 -104 -106.5t-33 -122.5q0 -104 73.5 -164t198.5 -60q126 0 197.5 64t71.5 184v39h143v-41q0 -181 -110.5 -277t-303.5 -96q-191 0 -308.5 97.5 t-117.5 253.5zM465 1346q0 44 29.5 72t74.5 28t75 -28t30 -72t-29.5 -72.5t-75.5 -28.5t-75 28.5t-29 72.5z" />
<glyph unicode="&#xc0;" horiz-adv-x="1392" d="M78 0l538 1434h160l539 -1434h-158l-131 365h-661l-129 -365h-158zM410 492h571l-285 796zM420 1815h188l148 -259h-156z" />
<glyph unicode="&#xc1;" horiz-adv-x="1392" d="M78 0l538 1434h160l539 -1434h-158l-131 365h-661l-129 -365h-158zM410 492h571l-285 796zM643 1556l148 259h188l-180 -259h-156z" />
<glyph unicode="&#xc2;" horiz-adv-x="1392" d="M78 0l538 1434h160l539 -1434h-158l-131 365h-661l-129 -365h-158zM383 1556l238 259h151l238 -259h-152l-162 175l-161 -175h-152zM410 492h571l-285 796z" />
<glyph unicode="&#xc3;" horiz-adv-x="1392" d="M78 0l538 1434h160l539 -1434h-158l-131 365h-661l-129 -365h-158zM313 1575q33 229 209 229q54 0 129.5 -32t140.5 -63.5t93 -31.5q11 0 20 2t16.5 7.5t13.5 10t11.5 14.5t9 16t8 20t6.5 20.5t6.5 22.5t6.5 22l104 -30q-12 -48 -26.5 -83t-37 -67t-56.5 -48.5t-78 -16.5 q-46 0 -115.5 31.5t-138 63.5t-109.5 32q-49 0 -71.5 -35t-34.5 -103zM410 492h571l-285 796z" />
<glyph unicode="&#xc4;" horiz-adv-x="1392" d="M78 0l538 1434h160l539 -1434h-158l-131 365h-661l-129 -365h-158zM371 1696q0 42 27 68t71 26t71 -26t27 -68t-27 -68t-71 -26t-71 26t-27 68zM410 492h571l-285 796zM825 1696q0 41 27.5 67.5t71.5 26.5t71 -26t27 -68t-27 -68t-71 -26t-71.5 26.5t-27.5 67.5z" />
<glyph unicode="&#xc5;" horiz-adv-x="1392" d="M78 0l518 1382q-41 22 -64.5 62t-23.5 88q0 73 51.5 122.5t136.5 49.5t137 -49.5t52 -122.5q0 -48 -24 -88t-66 -62l520 -1382h-158l-131 365h-661l-129 -365h-158zM410 492h571l-285 796zM594 1532q0 -44 27 -71t75 -27t75.5 27t27.5 71t-27.5 71t-75.5 27t-75 -27 t-27 -71z" />
<glyph unicode="&#xc6;" horiz-adv-x="2131" d="M25 0l976 1434h1016v-134h-786v-507h727v-134h-727v-526h788v-133h-948v375h-625l-249 -375h-172zM532 504h539v807z" />
<glyph unicode="&#xc7;" horiz-adv-x="1435" d="M143 596v242q0 181 65.5 320t202 221.5t328.5 82.5q121 0 224.5 -40t175 -109t114.5 -159.5t52 -192.5h-154q-10 76 -39.5 141t-79.5 116.5t-125.5 81t-169.5 29.5q-212 0 -323 -132.5t-111 -352.5v-254q0 -220 111 -353t323 -133q94 0 169.5 29.5t125.5 81.5t79.5 117 t39.5 141h154q-18 -202 -160 -344.5t-365 -155.5l-10 -67l27 -2q157 -10 157 -133q0 -69 -55 -110.5t-147 -41.5q-72 0 -136 12v90q56 -12 113 -12q102 0 102 55q0 50 -88 56l-94 6l33 147q-175 12 -298 97t-182 219t-59 307z" />
<glyph unicode="&#xc8;" horiz-adv-x="1247" d="M186 0v1434h947v-134h-787v-507h727v-134h-727v-526h789v-133h-949zM414 1815h188l148 -259h-156z" />
<glyph unicode="&#xc9;" horiz-adv-x="1247" d="M186 0v1434h947v-134h-787v-507h727v-134h-727v-526h789v-133h-949zM567 1556l148 259h188l-180 -259h-156z" />
<glyph unicode="&#xca;" horiz-adv-x="1247" d="M186 0v1434h947v-134h-787v-507h727v-134h-727v-526h789v-133h-949zM346 1556l238 259h151l238 -259h-152l-162 175l-161 -175h-152z" />
<glyph unicode="&#xcb;" horiz-adv-x="1247" d="M186 0v1434h947v-134h-787v-507h727v-134h-727v-526h789v-133h-949zM334 1696q0 42 27 68t71 26t71 -26t27 -68t-27 -68t-71 -26t-71 26t-27 68zM788 1696q0 41 27.5 67.5t71.5 26.5t71 -26t27 -68t-27 -68t-71 -26t-71.5 26.5t-27.5 67.5z" />
<glyph unicode="&#xcc;" horiz-adv-x="552" d="M16 1815h189l147 -259h-155zM197 0v1434h159v-1434h-159z" />
<glyph unicode="&#xcd;" horiz-adv-x="552" d="M197 0v1434h159v-1434h-159zM213 1556l147 259h189l-180 -259h-156z" />
<glyph unicode="&#xce;" horiz-adv-x="552" d="M-37 1556l238 259h151l238 -259h-152l-162 175l-161 -175h-152zM197 0v1434h159v-1434h-159z" />
<glyph unicode="&#xcf;" horiz-adv-x="552" d="M-49 1696q0 42 27 68t71 26t71 -26t27 -68t-27 -68t-71 -26t-71 26t-27 68zM197 0v1434h159v-1434h-159zM406 1696q0 42 27 68t71 26t71 -26t27 -68t-27 -68t-71 -26t-71 26t-27 68z" />
<glyph unicode="&#xd0;" horiz-adv-x="1497" d="M80 651v131h172v652h539q267 0 416 -152.5t149 -398.5v-332q0 -246 -149 -398.5t-416 -152.5h-539v651h-172zM410 131h358q207 0 318.5 114t111.5 306v332q0 192 -111.5 306t-318.5 114h-358v-521h376v-131h-376v-520z" />
<glyph unicode="&#xd1;" horiz-adv-x="1466" d="M186 0v1434h150l788 -1178v1178h156v-1434h-150l-788 1178v-1178h-156zM356 1575q33 229 209 229q54 0 129.5 -32t140.5 -63.5t93 -31.5q11 0 20 2t16.5 7.5t13.5 10t11.5 14.5t9 16t8 20t6.5 20.5t6.5 22.5t6.5 22l104 -30q-12 -48 -26.5 -83t-37 -67t-56.5 -48.5 t-78 -16.5q-46 0 -115.5 31.5t-138 63.5t-109.5 32q-49 0 -71.5 -35t-34.5 -103z" />
<glyph unicode="&#xd2;" d="M143 602v229q0 131 38.5 244.5t111.5 200.5t189.5 136.5t262.5 49.5t262.5 -49.5t190 -136.5t112 -200.5t38.5 -244.5v-229q0 -131 -38.5 -244.5t-112 -200.5t-190 -136.5t-262.5 -49.5t-262.5 49.5t-189.5 136.5t-111.5 200.5t-38.5 244.5zM303 594q0 -103 26.5 -190.5 t79.5 -155.5t139 -106t197 -38q89 0 163 25t125 69.5t86.5 106.5t52 134.5t16.5 154.5v246q0 103 -27 190.5t-79.5 155t-139 105.5t-197.5 38t-197 -38t-139 -105.5t-79.5 -155t-26.5 -190.5v-246zM496 1815h188l147 -259h-155z" />
<glyph unicode="&#xd3;" d="M143 602v229q0 131 38.5 244.5t111.5 200.5t189.5 136.5t262.5 49.5t262.5 -49.5t190 -136.5t112 -200.5t38.5 -244.5v-229q0 -131 -38.5 -244.5t-112 -200.5t-190 -136.5t-262.5 -49.5t-262.5 49.5t-189.5 136.5t-111.5 200.5t-38.5 244.5zM303 594q0 -103 26.5 -190.5 t79.5 -155.5t139 -106t197 -38q89 0 163 25t125 69.5t86.5 106.5t52 134.5t16.5 154.5v246q0 103 -27 190.5t-79.5 155t-139 105.5t-197.5 38t-197 -38t-139 -105.5t-79.5 -155t-26.5 -190.5v-246zM674 1556l147 259h189l-181 -259h-155z" />
<glyph unicode="&#xd4;" d="M143 602v229q0 131 38.5 244.5t111.5 200.5t189.5 136.5t262.5 49.5t262.5 -49.5t190 -136.5t112 -200.5t38.5 -244.5v-229q0 -131 -38.5 -244.5t-112 -200.5t-190 -136.5t-262.5 -49.5t-262.5 49.5t-189.5 136.5t-111.5 200.5t-38.5 244.5zM303 594q0 -103 26.5 -190.5 t79.5 -155.5t139 -106t197 -38q89 0 163 25t125 69.5t86.5 106.5t52 134.5t16.5 154.5v246q0 103 -27 190.5t-79.5 155t-139 105.5t-197.5 38t-197 -38t-139 -105.5t-79.5 -155t-26.5 -190.5v-246zM432 1556l238 259h151l238 -259h-152l-162 175l-161 -175h-152z" />
<glyph unicode="&#xd5;" d="M143 602v229q0 131 38.5 244.5t111.5 200.5t189.5 136.5t262.5 49.5t262.5 -49.5t190 -136.5t112 -200.5t38.5 -244.5v-229q0 -131 -38.5 -244.5t-112 -200.5t-190 -136.5t-262.5 -49.5t-262.5 49.5t-189.5 136.5t-111.5 200.5t-38.5 244.5zM303 594q0 -103 26.5 -190.5 t79.5 -155.5t139 -106t197 -38q89 0 163 25t125 69.5t86.5 106.5t52 134.5t16.5 154.5v246q0 103 -27 190.5t-79.5 155t-139 105.5t-197.5 38t-197 -38t-139 -105.5t-79.5 -155t-26.5 -190.5v-246zM362 1575q33 229 209 229q54 0 129.5 -32t140.5 -63.5t93 -31.5q11 0 20 2 t16.5 7.5t13.5 10t11.5 14.5t9 16t8 20t6.5 20.5t6.5 22.5t6.5 22l105 -30q-25 -101 -70 -158t-129 -57q-46 0 -115.5 31.5t-138 63.5t-109.5 32q-49 0 -71.5 -35t-34.5 -103z" />
<glyph unicode="&#xd6;" d="M143 602v229q0 131 38.5 244.5t111.5 200.5t189.5 136.5t262.5 49.5t262.5 -49.5t190 -136.5t112 -200.5t38.5 -244.5v-229q0 -131 -38.5 -244.5t-112 -200.5t-190 -136.5t-262.5 -49.5t-262.5 49.5t-189.5 136.5t-111.5 200.5t-38.5 244.5zM303 594q0 -103 26.5 -190.5 t79.5 -155.5t139 -106t197 -38q89 0 163 25t125 69.5t86.5 106.5t52 134.5t16.5 154.5v246q0 103 -27 190.5t-79.5 155t-139 105.5t-197.5 38t-197 -38t-139 -105.5t-79.5 -155t-26.5 -190.5v-246zM420 1696q0 42 27 68t71 26t71 -26t27 -68t-27 -68t-71 -26t-71 26t-27 68z M874 1696q0 41 27.5 67.5t71.5 26.5t71 -26t27 -68t-27 -68t-71 -26t-71.5 26.5t-27.5 67.5z" />
<glyph unicode="&#xd7;" horiz-adv-x="1175" d="M164 406l332 329l-332 332l94 92l330 -332l332 332l92 -92l-332 -332l332 -329l-92 -93l-332 330l-330 -330z" />
<glyph unicode="&#xd8;" d="M143 -102l162 245q-162 174 -162 459v229q0 131 38.5 244.5t111.5 200.5t189.5 136.5t262.5 49.5q208 0 357 -102l117 176h129l-162 -248q79 -86 120.5 -204t41.5 -253v-229q0 -131 -38.5 -244.5t-112 -200.5t-190 -136.5t-262.5 -49.5q-211 0 -358 103l-115 -176h-129z M303 594q0 -195 86 -320l635 967q-112 88 -279 88q-111 0 -197 -38t-139 -105.5t-79.5 -155t-26.5 -190.5v-246zM465 193q113 -89 280 -89q89 0 163 25t125 69.5t86.5 106.5t52 134.5t16.5 154.5v246q0 191 -88 319z" />
<glyph unicode="&#xd9;" horiz-adv-x="1449" d="M174 483v951h160v-965q0 -168 105 -266.5t286 -98.5t286 98.5t105 266.5v965h160v-951q0 -226 -150 -369t-401 -143t-401 143t-150 369zM485 1815h189l147 -259h-155z" />
<glyph unicode="&#xda;" horiz-adv-x="1449" d="M174 483v951h160v-965q0 -168 105 -266.5t286 -98.5t286 98.5t105 266.5v965h160v-951q0 -226 -150 -369t-401 -143t-401 143t-150 369zM637 1556l147 259h189l-180 -259h-156z" />
<glyph unicode="&#xdb;" horiz-adv-x="1449" d="M174 483v951h160v-965q0 -168 105 -266.5t286 -98.5t286 98.5t105 266.5v965h160v-951q0 -226 -150 -369t-401 -143t-401 143t-150 369zM412 1556l237 259h152l237 -259h-151l-162 175l-162 -175h-151z" />
<glyph unicode="&#xdc;" horiz-adv-x="1449" d="M174 483v951h160v-965q0 -168 105 -266.5t286 -98.5t286 98.5t105 266.5v965h160v-951q0 -226 -150 -369t-401 -143t-401 143t-150 369zM397 1696q0 41 27.5 67.5t71.5 26.5t71 -26t27 -68t-27 -68t-71 -26t-71.5 26.5t-27.5 67.5zM852 1696q0 42 27 68t71 26t71.5 -26.5 t27.5 -67.5t-27.5 -67.5t-71.5 -26.5t-71 26t-27 68z" />
<glyph unicode="&#xdd;" horiz-adv-x="1236" d="M29 1434h168l421 -746l422 746h168l-510 -891v-543h-159v543zM532 1556l148 259h188l-180 -259h-156z" />
<glyph unicode="&#xde;" horiz-adv-x="1308" d="M186 0v1434h160v-236h402q221 0 354 -128.5t133 -326.5t-133 -328t-354 -130h-402v-285h-160zM346 418h387q168 0 255 92.5t87 232.5t-87 231t-255 91h-387v-647z" />
<glyph unicode="&#xdf;" horiz-adv-x="1232" d="M166 0v1094q0 200 119 304.5t319 104.5q198 0 321.5 -109.5t123.5 -279.5q0 -119 -63 -213t-165 -139q142 -29 225.5 -122.5t83.5 -242.5q0 -177 -123.5 -287t-324.5 -110h-78v127h70q138 0 220.5 74.5t82.5 204.5q0 128 -89 202t-231 74h-53v127q138 4 214.5 89.5 t76.5 205.5q0 121 -79 197.5t-212 76.5q-129 0 -205.5 -68.5t-76.5 -209.5v-1100h-156z" />
<glyph unicode="&#xe0;" horiz-adv-x="1179" d="M119 305q0 151 113.5 239.5t302.5 88.5q113 0 197.5 -38t137.5 -93v194q0 111 -70 182.5t-192 71.5q-192 0 -262 -157h-143q40 132 146.5 206t260.5 74q190 0 303 -108.5t113 -268.5v-696h-149v131q-37 -61 -137.5 -108.5t-223.5 -47.5q-183 0 -290 92.5t-107 237.5z M266 303q0 -106 79 -166.5t204 -60.5q127 0 224 66.5t97 164.5q0 95 -95 159t-218 64q-133 0 -212 -60t-79 -167zM346 1483h191l163 -291h-153z" />
<glyph unicode="&#xe1;" horiz-adv-x="1179" d="M119 305q0 151 113.5 239.5t302.5 88.5q113 0 197.5 -38t137.5 -93v194q0 111 -70 182.5t-192 71.5q-192 0 -262 -157h-143q40 132 146.5 206t260.5 74q190 0 303 -108.5t113 -268.5v-696h-149v131q-37 -61 -137.5 -108.5t-223.5 -47.5q-183 0 -290 92.5t-107 237.5z M266 303q0 -106 79 -166.5t204 -60.5q127 0 224 66.5t97 164.5q0 95 -95 159t-218 64q-133 0 -212 -60t-79 -167zM532 1192l166 291h189l-201 -291h-154z" />
<glyph unicode="&#xe2;" horiz-adv-x="1179" d="M119 305q0 151 113.5 239.5t302.5 88.5q113 0 197.5 -38t137.5 -93v194q0 111 -70 182.5t-192 71.5q-192 0 -262 -157h-143q40 132 146.5 206t260.5 74q190 0 303 -108.5t113 -268.5v-696h-149v131q-37 -61 -137.5 -108.5t-223.5 -47.5q-183 0 -290 92.5t-107 237.5z M266 303q0 -106 79 -166.5t204 -60.5q127 0 224 66.5t97 164.5q0 95 -95 159t-218 64q-133 0 -212 -60t-79 -167zM330 1192l225 291h152l225 -291h-146l-155 203l-156 -203h-145z" />
<glyph unicode="&#xe3;" horiz-adv-x="1179" d="M119 305q0 151 113.5 239.5t302.5 88.5q113 0 197.5 -38t137.5 -93v194q0 111 -70 182.5t-192 71.5q-192 0 -262 -157h-143q40 132 146.5 206t260.5 74q190 0 303 -108.5t113 -268.5v-696h-149v131q-37 -61 -137.5 -108.5t-223.5 -47.5q-183 0 -290 92.5t-107 237.5z M266 303q0 -106 79 -166.5t204 -60.5q127 0 224 66.5t97 164.5q0 95 -95 159t-218 64q-133 0 -212 -60t-79 -167zM268 1214q19 109 66 168.5t137 59.5q50 0 117.5 -32t125 -63.5t83.5 -31.5q11 0 20 2t16.5 8t13.5 10t11.5 15t8.5 16t8 20t6.5 20t6 22.5t5.5 21.5l102 -23 q-13 -50 -26 -84.5t-35 -69t-55.5 -52t-77.5 -17.5q-42 0 -103.5 32t-122 63.5t-100.5 31.5q-17 0 -31 -4t-24.5 -17t-16.5 -20t-13.5 -30.5t-9.5 -30t-9 -35.5z" />
<glyph unicode="&#xe4;" horiz-adv-x="1179" d="M119 305q0 151 113.5 239.5t302.5 88.5q113 0 197.5 -38t137.5 -93v194q0 111 -70 182.5t-192 71.5q-192 0 -262 -157h-143q40 132 146.5 206t260.5 74q190 0 303 -108.5t113 -268.5v-696h-149v131q-37 -61 -137.5 -108.5t-223.5 -47.5q-183 0 -290 92.5t-107 237.5z M266 303q0 -106 79 -166.5t204 -60.5q127 0 224 66.5t97 164.5q0 95 -95 159t-218 64q-133 0 -212 -60t-79 -167zM322 1333q0 42 27 68t71 26t71 -26t27 -68t-27 -68t-71 -26t-71 26t-27 68zM731 1333q0 42 27 68t71 26t71.5 -26.5t27.5 -67.5t-27.5 -67.5t-71.5 -26.5 t-71 26t-27 68z" />
<glyph unicode="&#xe5;" horiz-adv-x="1179" d="M119 305q0 151 113.5 239.5t302.5 88.5q113 0 197.5 -38t137.5 -93v194q0 111 -70 182.5t-192 71.5q-192 0 -262 -157h-143q40 132 146.5 206t260.5 74q190 0 303 -108.5t113 -268.5v-696h-149v131q-37 -61 -137.5 -108.5t-223.5 -47.5q-183 0 -290 92.5t-107 237.5z M266 303q0 -106 79 -166.5t204 -60.5q127 0 224 66.5t97 164.5q0 95 -95 159t-218 64q-133 0 -212 -60t-79 -167zM451 1364q0 73 51.5 122.5t136.5 49.5t136.5 -49.5t51.5 -122.5t-51.5 -122.5t-136.5 -49.5t-136.5 49.5t-51.5 122.5zM537 1364q0 -44 27 -71t75 -27t75 27 t27 71t-27 71t-75 27t-75 -27t-27 -71z" />
<glyph unicode="&#xe6;" horiz-adv-x="1896" d="M119 307q0 147 115.5 237.5t300.5 90.5q113 0 201.5 -40t133.5 -87v176q0 118 -71 192t-193 74q-200 0 -266 -162h-143q37 141 145.5 213t265.5 72q235 0 350 -178q59 84 154.5 131t220.5 47q145 0 247 -61t150 -162.5t48 -233.5v-155h-752v-37q0 -146 78.5 -238 t234.5 -92q114 0 188 55t101 148h139q-26 -142 -145 -232t-283 -90q-123 0 -228 57.5t-161 147.5q-44 -78 -154.5 -141.5t-254.5 -63.5q-191 0 -306.5 91.5t-115.5 240.5zM266 305q0 -101 76 -164t211 -63q126 0 221.5 66.5t95.5 162.5q0 92 -93 158.5t-218 66.5 q-134 0 -213.5 -61.5t-79.5 -165.5zM1026 580h606v49q0 147 -75.5 236t-223.5 89q-80 0 -140 -25t-95.5 -70t-52.5 -102.5t-19 -129.5v-47z" />
<glyph unicode="&#xe7;" horiz-adv-x="1146" d="M115 436v176q0 202 125.5 331.5t339.5 129.5q194 0 316.5 -111.5t131.5 -281.5h-139q-17 117 -92.5 193.5t-214.5 76.5q-156 0 -236 -91t-80 -245v-180q0 -154 80 -245t236 -91q139 0 214.5 76.5t92.5 194.5h139q-9 -162 -121.5 -272t-292.5 -120l-12 -71l27 -2 q157 -10 157 -133q0 -69 -55 -110.5t-147 -41.5q-70 0 -135 12v90q56 -12 112 -12q103 0 103 55q0 50 -89 56l-94 6l33 154q-186 18 -292.5 144t-106.5 312z" />
<glyph unicode="&#xe8;" horiz-adv-x="1134" d="M115 432v168q0 218 119 345.5t337 127.5q145 0 247 -61t150 -162.5t48 -233.5v-155h-752v-37q0 -146 79 -238t235 -92q114 0 187.5 55t100.5 148h140q-26 -142 -145 -232t-283 -90q-207 0 -335 123.5t-128 333.5zM264 580h606v49q0 147 -75.5 236t-223.5 89 q-82 0 -142.5 -26t-96 -73t-52 -107.5t-16.5 -135.5v-32zM295 1483h190l164 -291h-153z" />
<glyph unicode="&#xe9;" horiz-adv-x="1134" d="M115 432v168q0 218 119 345.5t337 127.5q145 0 247 -61t150 -162.5t48 -233.5v-155h-752v-37q0 -146 79 -238t235 -92q114 0 187.5 55t100.5 148h140q-26 -142 -145 -232t-283 -90q-207 0 -335 123.5t-128 333.5zM264 580h606v49q0 147 -75.5 236t-223.5 89 q-82 0 -142.5 -26t-96 -73t-52 -107.5t-16.5 -135.5v-32zM485 1192l166 291h189l-201 -291h-154z" />
<glyph unicode="&#xea;" horiz-adv-x="1134" d="M115 432v168q0 218 119 345.5t337 127.5q145 0 247 -61t150 -162.5t48 -233.5v-155h-752v-37q0 -146 79 -238t235 -92q114 0 187.5 55t100.5 148h140q-26 -142 -145 -232t-283 -90q-207 0 -335 123.5t-128 333.5zM264 580h606v49q0 147 -75.5 236t-223.5 89 q-82 0 -142.5 -26t-96 -73t-52 -107.5t-16.5 -135.5v-32zM276 1192l226 291h151l226 -291h-146l-155 203l-156 -203h-146z" />
<glyph unicode="&#xeb;" horiz-adv-x="1134" d="M115 432v168q0 218 119 345.5t337 127.5q145 0 247 -61t150 -162.5t48 -233.5v-155h-752v-37q0 -146 79 -238t235 -92q114 0 187.5 55t100.5 148h140q-26 -142 -145 -232t-283 -90q-207 0 -335 123.5t-128 333.5zM264 580h606v49q0 147 -75.5 236t-223.5 89 q-82 0 -142.5 -26t-96 -73t-52 -107.5t-16.5 -135.5v-32zM279 1333q0 42 27 68t71 26t71 -26t27 -68t-27 -68t-71 -26t-71 26t-27 68zM688 1333q0 42 27 68t71 26t71.5 -26.5t27.5 -67.5t-27.5 -67.5t-71.5 -26.5t-71 26t-27 68z" />
<glyph unicode="&#xec;" horiz-adv-x="507" d="M-31 1483h191l164 -291h-154zM176 0v1049h156v-1049h-156z" />
<glyph unicode="&#xed;" horiz-adv-x="507" d="M176 0v1049h156v-1049h-156zM193 1192l165 291h189l-201 -291h-153z" />
<glyph unicode="&#xee;" horiz-adv-x="507" d="M-47 1192l225 291h152l225 -291h-145l-156 203l-156 -203h-145zM176 0v1049h156v-1049h-156z" />
<glyph unicode="&#xef;" horiz-adv-x="507" d="M-49 1333q0 42 27 68t71 26t71 -26t27 -68t-27 -68t-71 -26t-71 26t-27 68zM176 0v1049h156v-1049h-156zM360 1333q0 41 27.5 67.5t71.5 26.5t71 -26t27 -68t-27 -68t-71 -26t-71.5 26.5t-27.5 67.5z" />
<glyph unicode="&#xf0;" horiz-adv-x="1167" d="M115 428v131q0 217 115.5 343t316.5 126q115 0 197 -42.5t128 -113.5q-53 117 -112 202.5t-142 156.5l-309 -101l-37 107l246 78q-100 80 -256 180h197q104 -54 203 -133l229 74l37 -105l-172 -55q135 -140 216 -312.5t81 -357.5v-160q0 -201 -131.5 -338t-343.5 -137 q-201 0 -332 129.5t-131 327.5zM266 416q0 -144 89 -232t225 -88q151 0 236 92t85 240v137q0 151 -92.5 248.5t-224.5 97.5q-150 0 -234 -93t-84 -257v-145z" />
<glyph unicode="&#xf1;" horiz-adv-x="1204" d="M166 0v1049h147v-179q38 93 128.5 148t222.5 55q177 0 281 -111t104 -300v-662h-156v639q0 140 -66 219.5t-202 79.5q-135 0 -219 -82.5t-84 -239.5v-616h-156zM252 1214q19 109 66 168.5t137 59.5q50 0 117 -32t124.5 -63.5t83.5 -31.5q22 0 37.5 9t26 29.5t16 36 t13.5 45.5q1 3 1.5 5t1 5t1.5 5l102 -23q-12 -49 -26 -84t-36 -69.5t-55.5 -52t-77.5 -17.5q-42 0 -103 32t-121.5 63.5t-100.5 31.5q-21 0 -37 -8.5t-25.5 -18t-19 -33t-12.5 -35t-11 -42.5z" />
<glyph unicode="&#xf2;" horiz-adv-x="1165" d="M115 438v172q0 130 54.5 234t162.5 166.5t252 62.5q216 0 341.5 -131.5t125.5 -331.5v-172q0 -200 -125.5 -331.5t-341.5 -131.5q-145 0 -253 62.5t-162 166.5t-54 234zM266 440q0 -153 83 -246.5t235 -93.5q151 0 234 93t83 247v168q0 154 -83 247t-234 93 q-152 0 -235 -93.5t-83 -246.5v-168zM305 1483h191l163 -291h-153z" />
<glyph unicode="&#xf3;" horiz-adv-x="1165" d="M115 438v172q0 130 54.5 234t162.5 166.5t252 62.5q216 0 341.5 -131.5t125.5 -331.5v-172q0 -200 -125.5 -331.5t-341.5 -131.5q-145 0 -253 62.5t-162 166.5t-54 234zM266 440q0 -153 83 -246.5t235 -93.5q151 0 234 93t83 247v168q0 154 -83 247t-234 93 q-152 0 -235 -93.5t-83 -246.5v-168zM520 1192l166 291h188l-200 -291h-154z" />
<glyph unicode="&#xf4;" horiz-adv-x="1165" d="M115 438v172q0 130 54.5 234t162.5 166.5t252 62.5q216 0 341.5 -131.5t125.5 -331.5v-172q0 -200 -125.5 -331.5t-341.5 -131.5q-145 0 -253 62.5t-162 166.5t-54 234zM266 440q0 -153 83 -246.5t235 -93.5q151 0 234 93t83 247v168q0 154 -83 247t-234 93 q-152 0 -235 -93.5t-83 -246.5v-168zM281 1192l225 291h151l226 -291h-146l-155 203l-156 -203h-145z" />
<glyph unicode="&#xf5;" horiz-adv-x="1165" d="M115 438v172q0 130 54.5 234t162.5 166.5t252 62.5q216 0 341.5 -131.5t125.5 -331.5v-172q0 -200 -125.5 -331.5t-341.5 -131.5q-145 0 -253 62.5t-162 166.5t-54 234zM238 1214q19 109 65.5 168.5t136.5 59.5q50 0 117.5 -32t125 -63.5t83.5 -31.5q11 0 20 2t16.5 8 t13.5 10t11.5 15t8.5 16t8 20t6.5 20t6 22.5t5.5 21.5l103 -23q-12 -49 -26 -84t-36 -69.5t-55.5 -52t-77.5 -17.5q-42 0 -103.5 32t-122 63.5t-100.5 31.5q-17 0 -31 -4t-24.5 -17t-16.5 -20t-13.5 -30.5t-9.5 -30t-9 -35.5zM266 440q0 -153 83 -246.5t235 -93.5 q151 0 234 93t83 247v168q0 154 -83 247t-234 93q-152 0 -235 -93.5t-83 -246.5v-168z" />
<glyph unicode="&#xf6;" horiz-adv-x="1165" d="M115 438v172q0 130 54.5 234t162.5 166.5t252 62.5q216 0 341.5 -131.5t125.5 -331.5v-172q0 -200 -125.5 -331.5t-341.5 -131.5q-145 0 -253 62.5t-162 166.5t-54 234zM266 440q0 -153 83 -246.5t235 -93.5q151 0 234 93t83 247v168q0 154 -83 247t-234 93 q-152 0 -235 -93.5t-83 -246.5v-168zM279 1333q0 42 27 68t71 26t71 -26t27 -68t-27 -68t-71 -26t-71 26t-27 68zM688 1333q0 42 27 68t71 26t71.5 -26.5t27.5 -67.5t-27.5 -67.5t-71.5 -26.5t-71 26t-27 68z" />
<glyph unicode="&#xf7;" horiz-adv-x="1216" d="M164 672v131h889v-131h-889zM506 342q0 43 29 70.5t73 27.5t73.5 -27.5t29.5 -70.5q0 -42 -30 -70t-73 -28t-72.5 28t-29.5 70zM506 1133q0 43 29 70.5t73 27.5t73.5 -27.5t29.5 -70.5q0 -42 -30 -70.5t-73 -28.5t-72.5 28.5t-29.5 70.5z" />
<glyph unicode="&#xf8;" horiz-adv-x="1165" d="M115 -102l131 202q-131 128 -131 338v172q0 130 54.5 234t162.5 166.5t252 62.5q146 0 254 -63l94 143h119l-133 -205q133 -130 133 -338v-172q0 -200 -125.5 -331.5t-341.5 -131.5q-143 0 -258 64l-93 -141h-118zM266 440q0 -136 60 -219l440 678q-77 49 -182 49 q-152 0 -235 -93.5t-83 -246.5v-168zM397 152q77 -52 187 -52q151 0 234 93t83 247v168q0 134 -61 219z" />
<glyph unicode="&#xf9;" horiz-adv-x="1196" d="M158 387v662h155v-639q0 -140 64 -222t194 -82q135 0 219 84.5t84 241.5v617h156v-1049h-147v178q-38 -93 -128.5 -148t-222.5 -55q-172 0 -273 111.5t-101 300.5zM365 1483h190l164 -291h-154z" />
<glyph unicode="&#xfa;" horiz-adv-x="1196" d="M158 387v662h155v-639q0 -140 64 -222t194 -82q135 0 219 84.5t84 241.5v617h156v-1049h-147v178q-38 -93 -128.5 -148t-222.5 -55q-172 0 -273 111.5t-101 300.5zM500 1192l166 291h188l-201 -291h-153z" />
<glyph unicode="&#xfb;" horiz-adv-x="1196" d="M158 387v662h155v-639q0 -140 64 -222t194 -82q135 0 219 84.5t84 241.5v617h156v-1049h-147v178q-38 -93 -128.5 -148t-222.5 -55q-172 0 -273 111.5t-101 300.5zM315 1192l226 291h151l226 -291h-146l-156 203l-155 -203h-146z" />
<glyph unicode="&#xfc;" horiz-adv-x="1196" d="M158 387v662h155v-639q0 -140 64 -222t194 -82q135 0 219 84.5t84 241.5v617h156v-1049h-147v178q-38 -93 -128.5 -148t-222.5 -55q-172 0 -273 111.5t-101 300.5zM311 1333q0 41 27.5 67.5t71.5 26.5t71 -26t27 -68t-27 -68t-71 -26t-71.5 26.5t-27.5 67.5zM721 1333 q0 42 27 68t71 26t71.5 -26.5t27.5 -67.5t-27.5 -67.5t-71.5 -26.5t-71 26t-27 68z" />
<glyph unicode="&#xfd;" horiz-adv-x="1040" d="M53 1049h154l319 -891l308 891h153l-387 -1049l-137 -356h-152l133 356zM430 1192l166 291h188l-200 -291h-154z" />
<glyph unicode="&#xfe;" horiz-adv-x="1220" d="M166 -356v1851h156v-594q41 72 135 122t211 50q205 0 321.5 -131.5t116.5 -337.5v-160q0 -206 -119 -337.5t-315 -131.5q-119 0 -210 49t-140 132v-512h-156zM322 451q0 -157 93 -253t228 -96q144 0 225.5 99t81.5 250v147q0 100 -31 176.5t-102 124t-176 47.5 q-151 0 -235 -101t-84 -259v-135z" />
<glyph unicode="&#xff;" horiz-adv-x="1040" d="M53 1049h154l319 -891l308 891h153l-387 -1049l-137 -356h-152l133 356zM223 1333q0 41 27.5 67.5t71.5 26.5t71 -26t27 -68t-27 -68t-71 -26t-71.5 26.5t-27.5 67.5zM633 1333q0 42 27 68t71 26t71 -26t27 -68t-27 -68t-71 -26t-71 26t-27 68z" />
<glyph unicode="&#x152;" horiz-adv-x="2187" d="M143 629v176q0 135 39.5 248.5t116 199t198.5 133.5t279 48h1297v-134h-787v-507h727v-134h-727v-526h789v-133h-1299q-157 0 -279 48t-198.5 133.5t-116 199t-39.5 248.5zM303 623q0 -104 28 -191t84 -155t148.5 -106t212.5 -38h350v1167h-350q-120 0 -212.5 -38 t-148.5 -105.5t-84 -154.5t-28 -191v-188z" />
<glyph unicode="&#x153;" horiz-adv-x="1921" d="M115 438v172q0 130 54.5 234t162.5 166.5t252 62.5q132 0 232.5 -50.5t156.5 -141.5q117 192 385 192q109 0 195 -35t139.5 -97t81.5 -144.5t28 -180.5v-155h-751v-43q2 -144 80 -234t233 -90q114 0 188 55t101 148h139q-26 -142 -145 -232t-283 -90q-130 0 -239.5 54.5 t-151.5 142.5q-44 -84 -151 -140.5t-238 -56.5q-145 0 -253 62.5t-162 166.5t-54 234zM266 440q0 -153 83 -246.5t235 -93.5q147 0 229.5 89.5t87.5 236.5v195q-5 149 -87.5 238t-229.5 89q-152 0 -235 -93.5t-83 -246.5v-168zM1051 580h606v49q0 147 -75.5 236t-223.5 89 q-82 0 -142.5 -26t-96 -73t-52 -107.5t-16.5 -135.5v-32z" />
<glyph unicode="&#x178;" horiz-adv-x="1236" d="M29 1434h168l421 -746l422 746h168l-510 -891v-543h-159v543zM291 1696q0 42 27 68t71 26t71 -26t27 -68t-27 -68t-71 -26t-71 26t-27 68zM745 1696q0 41 27.5 67.5t71.5 26.5t71 -26t27 -68t-27 -68t-71 -26t-71.5 26.5t-27.5 67.5z" />
<glyph unicode="&#x2c6;" horiz-adv-x="974" d="M186 1192l226 291h151l225 -291h-145l-156 203l-155 -203h-146z" />
<glyph unicode="&#x2dc;" horiz-adv-x="1099" d="M186 1214q19 109 66 168.5t137 59.5q50 0 117.5 -32t125 -63.5t83.5 -31.5q11 0 20 2t16.5 8t13.5 10t11.5 15t8.5 16t8 20t6.5 20t6 22.5t5.5 21.5l102 -23q-13 -50 -26 -84.5t-35 -69t-55.5 -52t-77.5 -17.5q-42 0 -103.5 32t-122 63.5t-100.5 31.5q-17 0 -31 -4 t-24.5 -17t-16.5 -20t-13.5 -30.5t-9.5 -30t-9 -35.5z" />
<glyph unicode="&#x2000;" horiz-adv-x="907" />
<glyph unicode="&#x2001;" horiz-adv-x="1815" />
<glyph unicode="&#x2002;" horiz-adv-x="907" />
<glyph unicode="&#x2003;" horiz-adv-x="1815" />
<glyph unicode="&#x2004;" horiz-adv-x="605" />
<glyph unicode="&#x2005;" horiz-adv-x="453" />
<glyph unicode="&#x2006;" horiz-adv-x="302" />
<glyph unicode="&#x2007;" horiz-adv-x="302" />
<glyph unicode="&#x2008;" horiz-adv-x="226" />
<glyph unicode="&#x2009;" horiz-adv-x="363" />
<glyph unicode="&#x200a;" horiz-adv-x="100" />
<glyph unicode="&#x2010;" horiz-adv-x="845" d="M137 571v138h572v-138h-572z" />
<glyph unicode="&#x2011;" horiz-adv-x="845" d="M137 571v138h572v-138h-572z" />
<glyph unicode="&#x2012;" horiz-adv-x="845" d="M137 571v138h572v-138h-572z" />
<glyph unicode="&#x2013;" horiz-adv-x="1253" d="M137 571v138h979v-138h-979z" />
<glyph unicode="&#x2014;" horiz-adv-x="1865" d="M137 571v138h1592v-138h-1592z" />
<glyph unicode="&#x2018;" horiz-adv-x="466" d="M92 975l141 459h132l-99 -459h-174z" />
<glyph unicode="&#x2019;" horiz-adv-x="466" d="M102 975l99 459h174l-142 -459h-131z" />
<glyph unicode="&#x201a;" horiz-adv-x="487" d="M72 -233l98 458h174l-141 -458h-131z" />
<glyph unicode="&#x201c;" horiz-adv-x="890" d="M92 975l141 459h132l-99 -459h-174zM516 975l141 459h131l-98 -459h-174z" />
<glyph unicode="&#x201d;" horiz-adv-x="890" d="M102 975l99 459h174l-142 -459h-131zM526 975l99 459h174l-142 -459h-131z" />
<glyph unicode="&#x201e;" horiz-adv-x="911" d="M72 -233l98 458h174l-141 -458h-131zM496 -233l98 458h174l-141 -458h-131z" />
<glyph unicode="&#x2022;" horiz-adv-x="856" d="M186 729q0 104 65.5 171t176.5 67t176.5 -67t65.5 -171t-65 -170.5t-177 -66.5t-177 66.5t-65 170.5z" />
<glyph unicode="&#x2026;" horiz-adv-x="1462" d="M139 88q0 44 29.5 72t75.5 28t75 -28t29 -72t-29.5 -72t-74.5 -28t-75 28t-30 72zM627 88q0 44 29 72t75 28t75.5 -28t29.5 -72t-30 -72t-75 -28t-74.5 28t-29.5 72zM1114 88q0 44 29.5 72t75.5 28t75 -28t29 -72t-29.5 -72t-74.5 -28t-75 28t-30 72z" />
<glyph unicode="&#x202f;" horiz-adv-x="363" />
<glyph unicode="&#x2039;" horiz-adv-x="718" d="M74 557l352 434h178l-352 -434l352 -434h-178z" />
<glyph unicode="&#x203a;" horiz-adv-x="718" d="M115 123l352 434l-352 434h178l352 -434l-352 -434h-178z" />
<glyph unicode="&#x205f;" horiz-adv-x="453" />
<glyph unicode="&#x20ac;" horiz-adv-x="1372" d="M94 477v115h174v250h-174v114h174v31q0 136 55.5 242t168 169.5t266.5 63.5q212 0 341.5 -126t137.5 -318h-139q-9 142 -100 231.5t-238 89.5q-166 0 -253 -92.5t-87 -253.5v-37h409v-114h-409v-250h409v-115h-409v-37q0 -161 87 -253.5t253 -92.5q147 0 238 90t100 232 h139q-8 -192 -137.5 -318.5t-341.5 -126.5q-154 0 -266.5 63.5t-168 169.5t-55.5 242v31h-174z" />
<glyph unicode="&#x2122;" horiz-adv-x="1339" d="M109 1366v68h446v-68h-182v-522h-82v522h-182zM668 844v590h75l189 -371l186 371h76v-590h-78v440l-145 -287h-80l-146 287v-440h-77z" />
<glyph unicode="&#xe000;" horiz-adv-x="1044" d="M0 0v1044h1044v-1044h-1044z" />
<glyph unicode="&#xfb01;" horiz-adv-x="1228" d="M86 922v127h154v139q0 155 73 231t230 76h147v-127h-135q-83 0 -121.5 -40t-38.5 -128v-151h258v-127h-258v-922h-155v922h-154zM877 1325q0 42 27 68t71 26t71 -26t27 -68t-27 -68t-71 -26t-71 26t-27 68zM897 0v1049h156v-1049h-156z" />
<glyph unicode="&#xfb02;" horiz-adv-x="1228" d="M86 922v127h154v139q0 155 73 231t230 76h147v-127h-135q-83 0 -121.5 -40t-38.5 -128v-151h258v-127h-258v-922h-155v922h-154zM897 0v1495h156v-1495h-156z" />
</font>
</defs>
</svg>
